<svg width="369" height="11" viewBox="0 0 369 11" fill="none" xmlns="http://www.w3.org/2000/svg">
<path fill-rule="evenodd" clip-rule="evenodd" d="M3.29789 7.02211C8.02532 2.99263 14.2257 2.99263 18.9531 7.02211C25.1757 12.326 33.5753 12.326 39.7979 7.02211C44.5253 2.99263 50.7257 2.99263 55.4531 7.02211C61.6757 12.326 70.0753 12.326 76.2979 7.02211C81.0253 2.99263 87.2257 2.99263 91.9531 7.02211C98.1757 12.326 106.575 12.326 112.798 7.02211C117.525 2.99263 123.726 2.99263 128.453 7.02211C134.676 12.326 143.075 12.326 149.298 7.02211C154.025 2.99263 160.226 2.99263 164.953 7.02211C171.176 12.326 179.575 12.326 185.798 7.02211C190.525 2.99263 196.726 2.99263 201.453 7.02211C207.676 12.326 216.075 12.326 222.298 7.02211C227.025 2.99263 233.226 2.99263 237.953 7.02211C244.176 12.326 252.575 12.326 258.798 7.02211C263.525 2.99263 269.726 2.99263 274.453 7.02211C280.676 12.326 289.075 12.326 295.298 7.02211C300.025 2.99263 306.226 2.99263 310.953 7.02211C317.176 12.326 325.575 12.326 331.798 7.02211C336.525 2.99263 342.726 2.99263 347.453 7.02211C353.676 12.326 362.075 12.326 368.298 7.02211L365.703 3.97789C360.976 8.00737 354.775 8.00737 350.048 3.97789C343.825 -1.32596 335.426 -1.32596 329.203 3.97789C324.476 8.00737 318.275 8.00737 313.548 3.97789C307.325 -1.32596 298.926 -1.32596 292.703 3.97789C287.976 8.00737 281.775 8.00737 277.048 3.97789C270.825 -1.32596 262.426 -1.32596 256.203 3.97789C251.476 8.00737 245.275 8.00737 240.548 3.97789C234.325 -1.32596 225.926 -1.32596 219.703 3.97789C214.976 8.00737 208.775 8.00737 204.048 3.97789C197.825 -1.32596 189.426 -1.32596 183.203 3.97789C178.476 8.00737 172.275 8.00737 167.548 3.97789C161.325 -1.32596 152.926 -1.32596 146.703 3.97789C141.976 8.00737 135.775 8.00737 131.048 3.97789C124.825 -1.32596 116.426 -1.32596 110.203 3.97789C105.476 8.00737 99.2753 8.00737 94.5479 3.97789C88.3253 -1.32596 79.9257 -1.32596 73.7031 3.97789C68.9757 8.00737 62.7753 8.00737 58.0479 3.97789C51.8253 -1.32596 43.4257 -1.32596 37.2031 3.97789C32.4757 8.00737 26.2753 8.00737 21.5479 3.97789C15.3253 -1.32596 6.92569 -1.32596 0.703125 3.97789L3.29789 7.02211Z" fill="#50959E"/>
</svg>
