<svg xmlns="http://www.w3.org/2000/svg" xmlns:xlink="http://www.w3.org/1999/xlink" width="232" height="25" fill="none"><g fill="#fdf8f5"><path fill-rule="evenodd" d="M27.995 20.6c.327 0 .508-.122.616-.356.037-.08.065-.175.088-.282l.484-2.662c.044-.286-.088-.572-.396-.572h-.176c-.23 0-.43.104-.616.27l-.076.072-.03.03c-.205.216-.393.502-.586.796-.21.318-.424.645-.672.902-.218.225-.462.395-.75.456a1.15 1.15 0 0 1-.24.025h-3.234c-.19 0-.352-.035-.49-.097-.31-.14-.497-.4-.594-.717-.056-.178-.08-.367-.08-.55l.022-4.598H24.1c.062 0 .12.005.176.014.455.077.71.45.92.807l.062.107.028.05.046.078c.152.258.297.462.506.462h.176c.22 0 .374-.198.374-.462v-3.542a.71.71 0 0 0-.008-.111c-.02-.12-.07-.213-.142-.273-.06-.05-.137-.078-.223-.078h-.176c-.203 0-.345.202-.49.462l-.04.073-.044.08c-.105.194-.22.403-.364.58-.193.236-.442.412-.8.412h-2.838v-4.73l.005-.132c.04-.493.297-.724.638-.792a1.22 1.22 0 0 1 .237-.022h2.816a1.2 1.2 0 0 1 .276.032 1.28 1.28 0 0 1 .184.058 1.71 1.71 0 0 1 .421.251l.174.15.002.002c.264.25.502.565.73.868l.162.213.09.114a4.22 4.22 0 0 0 .355.403l.03.03.018.017c.202.185.4.303.638.303h.132c.294 0 .488-.18.447-.523l-.006-.043-.001-.006-.528-2.574c-.01-.075-.026-.142-.044-.202-.013-.04-.027-.08-.044-.114l-.01-.02c-.103-.197-.28-.28-.584-.28H17.59c-.286 0-.484.132-.484.352v.088c0 .214.14.373.307.55l.025.027.15.166a1.37 1.37 0 0 1 .374.95v11.352c0 .426-.166.698-.352.917l-.143.157-.024.026-.12.13c-.125.142-.22.283-.22.465v.066c0 .026.002.05.007.075a.33.33 0 0 0 .013.048c.005.015.012.03.02.043.072.135.24.207.467.207h10.384zm-12.868-.222c.032-.044.06-.095.082-.152l.01-.028.014-.038a1.76 1.76 0 0 0 .052-.198l.572-3.08c.066-.308-.088-.484-.374-.484h-.264c-.17 0-.323.094-.465.248l-.024.027c-.043.05-.085.102-.127.16-.14.196-.276.44-.42.7l-.12.214-.103.18c-.2.325-.4.643-.653.887a1.64 1.64 0 0 1-.514.345c-.153.062-.32.097-.5.097H9.126c-.125 0-.237-.022-.336-.063-.28-.115-.455-.38-.535-.707a1.95 1.95 0 0 1-.052-.462V7.102c0-.436.2-.704.418-.922l.117-.113.026-.025c.204-.192.385-.362.385-.612v-.088c0-.22-.22-.352-.528-.352H4.484C4.176 5 4 5.122 4 5.342v.088c0 .238.145.404.315.585l.025.027.144.158c.185.214.352.48.352.902v11.396c0 .413-.167.68-.352.9l-.1.113-.047.052c-.18.195-.338.368-.338.607v.066c0 .22.176.374.484.374h10.12c.258 0 .418-.076.523-.222zm-2-15.482c.13-1.3.823-2.393 1.798-3.085C15.88 1.143 16.89 1 17.59 1H27.4a4.96 4.96 0 0 1 1.755.312c.72-.273 1.377-.312 1.77-.312H42.08c.236 0 .545.015.897.077C44.007.34 45.22 0 46.43 0c1.588 0 3.154.625 4.3 1.84 1.515-.72 3.227-1.05 4.978-1.05 2.54 0 4.878.678 6.693 1.905 1.173.793 2.366 2.01 2.987 3.583.41-.7.895-1.376 1.458-1.986 2.074-2.247 4.983-3.5 8.225-3.5 2.504 0 4.868.75 6.697 2.008.306.21.618.45.922.72 2.08-1.794 4.767-2.75 7.7-2.75 2.4 0 4.533.68 6.312 1.842.226-.277.49-.53.794-.754C98.503 1.12 99.567 1 100.218 1h4.136c.658 0 1.62.13 2.553.735.995.644 1.86 1.8 1.965 3.312.085-1.21.675-2.39 1.75-3.18 1.008-.74 2.072-.868 2.723-.868h4.136c.658 0 1.62.13 2.553.735 1.06.686 1.975 1.957 1.975 3.617v.088c0 .648-.14 1.244-.36 1.763a4.66 4.66 0 0 1-.586 1.005v5.367l.267-.218c.61-.464 1.546-.94 2.75-.94h.162l1.972-5.063-.01-.022c-.2-.4-.432-1.057-.432-1.893v-.088c0-3.107 2.74-4.352 4.44-4.352h2.288c.93 0 2.065.21 3.125.962.93.66 1.475 1.507 1.803 2.205a4.28 4.28 0 0 1 1.597-2.3c1.007-.74 2.07-.868 2.723-.868h5.72c2.455 0 4.822.544 6.685 1.912a7.8 7.8 0 0 1 1.256 1.149c2.15-2.136 5.065-3.28 8.263-3.28 2.4 0 4.533.68 6.312 1.842.226-.277.49-.53.795-.754 1.007-.74 2.07-.868 2.723-.868h5.434c2.427 0 5.002.482 7.09 1.937a8.33 8.33 0 0 1 2.104 2.101C188.307 2.15 190.917 1 192.56 1h2.288c.928 0 2.065.21 3.124.962a5.07 5.07 0 0 1 .615.512l.307-.304C200.077 1.096 201.427 1 202.07 1h11.154a5.05 5.05 0 0 1 1.478.216c.53-.167 1.027-.216 1.423-.216h9.812c.677 0 2.025.125 3.194 1.204 1.027.948 1.32 2.096 1.423 2.687l.532 2.604c.168.953.1 2.407-.94 3.673-.372.45-.792.78-1.222 1.022v.857c.893.348 1.64.98 2.135 1.784.667 1.085.745 2.234.613 3.098l-.018.107-.506 2.77c-.104.494-.387 1.585-1.342 2.516-1.08 1.052-2.37 1.298-3.276 1.298h-10.384c-.65 0-1.702-.128-2.703-.848-.185-.133-.357-.278-.515-.434a4.42 4.42 0 0 1-.465.398c-1.05.778-2.156.884-2.76.884h-4.114a4.75 4.75 0 0 1-1.714-.315c-.642.25-1.25.315-1.703.315h-4.818c-.693 0-1.746-.152-2.733-.884-.214-.16-.41-.334-.586-.523-.174.186-.37.36-.587.523-1.05.778-2.156.884-2.76.884h-2.882c-.186 0-.397-.01-.626-.04a4.95 4.95 0 0 1-.634.041h-4.598a4.67 4.67 0 0 1-2.149-.512c-.816.42-1.614.512-2.163.512h-4.136c-.645 0-1.755-.127-2.792-.922-.263-.202-.492-.424-.69-.66-1.795 1.147-3.94 1.802-6.283 1.802-2.97 0-5.612-1.05-7.638-2.786-.282.247-.584.477-.904.69-2.05 1.36-4.638 1.877-7.3 1.877h-6.138a4.87 4.87 0 0 1-.965-.096c-.357.073-.685.096-.957.096h-4.818c-.693 0-1.746-.152-2.732-.884-.214-.16-.4-.334-.587-.523a4.3 4.3 0 0 1-.587.523c-1.048.778-2.156.884-2.76.884h-2.882c-.28 0-.618-.025-.987-.102-.366.076-.7.102-1.008.102h-10.12c-.425 0-.944-.058-1.487-.238-.556.18-1.087.238-1.52.238h-10.12c-.78 0-1.87-.193-2.856-.98a4.35 4.35 0 0 1-.618-.604c-1.796 1.15-3.945 1.805-6.29 1.805-3.043 0-5.742-1.1-7.786-2.915l-.123.122c-1.847 1.802-4.374 2.793-7.3 2.793-4.276 0-7.707-2.46-9.67-5.772-.585 1.62-1.674 2.935-3.005 3.87-1.91 1.343-4.25 1.9-6.468 1.9-2.78 0-5.236-.732-7.1-2.038-1.766-1.23-3.402-3.3-3.402-5.922 0-.596.09-1.296.356-2.002-1.495.23-2.913-.366-3.815-1.243v3.808c.385.516.924 1.45.924 2.737v.066c0 1.205-.506 2.57-1.746 3.5-1.05.778-2.156.884-2.76.884h-4.114c-.645 0-1.754-.127-2.79-.922a4.4 4.4 0 0 1-.407-.354c-1.075 1.033-2.355 1.275-3.253 1.275H17.61a4.82 4.82 0 0 1-1.496-.235 4.93 4.93 0 0 1-1.511.235H4.484c-.78 0-1.87-.193-2.856-.98C.556 22.77 0 21.508 0 20.236v-.066a4.6 4.6 0 0 1 .836-2.632v-9.47C.66 7.816.456 7.47.292 7.035.11 6.55 0 6.008 0 5.43v-.088c0-1.313.595-2.63 1.76-3.484C2.768 1.12 3.833 1 4.484 1H8.62c.658 0 1.62.13 2.553.735a4.31 4.31 0 0 1 1.954 3.181zM34.263 19.62c-.165.173-.3.334-.3.55v.066c0 .242.176.374.484.374h4.114c.33 0 .506-.132.506-.374v-.066c0-.225-.155-.392-.338-.573l-.035-.034-.133-.134c-.215-.225-.418-.498-.418-.93V6.42h1.782a1.08 1.08 0 0 1 .049.001c.206.01.387.078.55.186.406.272.694.798.96 1.285l.072.13c.127.23.25.446.384.613l.022.027c.04.048.08.092.122.13a.93.93 0 0 0 .062.053c.043.033.086.06.132.08.064.03.13.045.202.045h.33c.282 0 .472-.167.45-.466-.002-.027-.006-.055-.01-.084l-.462-2.816c-.04-.276-.135-.45-.308-.54-.05-.025-.104-.044-.166-.057a1.15 1.15 0 0 0-.23-.021H30.926a1.31 1.31 0 0 0-.198.013.76.76 0 0 0-.132.032.49.49 0 0 0-.159.088c-.047.04-.085.088-.117.147-.012.022-.023.046-.032.07-.03.075-.05.163-.066.265L29.826 8.4a.7.7 0 0 0-.008.214c.014.108.06.193.13.252.082.07.2.106.34.106h.308a.49.49 0 0 0 .246-.068.69.69 0 0 0 .084-.057c.072-.057.14-.13.205-.217.01-.013.02-.027.03-.04a5.94 5.94 0 0 0 .401-.697l.135-.257.054-.1c.18-.327.382-.64.635-.85a1.06 1.06 0 0 1 .695-.264h1.76v12.078c0 .43-.192.704-.396.93-.043.047-.086.092-.13.136l-.055.057zm10.34-14.328l-.013.043a2.32 2.32 0 0 0-.066.298 2.7 2.7 0 0 0-.031.413c0 .1.005.178.014.264.025.236.083.453.168.645.036.08.076.156.12.226a1.41 1.41 0 0 0 .73.602c.126.043.26.066.398.066.037 0 .07.004.098.012s.045.016.063.028c.023.015.042.034.056.057.006.01.012.022.017.033.03.073.03.173.008.287a1.99 1.99 0 0 1-.242.733l-.03.052c-.177.298-.445.607-.837 1.005l-.016.016-.108.108c-.374.374.154.924.594.66m.04-.026c.123-.078.24-.158.356-.24l.035-.024a7.44 7.44 0 0 0 1.2-1.049l.113-.128a5.34 5.34 0 0 0 .574-.803l.043-.076a4.68 4.68 0 0 0 .139-.271c.278-.59.42-1.21.427-1.86V6.3c0-.1-.004-.178-.01-.264a2.48 2.48 0 0 0-.362-1.141 1.96 1.96 0 0 0-.508-.542 1.9 1.9 0 0 0-.452-.241 1.98 1.98 0 0 0-.635-.121L46.43 4a2.25 2.25 0 0 0-.506.055c-.655.15-1.12.6-1.32 1.237m5.324 3.477a4.53 4.53 0 0 0-.02.179c-.013.138-.02.278-.02.42.001.155.006.305.017.45.05.692.21 1.263.453 1.738a3.6 3.6 0 0 0 .121.217 3.53 3.53 0 0 0 .444.587l.062.065c.983 1.003 2.486 1.394 3.912 1.764l.925.248c1.29.37 2.392.837 2.804 1.905.112.3.173.624.173 1.012 0 1.342-1.012 2.222-2.552 2.222a5.21 5.21 0 0 1-.132-.002c-1.493-.04-2.265-.745-2.817-1.556l-.09-.138c-.15-.235-.287-.477-.42-.71l-.17-.298c-.42-.73-.854-1.325-1.695-1.342-.723 0-1.136.368-1.27.91a1.79 1.79 0 0 0-.05.431c0 .754.428 1.6 1.247 2.298l.073.062a5.37 5.37 0 0 0 .35.268c1.106.777 2.74 1.333 4.842 1.333h.132c2.737-.04 5.124-1.282 5.684-3.475a4.08 4.08 0 0 0 .124-1.012c0-1.05-.245-1.844-.652-2.457-.264-.397-.597-.72-.976-.987-.93-.657-2.138-.988-3.3-1.307-.575-.158-1.14-.313-1.654-.502-.978-.36-1.775-.847-2.12-1.72-.12-.31-.185-.656-.185-1.056 0-1.254.814-2.266 2.486-2.266l.066.001c1.302.022 1.927.7 2.383 1.487.04.068.078.137.115.207.086.16.167.323.247.484l.17.335.02.04c.4.745.83 1.364 1.774 1.364.764 0 1.212-.344 1.356-.916.035-.137.052-.287.052-.448.01-.838-.498-1.707-1.408-2.404-.093-.07-.19-.14-.3-.207-1.068-.71-2.6-1.195-4.418-1.195h-.066c-1.27.008-2.364.255-3.246.687-.466.228-.872.507-1.215.83-.457.43-.8.938-1.02 1.504-.062.16-.115.327-.157.498-.037.15-.066.302-.086.458zM79.95 6.43c-1.15-.963-2.908-1.638-4.87-1.638-.24 0-.474.01-.704.03-3.324.282-5.71 2.56-6.398 5.8-.133.627-.202 1.29-.202 1.98 0 4.246 3.322 8.228 7.48 8.228a8.25 8.25 0 0 0 .99-.058c1.744-.21 3.038-.98 3.904-2.03l.013-.016c.677-.828 1.09-1.83 1.248-2.87l.025-.183a6.67 6.67 0 0 0 .024-.232c.066-.682-.704-.814-1.056-.352a8.41 8.41 0 0 1-.139.236c-.264.43-.597.885-1.02 1.292-.313.3-.675.576-1.09.8-.54.278-1.172.454-1.907.454a3.81 3.81 0 0 1-.99-.133c-1.858-.5-3.512-2.38-4.057-5.125-.123-.618-.19-1.28-.19-1.98 0-2.772 1.606-4.488 3.366-4.488a2.96 2.96 0 0 1 .704.081c1.146.28 1.773 1.236 2.346 2.167l.07.116.28.452c.334.52.683.982 1.138 1.244.252.145.537.23.87.23 1 0 1.562-.594 1.562-1.474 0-.81-.43-1.622-1.164-2.312-.075-.07-.153-.14-.235-.208zm2.847 4.78a8.98 8.98 0 0 1 .22-.984c.127-.447.287-.873.478-1.276.382-.805.888-1.515 1.5-2.112 1.093-1.065 2.527-1.766 4.204-1.99a8.96 8.96 0 0 1 1.188-.078c2.404 0 4.47 1.06 5.855 2.755.114.14.222.282.327.43.14.196.27.4.39.6.72 1.247 1.128 2.726 1.128 4.323 0 .898-.125 1.746-.358 2.53-.145.49-.333.952-.558 1.387a7.62 7.62 0 0 1-.41.7c-.062.094-.127.187-.193.278a7.42 7.42 0 0 1-.452.562c-1.194 1.345-2.85 2.218-4.74 2.433-.302.035-.61.052-.924.052-2.24 0-4.208-.897-5.606-2.366a7.72 7.72 0 0 1-1.011-1.324l-.096-.162a7.98 7.98 0 0 1-.623-1.377c-.213-.624-.352-1.267-.414-1.938-.025-.27-.038-.542-.038-.818a10.01 10.01 0 0 1 .131-1.633zm16.936 9.026c0 .22.176.374.484.374h10.12c.258 0 .418-.076.524-.222a.81.81 0 0 0 .082-.152c.003-.01.007-.018.01-.028s.01-.025.014-.038a1.78 1.78 0 0 0 .052-.198l.572-3.08c.066-.308-.088-.484-.374-.484h-.264c-.17 0-.322.094-.465.248l-.024.027c-.043.05-.085.102-.127.16-.14.196-.275.44-.418.7l-.113.203-.1.193c-.18.312-.382.617-.622.857a1.67 1.67 0 0 1-.546.375 1.31 1.31 0 0 1-.501.097h-3.168a.88.88 0 0 1-.336-.063c-.28-.115-.455-.38-.535-.707-.035-.144-.053-.3-.053-.462V7.102c0-.436.202-.704.418-.922.04-.04.08-.077.117-.113l.027-.025c.203-.192.384-.362.384-.612v-.088c0-.22-.22-.352-.528-.352h-4.136c-.308 0-.484.132-.484.352v.088c0 .03.003.062.007.09.03.192.16.337.307.494.008.01.017.018.025.027.026.027.05.054.077.082a2.14 2.14 0 0 1 .067.076c.13.15.25.326.312.564.026.1.04.212.04.338v11.396c0 .413-.167.68-.352.9-.032.04-.066.076-.1.113l-.047.052c-.18.195-.338.368-.338.607v.066zm13.442-14.22c.008.01.017.018.025.027a3.81 3.81 0 0 1 .144.158c.185.214.352.48.352.902v11.396c0 .413-.167.68-.352.9-.032.04-.066.076-.1.113l-.047.052-.1.112c-.134.153-.237.303-.237.496v.066c0 .028.003.054.01.08a.27.27 0 0 0 .014.049c.07.157.228.246.46.246h10.12c.258 0 .418-.076.524-.222a.81.81 0 0 0 .082-.152c.003-.01.007-.018.01-.028s.01-.025.014-.038c.024-.074.04-.134.052-.198l.572-3.08c.056-.26-.046-.427-.252-.472-.037-.008-.078-.012-.122-.012h-.264c-.17 0-.322.094-.465.248l-.024.027c-.043.05-.085.102-.127.16-.1.14-.2.308-.3.487a.68.68 0 0 1-.02.036l-.098.178c-.356.643-.757 1.37-1.39 1.627a1.31 1.31 0 0 1-.501.097h-3.168a.88.88 0 0 1-.336-.063c-.28-.115-.455-.38-.535-.707-.036-.144-.053-.3-.053-.462V7.102c0-.436.202-.704.418-.922.04-.04.08-.077.117-.113l.027-.025c.203-.192.384-.362.384-.612v-.088c0-.22-.22-.352-.528-.352h-4.136c-.308 0-.484.132-.484.352v.088c0 .238.146.404.315.585zM128.342 20.6c.104 0 .192-.013.264-.038a.33.33 0 0 0 .242-.336v-.066c0-.16-.103-.29-.242-.416a3.58 3.58 0 0 0-.173-.147l-.09-.076c-.013-.01-.025-.022-.038-.033-.095-.082-.185-.168-.256-.267l-.025-.037c-.01-.018-.022-.036-.032-.054-.094-.17-.124-.377-.023-.643l.638-1.76h6.138l.66 1.76c.1.262.073.465-.018.635-.058.11-.142.203-.234.29a3.56 3.56 0 0 1-.144.126l-.07.057c-.068.056-.135.112-.195.168-.127.12-.22.245-.22.395v.066c0 .157.084.268.22.326.074.032.164.048.264.048h4.818c.286 0 .484-.132.484-.374v-.088c-.01-.25-.184-.406-.41-.607l-.073-.065c-.117-.105-.244-.225-.367-.378-.13-.16-.253-.352-.36-.6l-5.258-12.562a2.48 2.48 0 0 0-.092-.192 1.73 1.73 0 0 0-.208-.314 1.25 1.25 0 0 0-.081-.088C133.218 5.1 132.9 5 132.5 5h-2.288c-.264 0-.44.154-.44.352v.088c0 .178.16.368.34.582l.1.123c.256.315.498.68.33 1.12l-4.378 11.242a2.36 2.36 0 0 1-.704.992l-.085.075c-.212.185-.378.33-.397.562-.001.007-.001.014-.001.02s-.001.015-.001.023v.066c0 .02.002.038.004.056.03.206.217.318.48.318h2.882zm3.3-12.144l-2.508 6.842h5.082l-2.574-6.842zM142.1 18.498c0 .413-.168.68-.352.898l-.063.07-.1.098c-.176.19-.33.355-.33.583v.088c0 .242.176.374.484.374h6.138l.374-.004c2.428-.056 4.215-.657 5.293-1.65.663-.61 1.057-1.37 1.166-2.24.02-.165.03-.334.03-.506 0-.55-.11-1.06-.316-1.52-.27-.6-.705-1.115-1.285-1.523a4.8 4.8 0 0 0-.531-.322 5.45 5.45 0 0 0-.665-.291c-.44-.16-.924-.277-1.45-.347.58-.132 1.09-.37 1.508-.696.21-.163.394-.348.553-.553.333-.428.552-.943.632-1.523.023-.164.035-.332.035-.506 0-.056-.002-.112-.004-.167-.018-.396-.098-.775-.242-1.13-.63-1.56-2.478-2.64-5.518-2.64h-5.72c-.308 0-.484.132-.484.352v.088c0 .22.134.384.294.56l.043.047.147.164c.184.22.352.487.352.9v11.396zm3.3-.814c0 .302.064.58.18.814a1.39 1.39 0 0 0 .49.556c.213.137.47.214.76.214h1.43c2.002 0 3.036-.946 3.036-2.552 0-.168-.014-.337-.04-.506-.06-.387-.193-.773-.394-1.136a3.73 3.73 0 0 0-.628-.835 3.98 3.98 0 0 0-.833-.635c-.394-.225-.848-.4-1.36-.5a5.61 5.61 0 0 0-1.1-.105h-1.54v4.686zm.7-6.042c-.432-.136-.7-.5-.7-.998V7.322a1.68 1.68 0 0 1 .013-.22c.058-.468.31-.677.636-.744.087-.018.18-.026.275-.026h1.034l.1.001c1.583.04 2.652.968 2.833 2.595a4.58 4.58 0 0 1 .027.506c0 .064-.002.128-.007.2-.02.31-.093.594-.2.85-.346.75-1.087 1.227-2.07 1.227h-1.54a1.33 1.33 0 0 1-.4-.058zm9.854 1.46a7.29 7.29 0 0 1-.004-.257c0-.823.095-1.603.275-2.332.024-.096.05-.192.076-.286.13-.455.293-.89.49-1.298.123-.257.258-.504.406-.74 1.133-1.818 2.98-3.03 5.288-3.34.384-.05.78-.078 1.188-.078 2.4 0 4.48 1.065 5.865 2.767.1.135.215.274.317.418a8.48 8.48 0 0 1 .383.597c.725 1.25 1.135 2.734 1.135 4.337a8.86 8.86 0 0 1-.358 2.53c-.145.49-.333.952-.558 1.387a7.55 7.55 0 0 1-.41.7c-.062.094-.126.187-.192.278a7.65 7.65 0 0 1-.452.562c-1.194 1.345-2.85 2.218-4.74 2.433-.302.035-.6.052-.924.052-2.123 0-4.002-.806-5.383-2.14-.72-.696-1.303-1.535-1.716-2.48s-.653-1.995-.685-3.11zm17.064 7.135c0 .242.176.374.484.374h4.136c.308 0 .528-.132.528-.374v-.066c0-.24-.18-.412-.382-.607l-.03-.03a3.58 3.58 0 0 1-.116-.115c-.03-.03-.06-.064-.1-.097-.18-.205-.328-.457-.328-.824v-3.784l2.42-.044 2.3 3.828c.182.328.2.562.12.748a.82.82 0 0 1-.12.209c-.058.074-.124.142-.188.208a1.96 1.96 0 0 0-.183.204c-.068.09-.113.188-.113.304v.066c0 .242.176.374.484.374h4.598c.022 0 .043-.001.064-.002.27-.017.442-.147.442-.372v-.066c0-.266-.21-.42-.506-.625-.006-.004-.013-.008-.02-.013l-.245-.176c-.058-.043-.117-.1-.177-.14a3.14 3.14 0 0 1-.637-.718l-2.882-4.356a5.6 5.6 0 0 0 1.056-.578c.25-.174.475-.365.676-.57.757-.765 1.18-1.717 1.265-2.704a4.24 4.24 0 0 0 .017-.374C185.58 6.596 182.874 5 178.936 5h-5.434c-.308 0-.484.132-.484.352v.088a.46.46 0 0 0 .008.092c.034.194.174.346.33.516l.08.087c.023.025.045.05.068.077.128.152.247.327.308.557.028.103.044.216.044.343v11.396c0 .413-.168.68-.352.9-.05.058-.1.112-.147.164-.007.008-.014.016-.022.024-.17.186-.315.354-.315.584v.066zm4.202-8.338c0 .77.214 1.194.634 1.37a1.53 1.53 0 0 0 .598.103h.946c.073 0 .146-.002.218-.006.918-.055 1.683-.46 2.13-1.24a2.95 2.95 0 0 0 .277-.669c.096-.34.148-.73.148-1.165a5.04 5.04 0 0 0-.012-.351c0-.008-.001-.015-.001-.023-.07-1.006-.426-1.815-.937-2.408-.062-.07-.118-.13-.175-.188-.6-.592-1.35-.928-2.11-.982a3.1 3.1 0 0 0-.22-.008h-.748a.79.79 0 0 0-.167.017c-.322.07-.518.35-.568.753-.01.07-.013.143-.013.22v4.576zm11.292 6.6c-.188.5-.465.78-.704.992l-.085.075c-.226.197-.4.348-.4.605v.066c0 .242.198.374.484.374h2.882c.103 0 .19-.013.264-.038a.46.46 0 0 0 .09-.043c.1-.063.152-.162.152-.293v-.066c0-.123-.062-.23-.154-.33a1.54 1.54 0 0 0-.088-.087c-.054-.05-.113-.098-.173-.147l-.09-.076c-.108-.09-.214-.188-.294-.3-.01-.012-.017-.024-.025-.037-.012-.018-.022-.036-.032-.054-.094-.17-.124-.377-.023-.643l.638-1.76h6.138l.66 1.76c.1.262.072.465-.018.635-.058.11-.142.203-.235.29a2.96 2.96 0 0 1-.143.126l-.07.057c-.07.056-.136.112-.195.168-.127.12-.22.245-.22.395v.066c0 .157.083.268.22.326.074.032.163.048.264.048h4.818c.286 0 .484-.132.484-.374v-.066c0-.264-.178-.422-.41-.63l-.073-.065a3.3 3.3 0 0 1-.368-.378c-.128-.16-.252-.352-.358-.6L196.2 5.936a2.48 2.48 0 0 0-.092-.192c-.064-.12-.133-.224-.208-.314a1.25 1.25 0 0 0-.081-.088c-.243-.242-.55-.352-.96-.352h-2.288c-.264 0-.44.154-.44.352v.088c0 .178.16.368.338.582l.102.123c.256.315.497.68.33 1.12l-4.378 11.242zM194 8.466l-2.508 6.842h5.082L194 8.466zm11.997 10.032c0 .43-.192.704-.396.93-.043.047-.087.092-.13.136-.02.02-.037.038-.055.057-.165.173-.3.334-.3.55v.066c0 .242.176.374.484.374h4.114c.33 0 .506-.132.506-.374v-.066c0-.225-.156-.392-.34-.573l-.034-.034-.133-.134c-.216-.225-.418-.498-.418-.93V6.42h1.782a1.07 1.07 0 0 1 .048.001c.282.013.518.136.722.323.26.238.47.577.66.92l.1.2c.005.01.01.02.016.03.153.28.298.546.455.744.008.01.015.018.022.027.04.048.08.092.122.13a.82.82 0 0 0 .062.053.54.54 0 0 0 .334.126h.33c.308 0 .506-.198.44-.55l-.462-2.816a1.32 1.32 0 0 0-.038-.176.72.72 0 0 0-.031-.088c-.052-.128-.13-.218-.24-.275a.63.63 0 0 0-.167-.057c-.068-.014-.144-.02-.23-.02H202.07c-.073 0-.14.004-.198.013a.76.76 0 0 0-.132.032c-.15.052-.247.15-.308.306-.03.075-.05.163-.066.265L200.97 8.4c-.066.374.132.572.462.572h.308a.48.48 0 0 0 .055-.003c.067-.008.13-.03.19-.065.028-.016.056-.035.084-.057.072-.057.14-.13.205-.217l.03-.04c.14-.192.267-.44.4-.697.363-.696.767-1.472 1.52-1.472h1.76v12.078zm9.695-13.31c-.024.04-.037.087-.04.138v.105a.49.49 0 0 0 .055.224c.056.113.15.217.253.327.008.01.016.018.025.027a4.41 4.41 0 0 1 .151.166c.195.226.374.507.374.95v11.352a1.33 1.33 0 0 1-.352.917c-.047.055-.095.107-.143.157l-.024.026c-.18.19-.34.358-.34.595v.066c0 .242.198.374.506.374h10.384c.327 0 .508-.122.616-.356.037-.08.066-.175.088-.282l.484-2.662c.044-.286-.088-.572-.396-.572h-.176c-.23 0-.43.104-.616.27-.025.023-.05.047-.076.072a.64.64 0 0 0-.029.031c-.206.216-.394.502-.587.796-.21.318-.423.645-.672.902-.218.225-.462.395-.75.456-.077.016-.157.025-.24.025h-3.234c-.19 0-.352-.035-.5-.097-.3-.14-.498-.4-.595-.717-.056-.178-.08-.367-.08-.55l.022-4.598h2.838c.062 0 .12.005.176.014.456.077.71.45.92.807l.062.107a1.51 1.51 0 0 0 .028.05c.015.027.03.053.046.078.152.258.296.462.506.462h.176c.22 0 .374-.198.374-.462v-3.542c0-.286-.154-.462-.374-.462h-.176c-.203 0-.345.202-.49.462-.014.024-.027.048-.04.073l-.044.08c-.105.194-.22.403-.363.58-.194.236-.442.412-.8.412H219.8v-4.73a1.85 1.85 0 0 1 .005-.132c.04-.493.297-.724.638-.792.076-.015.155-.022.237-.022h2.816c.095 0 .187.01.276.032a1.24 1.24 0 0 1 .183.058c.15.06.29.146.42.25.06.047.12.1.176.153.265.25.502.565.73.868.205.27.402.533.606.73.01.01.02.02.03.03l.018.017c.202.185.4.303.638.303h.132c.308 0 .506-.198.44-.572l-.528-2.574c-.01-.075-.026-.142-.044-.202-.09-.293-.273-.414-.638-.414h-9.812c-.2 0-.373.07-.444.197zm-7.386 17.2l.002-.002zm-1.224.067l.003.003zm-120.91-9.61a13.53 13.53 0 0 1-.26-2.618c0-2.442 1.276-4.026 3.3-4.026.41 0 .806.085 1.188.243 1.955.808 3.502 3.52 4.095 6.445a12.82 12.82 0 0 1 .261 2.53c0 2.288-1.32 3.982-3.366 3.982-.316 0-.624-.05-.924-.142-2.053-.636-3.683-3.33-4.294-6.414zm77.577 6.414a3.11 3.11 0 0 0 .924.142c2.046 0 3.366-1.694 3.366-3.982a12.82 12.82 0 0 0-.261-2.53c-.593-2.925-2.14-5.637-4.095-6.445-.382-.158-.78-.243-1.188-.243-2.024 0-3.3 1.584-3.3 4.026 0 .88.09 1.763.26 2.618.6 3.083 2.24 5.778 4.293 6.414z"/><path d="M44.044 6.6h2v4h-2z"/></g><g fill="#50959e"><path d="M4.484 20.6h10.12c.44 0 .594-.22.682-.638l.572-3.08c.066-.308-.088-.484-.374-.484h-.264c-.946 0-1.276 2.86-2.926 2.86H9.126c-.638 0-.924-.572-.924-1.232V7.102c0-.946.946-1.1.946-1.672v-.088c0-.22-.22-.352-.528-.352H4.484C4.176 5 4 5.122 4 5.342v.088c0 .572.836.726.836 1.672v11.396c0 .924-.836 1.122-.836 1.672v.066c0 .22.176.374.484.374zm13.126 0h10.384c.44 0 .616-.22.704-.638l.484-2.662c.044-.286-.088-.572-.396-.572H28.6c-1.144 0-1.54 2.552-2.97 2.552h-3.234c-.858 0-1.166-.726-1.166-1.364l.022-4.598H24.1c1.078 0 1.166 1.518 1.738 1.518h.176c.22 0 .374-.198.374-.462v-3.542c0-.286-.154-.462-.374-.462h-.176c-.572 0-.66 1.606-1.738 1.606h-2.838v-4.73c0-.704.396-.946.88-.946h2.816c1.408 0 2.046 2.442 3.08 2.442h.132c.308 0 .506-.198.44-.572l-.528-2.574C28.017 5.166 27.84 5 27.4 5h-9.8c-.286 0-.484.132-.484.352v.088c0 .528.858.726.858 1.694v11.352c0 .968-.858 1.144-.858 1.694v.066c0 .242.198.374.506.374zm16.836 0h4.114c.33 0 .506-.132.506-.374v-.066c0-.55-.924-.748-.924-1.672V6.42h1.782c1.364 0 1.65 2.552 2.552 2.552h.33c.308 0 .506-.198.44-.55l-.462-2.816C42.718 5.166 42.52 5 42.08 5H30.926c-.462 0-.638.176-.704.616L29.826 8.4c-.066.374.132.572.462.572h.308c.902 0 1.122-2.552 2.486-2.552h1.76v12.078c0 .924-.88 1.122-.88 1.672v.066c0 .242.176.374.484.374zm11.08-9.758c1.98-1.254 2.926-2.794 2.926-4.532 0-1.474-.946-2.3-2.024-2.3-1.188 0-1.936.836-1.936 2.046 0 1.056.638 1.804 1.43 1.804.242 0 .286.176.242.418-.088.66-.418 1.1-1.232 1.914-.374.374.154.924.594.66zm10.587 9.988c3.2 0 5.94-1.628 5.94-4.488 0-6.336-8.888-3.3-8.888-8.03 0-1.254.814-2.266 2.486-2.266 3.212 0 2.398 3.916 4.774 3.916.946 0 1.408-.528 1.408-1.364.022-1.826-2.42-3.806-6.116-3.806-3.63 0-5.83 1.936-5.83 4.576.022 6.512 8.9 3.3 8.9 7.986 0 1.342-1.012 2.222-2.552 2.222-3.718 0-3.124-4.004-5.324-4.048-.902 0-1.32.572-1.32 1.342 0 1.76 2.332 3.96 6.512 3.96zm19.142 0c3.96 0 5.962-2.618 6.204-5.4.066-.682-.704-.814-1.056-.352-.66 1.166-1.936 2.772-4.158 2.772-2.662 0-5.236-2.882-5.236-7.238 0-2.772 1.606-4.488 3.366-4.488 3.124 0 3.036 4.3 5.412 4.3 1 0 1.562-.594 1.562-1.474 0-2.068-2.816-4.158-6.27-4.158-4.356 0-7.304 3.3-7.304 7.8 0 4.246 3.322 8.228 7.48 8.228z"/><use xlink:href="#B"/><use xlink:href="#C"/><use xlink:href="#C" x="13.127"/><path d="M139.1 18.498l-5.258-12.562c-.286-.66-.682-.946-1.342-.946h-2.288c-.264 0-.44.154-.44.352v.088c0 .462 1.078 1.012.77 1.826l-4.378 11.242c-.396 1.056-1.188 1.122-1.188 1.672v.066c0 .242.198.374.484.374h2.882c.33 0 .506-.132.506-.374v-.066c0-.55-1.232-.748-.88-1.672l.638-1.76h6.138l.66 1.76c.352.924-.88 1.122-.88 1.672v.066c0 .242.198.374.484.374h4.818c.286 0 .484-.132.484-.374v-.066c0-.55-.77-.638-1.2-1.672zm-9.966-3.2l2.508-6.842 2.574 6.842h-5.082zm21.37-3.092c1.65-.374 2.728-1.606 2.728-3.278 0-2.222-1.936-3.938-5.764-3.938h-5.72c-.308 0-.484.132-.484.352v.088c0 .55.836.748.836 1.672v11.396c0 .924-.836 1.122-.836 1.65v.088c0 .242.176.374.484.374h6.138c4.444 0 6.864-1.76 6.864-4.4 0-2.112-1.606-3.652-4.246-4.004zM145.4 7.322c0-.77.418-1 .924-1h1.034c1.804 0 2.97 1.122 2.97 3.102 0 1.32-.902 2.266-2.288 2.266h-1.54c-.66 0-1.1-.418-1.1-1.056V7.322zm2.86 11.946h-1.43c-.858 0-1.43-.682-1.43-1.584v-4.686h1.54c2.86 0 4.356 1.958 4.356 3.718 0 1.606-1.034 2.552-3.036 2.552z"/><use xlink:href="#B" x="73.283"/><path d="M185.47 18.498l-2.882-4.356c2.002-.836 3.014-2.508 3.014-4.224C185.58 6.596 182.874 5 178.936 5h-5.434c-.308 0-.484.132-.484.352v.088c0 .55.836.748.836 1.672v11.396c0 .924-.836 1.122-.836 1.672v.066c0 .242.176.374.484.374h4.136c.308 0 .528-.132.528-.374v-.066c0-.55-.946-.748-.946-1.672v-3.784l2.42-.044 2.3 3.828c.55 1-.484 1.122-.484 1.672v.066c0 .242.176.374.484.374h4.598c.308 0 .506-.132.506-.374v-.066c0-.55-.902-.616-1.584-1.672zm-7.018-5.126c-.814 0-1.232-.396-1.232-1.474V7.322c0-.594.264-1 .748-1h.748c1.694 0 3.454 1.408 3.454 3.96 0 2.1-1.188 3.08-2.772 3.08h-.946zm22.996 5.126L196.2 5.936c-.286-.66-.682-.946-1.342-.946h-2.288c-.264 0-.44.154-.44.352v.088c0 .462 1.078 1.012.77 1.826l-4.378 11.242c-.396 1.056-1.188 1.122-1.188 1.672v.066c0 .242.198.374.484.374h2.882c.33 0 .506-.132.506-.374v-.066c0-.55-1.232-.748-.88-1.672l.638-1.76h6.138l.66 1.76c.352.924-.88 1.122-.88 1.672v.066c0 .242.198.374.484.374h4.818c.286 0 .484-.132.484-.374v-.066c0-.55-.77-.638-1.2-1.672zm-9.966-3.2L194 8.466l2.574 6.842h-5.082zM205.6 20.6h4.114c.33 0 .506-.132.506-.374v-.066c0-.55-.924-.748-.924-1.672V6.42h1.782c1.364 0 1.65 2.552 2.552 2.552h.33c.308 0 .506-.198.44-.55l-.462-2.816c-.066-.44-.264-.616-.704-.616H202.07c-.462 0-.638.176-.704.616L200.97 8.4c-.066.374.132.572.462.572h.308c.902 0 1.122-2.552 2.486-2.552h1.76v12.078c0 .924-.88 1.122-.88 1.672v.066c0 .242.176.374.484.374zm10.558 0h10.384c.44 0 .616-.22.704-.638l.484-2.662c.044-.286-.088-.572-.396-.572h-.176c-1.144 0-1.54 2.552-2.97 2.552h-3.234c-.858 0-1.166-.726-1.166-1.364l.022-4.598h2.838c1.078 0 1.166 1.518 1.738 1.518h.176c.22 0 .374-.198.374-.462v-3.542c0-.286-.154-.462-.374-.462h-.176c-.572 0-.66 1.606-1.738 1.606H219.8v-4.73c0-.704.396-.946.88-.946h2.816c1.408 0 2.046 2.442 3.08 2.442h.132c.308 0 .506-.198.44-.572l-.528-2.574c-.066-.44-.242-.616-.682-.616h-9.812c-.286 0-.484.132-.484.352v.088c0 .528.858.726.858 1.694v11.352c0 .968-.858 1.144-.858 1.694v.066c0 .242.198.374.506.374z"/></g><defs ><path id="B" d="M90.455 20.83c4.3 0 7.634-3.3 7.634-7.942 0-4.532-3.278-8.118-7.7-8.118-4.598 0-7.722 3.344-7.722 8.074 0 4.488 3.366 7.986 7.788 7.986zm.924-1.43c-3.08 0-5.478-4.664-5.478-9.174 0-2.442 1.276-4.026 3.3-4.026 3.102 0 5.544 4.906 5.544 9.218 0 2.288-1.32 3.982-3.366 3.982z"/><path id="C" d="M100.218 20.6h10.12c.44 0 .594-.22.682-.638l.572-3.08c.066-.308-.088-.484-.374-.484h-.264c-.946 0-1.276 2.86-2.926 2.86h-3.168c-.638 0-.924-.572-.924-1.232V7.102c0-.946.946-1.1.946-1.672v-.088c0-.22-.22-.352-.528-.352h-4.136c-.308 0-.484.132-.484.352v.088c0 .572.836.726.836 1.672v11.396c0 .924-.836 1.122-.836 1.672v.066c0 .22.176.374.484.374z"/></defs></svg>