<svg xmlns="http://www.w3.org/2000/svg" xmlns:xlink="http://www.w3.org/1999/xlink" width="189" height="25" fill="none"><g fill="#50959e"><use xlink:href="#B"/><path d="M19.5 20h10.384c.44 0 .616-.22.704-.638l.484-2.662c.044-.286-.088-.572-.396-.572H30.5c-1.144 0-1.54 2.552-2.97 2.552h-3.234c-.858 0-1.166-.726-1.166-1.364l.022-4.598h2.838c1.078 0 1.166 1.518 1.738 1.518h.176c.22 0 .374-.198.374-.462v-3.542c0-.286-.154-.462-.374-.462h-.176c-.572 0-.66 1.606-1.738 1.606h-2.838v-4.73c0-.704.396-.946.88-.946h2.816c1.408 0 2.046 2.442 3.08 2.442h.132c.308 0 .506-.198.44-.572l-.528-2.574c-.066-.44-.242-.616-.682-.616h-9.8c-.286 0-.484.132-.484.352v.088c0 .528.858.726.858 1.694v11.352c0 .968-.858 1.144-.858 1.694v.066c0 .242.198.374.506.374zm13.536 0H43.4c.44 0 .616-.22.704-.638l.484-2.662c.044-.286-.088-.572-.396-.572h-.176c-1.144 0-1.54 2.552-2.97 2.552h-3.234c-.858 0-1.166-.726-1.166-1.364l.022-4.598h2.838c1.078 0 1.166 1.518 1.738 1.518h.176c.22 0 .374-.198.374-.462v-3.542c0-.286-.154-.462-.374-.462h-.176c-.572 0-.66 1.606-1.738 1.606h-2.838v-4.73c0-.704.396-.946.88-.946h2.816c1.408 0 2.046 2.442 3.08 2.442h.132c.308 0 .506-.198.44-.572l-.528-2.574c-.066-.44-.242-.616-.682-.616h-9.812c-.286 0-.484.132-.484.352v.088c0 .528.858.726.858 1.694v11.352c0 .968-.858 1.144-.858 1.694v.066c0 .242.198.374.506.374zm24.56.22c3.96 0 5.962-2.618 6.204-5.4.066-.682-.704-.814-1.056-.352-.66 1.166-1.936 2.772-4.158 2.772-2.662 0-5.236-2.882-5.236-7.238 0-2.772 1.606-4.488 3.366-4.488 3.124 0 3.036 4.3 5.412 4.3 1 0 1.562-.594 1.562-1.474 0-2.068-2.816-4.158-6.27-4.158-4.356 0-7.304 3.3-7.304 7.8 0 4.246 3.322 8.228 7.48 8.228zM78.3 17.888L73.053 5.326c-.286-.66-.682-.946-1.342-.946h-2.288c-.264 0-.44.154-.44.352v.088c0 .462 1.078 1.012.77 1.826l-4.378 11.242c-.396 1.056-1.188 1.122-1.188 1.672v.066c0 .242.198.374.484.374h2.882c.33 0 .506-.132.506-.374v-.066c0-.55-1.232-.748-.88-1.672l.638-1.76h6.138l.66 1.76c.352.924-.88 1.122-.88 1.672v.066c0 .242.198.374.484.374h4.818c.286 0 .484-.132.484-.374v-.066c0-.55-.77-.638-1.2-1.672zm-9.966-3.2l2.508-6.842 2.574 6.842h-5.082z"/><use xlink:href="#B" x="74.851"/><path d="M94.343 20h10.384c.44 0 .616-.22.704-.638l.484-2.662c.044-.286-.088-.572-.396-.572h-.176c-1.144 0-1.54 2.552-2.97 2.552H99.14c-.858 0-1.166-.726-1.166-1.364l.022-4.598h2.838c1.078 0 1.166 1.518 1.738 1.518h.176c.22 0 .374-.198.374-.462v-3.542c0-.286-.154-.462-.374-.462h-.176c-.572 0-.66 1.606-1.738 1.606h-2.838v-4.73c0-.704.396-.946.88-.946h2.816c1.408 0 2.046 2.442 3.08 2.442h.132c.308 0 .506-.198.44-.572l-.528-2.574c-.066-.44-.242-.616-.682-.616H94.32c-.286 0-.484.132-.484.352v.088c0 .528.858.726.858 1.694v11.352c0 .968-.858 1.144-.858 1.694v.066c0 .242.198.374.506.374z"/><use xlink:href="#B" x="106.627"/><path d="M129.182 20h4.114c.33 0 .506-.132.506-.374v-.066c0-.55-.924-.748-.924-1.672V5.8h1.782c1.364 0 1.65 2.552 2.552 2.552h.33c.308 0 .506-.198.44-.55l-.462-2.816c-.066-.44-.264-.616-.704-.616h-11.154c-.462 0-.638.176-.704.616l-.396 2.794c-.066.374.132.572.462.572h.308c.902 0 1.122-2.552 2.486-2.552h1.76v12.078c0 .924-.88 1.122-.88 1.672v.066c0 .242.176.374.484.374zm17.178.22c3.586 0 6.05-2.2 6.05-6.138v-7.6c0-.924.946-1.122.946-1.672v-.088c0-.22-.198-.352-.506-.352h-2.508c-.286 0-.506.132-.506.352V4.8c0 .55.88.748.88 1.672v7.546c0 3.564-1.98 4.752-3.63 4.752-2.442 0-3.916-1.65-3.916-4.752V6.492c0-.924.946-1.122.946-1.672v-.088c0-.22-.198-.352-.506-.352h-4.136c-.308 0-.506.132-.506.352v.088c0 .55.858.748.858 1.672v7.546c0 3.982 2.684 6.182 6.534 6.182zm9.235-.22h6.05c5.016 0 8.47-3.08 8.47-7.788 0-4.5-3.674-7.832-9.504-7.832h-5.016c-.308 0-.506.132-.506.352v.088c0 .55.858.748.858 1.672v11.396c0 .924-.858 1.122-.858 1.672v.066c0 .242.198.374.506.374zm5.258-1.342c-1.012 0-1.628-.682-1.628-1.892V6.646c0-.704.396-.924.88-.924h.418c3.498 0 6.138 3.564 6.138 7.898 0 3.234-2.002 5.038-4.686 5.038h-1.122zM184.148 4.38h-2.904c-.308 0-.484.132-.484.352v.088c0 .55 1.408.748.88 1.672l-3.388 5.94-3.388-5.94c-.484-.858.858-1.122.858-1.672v-.088c0-.22-.198-.352-.506-.352h-4.994c-.308 0-.528.132-.528.352v.088c0 .55.814.704 1.43 1.672l4.664 7.392v4.004c0 .924-.836 1.122-.836 1.672v.066c0 .242.176.374.484.374h4.158c.286 0 .484-.132.484-.374v-.066c0-.55-.924-.748-.924-1.672v-4.246l4.136-7.15c.594-1.056 1.342-1.122 1.342-1.672v-.088c0-.22-.176-.352-.484-.352z"/></g><path fill-rule="evenodd" d="M13.474 7.13l.247.484.17.335v.04c.39.745.83 1.364 1.774 1.364l.16-.005c.667-.045 1.064-.38 1.198-.91.035-.137.052-.287.052-.448.006-.494-.17-1-.5-1.474-.23-.33-.535-.644-.908-.93l-.3-.207-.4-.243c-1.034-.576-2.408-.953-4.02-.953h-.066c-3.09.02-5.13 1.45-5.64 3.52-.083.336-.125.69-.125 1.056.003.9.175 1.613.47 2.187a3.53 3.53 0 0 0 .565.805l.062.065c.983 1.003 2.486 1.394 3.912 1.764l.925.248c1.29.37 2.392.837 2.804 1.905.112.3.173.624.173 1.012 0 1.342-1.012 2.222-2.552 2.222a4.77 4.77 0 0 1-.132-.002c-1.493-.04-2.265-.745-2.817-1.556l-.09-.138-.42-.71-.17-.298c-.42-.73-.854-1.325-1.695-1.342-.723 0-1.135.368-1.27.91a1.79 1.79 0 0 0-.05.431c0 .754.428 1.6 1.247 2.298l.073.062.35.268c1.106.777 2.74 1.333 4.842 1.333h.132c1.29-.018 2.504-.304 3.484-.83.712-.383 1.302-.894 1.71-1.522.22-.34.388-.715.492-1.122a4.08 4.08 0 0 0 .124-1.012c0-1.05-.245-1.844-.652-2.457a3.67 3.67 0 0 0-.817-.869l-.16-.117c-.93-.657-2.138-.988-3.3-1.307l-1.654-.502c-.978-.36-1.775-.847-2.12-1.72-.12-.31-.185-.656-.185-1.056 0-1.254.814-2.266 2.486-2.266l.066.001c1.302.022 1.927.7 2.383 1.487l.115.207zm5.874 11.8l-.024.025c-.18.19-.34.358-.34.595v.066c0 .242.198.374.506.374h10.384c.327 0 .508-.122.616-.356l.034-.084c.02-.06.04-.126.054-.198l.484-2.662c.044-.286-.088-.572-.396-.572h-.176c-.23 0-.43.104-.616.27l-.076.072-.03.03-.024.026c-.127.138-.247.302-.367.477l-.195.293-.246.368c-.133.192-.273.376-.426.533-.218.225-.462.395-.75.456a1.15 1.15 0 0 1-.24.025h-3.234a1.19 1.19 0 0 1-.491-.097c-.31-.14-.498-.4-.594-.717-.056-.178-.08-.367-.08-.55l.022-4.598h2.838c.062 0 .12.005.176.014.456.077.71.45.92.806l.136.235c.152.258.297.462.506.462h.176c.22 0 .374-.198.374-.462v-3.542c0-.286-.154-.462-.374-.462h-.176c-.203 0-.345.202-.49.462l-.04.073-.044.08c-.105.194-.22.403-.363.58-.193.236-.442.412-.8.412h-2.838v-4.73l.005-.132c.04-.493.297-.724.638-.792a1.22 1.22 0 0 1 .237-.022h2.816a1.2 1.2 0 0 1 .276.032 1.28 1.28 0 0 1 .184.058 1.71 1.71 0 0 1 .421.251l.176.153c.265.25.502.565.73.868l.606.73.03.03.018.017.097.083c.172.136.35.22.54.22h.132c.308 0 .506-.198.44-.572l-.528-2.574a1.49 1.49 0 0 0-.036-.176l-.008-.026-.02-.062c-.096-.248-.278-.352-.617-.352H19.47c-.286 0-.484.132-.484.352v.088c0 .214.14.373.307.55l.026.027.15.166a1.37 1.37 0 0 1 .374.95v11.352a1.33 1.33 0 0 1-.352.917l-.143.157zM32.743 4.426c-.095.04-.165.1-.2.183-.016.037-.024.078-.024.123v.088c0 .214.14.373.308.55l.025.027.15.166a1.37 1.37 0 0 1 .374.95v11.352a1.33 1.33 0 0 1-.352.917l-.143.157-.024.025c-.126.133-.242.255-.3.397a.52.52 0 0 0-.04.198v.066a.38.38 0 0 0 .01.091c.005.02.012.042.02.06.067.145.24.223.475.223H43.4c.327 0 .508-.122.616-.356.037-.08.066-.175.088-.282l.484-2.662c.044-.286-.088-.572-.396-.572h-.176c-.23 0-.43.104-.616.27l-.076.072-.03.03c-.205.216-.393.502-.586.796-.21.318-.424.645-.672.902-.218.225-.462.395-.75.456-.077.016-.156.025-.24.025h-3.234c-.19 0-.352-.035-.5-.097-.31-.14-.498-.4-.594-.717-.056-.178-.08-.367-.08-.55l.022-4.598h2.838c.062 0 .12.005.176.014.455.077.71.45.92.806l.062.107.028.05.046.078c.152.258.297.462.506.462h.176c.22 0 .374-.198.374-.462v-3.542c0-.286-.154-.462-.374-.462h-.176c-.203 0-.345.202-.49.462l-.04.073-.044.08c-.105.194-.22.403-.364.58-.193.236-.442.412-.8.412h-2.838v-4.73l.005-.132c.04-.493.297-.724.638-.792a1.22 1.22 0 0 1 .237-.022h2.816a1.2 1.2 0 0 1 .276.032 1.28 1.28 0 0 1 .183.058c.15.06.288.146.42.25l.176.153c.265.25.502.565.73.868l.606.73.03.03.018.017c.202.185.4.303.638.303h.132c.308 0 .506-.198.44-.572l-.528-2.574c-.01-.075-.026-.142-.044-.202-.1-.293-.273-.414-.638-.414h-9.812-.043c-.082.004-.155.02-.218.045zm-1.57-3.68A4.71 4.71 0 0 1 33.004.38h9.812c.677 0 2.025.125 3.194 1.204 1.027.948 1.32 2.096 1.422 2.687l.29 1.406a11.07 11.07 0 0 1 1.463-1.994c2.074-2.247 4.983-3.5 8.225-3.5 2.504 0 4.868.75 6.697 2.008a9.62 9.62 0 0 1 1.159.937C66.008 1.188 68.052.38 69.423.38h2.288c.928 0 2.065.21 3.124.962 1.017.72 1.572 1.664 1.888 2.393l.02.046.353.844c.493-.848 1.144-1.61 1.937-2.252C80.912.85 83.33.182 85.828.182c2.037 0 3.943.436 5.555 1.24l.274-.21c.956-.678 1.967-.83 2.664-.83h9.812c.676 0 2.025.125 3.194 1.204 1.027.948 1.32 2.096 1.422 2.688l.086.417c.497-.873 1.16-1.656 1.973-2.315 1.88-1.524 4.298-2.19 6.796-2.19 1.9 0 3.69.38 5.23 1.085 1.1-.8 2.248-.887 2.83-.887h11.154c.332 0 .812.03 1.35.178.5-.14.956-.178 1.3-.178h4.136c.656 0 1.665.13 2.635.797.268.184.514.398.735.638.242-.262.508-.486.783-.67.92-.613 1.882-.765 2.58-.765h2.508c.37 0 .85.04 1.372.196a4.85 4.85 0 0 1 1.372-.196h5.016c2.3 0 4.482.414 6.41 1.25.205-.197.424-.37.65-.516.933-.604 1.895-.735 2.552-.735h4.994c.656 0 1.665.13 2.635.797a4.22 4.22 0 0 1 .385.298l.285-.228c1.008-.74 2.072-.868 2.723-.868h2.904c.65 0 1.716.13 2.723.868 1.166.855 1.76 2.17 1.76 3.484v.088c0 1.202-.46 2.162-.993 2.832-.368.464-.814.823-.888.882l-.04.034-3.557 6.148v2.108c.385.516.924 1.45.924 2.736v.066a4.33 4.33 0 0 1-1.751 3.49c-.987.732-2.04.884-2.733.884h-4.158c-.645 0-1.754-.127-2.79-.922-.978-.75-1.488-1.78-1.642-2.786l-.548.535c-2.353 2.145-5.5 3.172-8.8 3.172h-6.05c-.65 0-1.702-.128-2.703-.848-.25-.18-.476-.38-.676-.6-1.74 1.16-3.793 1.668-5.855 1.668-2.663 0-5.343-.766-7.402-2.638-.45-.4-.85-.854-1.202-1.328a4.3 4.3 0 0 1-1.701 2.863c-1.05.778-2.156.884-2.76.884h-4.114c-.645 0-1.755-.127-2.79-.922-.5-.39-.893-.858-1.164-1.358a8.74 8.74 0 0 1-.759.599c-1.908 1.343-4.25 1.9-6.468 1.9-2.78 0-5.236-.732-7.1-2.038-.6-.41-1.166-.916-1.67-1.504-.17.558-.51 1.335-1.216 2.023-1.08 1.053-2.372 1.298-3.276 1.298H94.343c-.65 0-1.7-.128-2.703-.848l-.15-.113c-1.645.827-3.495 1.18-5.265 1.18s-3.403-.296-4.842-.847c-.867.512-1.742.627-2.345.627H74.22c-.693 0-1.746-.152-2.733-.884-.214-.16-.4-.334-.586-.523-.174.186-.37.36-.587.523-1.05.778-2.156.884-2.76.884H64.67c-.64 0-1.586-.13-2.504-.725-1.362.62-2.908.945-4.58.945-4.044 0-7.33-2.2-9.336-5.24l-.2 1.097-.02.108c-.104.494-.388 1.585-1.342 2.516C45.607 23.754 44.315 24 43.4 24H33.026c-.403 0-.96-.05-1.565-.26-.576.197-1.13.26-1.586.26H19.49c-.65 0-1.702-.128-2.703-.848-.05-.037-.102-.075-.15-.113-1.645.827-3.495 1.18-5.265 1.18-2.78 0-5.236-.732-7.1-2.038C2.497 20.952.86 18.882.86 16.26c0-1.017.264-2.333 1.206-3.47-.6-1.162-.914-2.512-.92-4.018v-.014a8.11 8.11 0 0 1 3.034-6.385C6.06.85 8.48.182 10.977.182c2.037 0 3.943.436 5.554 1.24a4.35 4.35 0 0 1 .274-.211C17.76.533 18.77.38 19.47.38h9.812c.43 0 1.135.05 1.892.366zM67.553 20a.81.81 0 0 0 .264-.038.33.33 0 0 0 .242-.336v-.066c0-.16-.104-.29-.242-.416-.054-.05-.113-.098-.173-.147l-.09-.076c-.108-.09-.214-.188-.294-.3-.01-.012-.017-.024-.025-.037-.01-.018-.022-.036-.032-.054-.094-.17-.124-.377-.023-.643l.638-1.76h6.138l.66 1.76c.1.262.072.465-.018.635-.058.11-.142.203-.234.29a3.22 3.22 0 0 1-.143.126l-.07.057a3.91 3.91 0 0 0-.195.168c-.127.12-.22.245-.22.395v.066c0 .157.083.268.22.326.074.032.163.048.264.048h4.818c.286 0 .484-.132.484-.374v-.066c0-.264-.178-.422-.41-.63l-.073-.065a3.24 3.24 0 0 1-.368-.378 2.49 2.49 0 0 1-.359-.6L73.053 5.326a2.68 2.68 0 0 0-.092-.192c-.064-.12-.133-.224-.208-.314-.026-.03-.053-.06-.08-.088-.243-.242-.55-.352-.96-.352h-2.288c-.264 0-.44.154-.44.352v.088c0 .178.16.368.338.582l.102.123c.256.315.497.68.33 1.12l-4.378 11.242c-.188.5-.465.78-.704.992l-.085.075c-.225.197-.4.348-.4.605v.066c0 .242.198.374.484.374h2.882zm-3.763-5.17c.066-.682-.704-.814-1.056-.352-.044.077-.1.156-.14.236a7.02 7.02 0 0 1-.607.849c-.395.47-.9.917-1.505 1.233-.54.278-1.172.454-1.907.454a3.81 3.81 0 0 1-.99-.133c-1.858-.5-3.512-2.38-4.057-5.125-.123-.618-.19-1.28-.19-1.98 0-2.772 1.606-4.488 3.366-4.488.255 0 .49.03.704.08 1.146.28 1.773 1.236 2.346 2.167l.07.116.282.452c.52.808 1.072 1.474 2.01 1.474 1 0 1.562-.594 1.562-1.474 0-.893-.525-1.79-1.398-2.52-1.15-.963-2.908-1.638-4.872-1.638-.24 0-.474.01-.704.03-3.324.282-5.71 2.56-6.398 5.8-.133.627-.202 1.29-.202 1.98 0 4.246 3.322 8.228 7.48 8.228a8.25 8.25 0 0 0 .99-.058c.59-.07 1.127-.206 1.614-.394.116-.044.228-.092.338-.142l.14-.066a5.43 5.43 0 0 0 1.826-1.444c.267-.327.493-.68.68-1.055l.013-.027c.277-.564.46-1.17.556-1.8l.025-.183c.01-.077.018-.154.024-.232zm15.973 1a1.79 1.79 0 0 0-.05.431c0 .306.07.625.208.943.208.474.555.937 1.04 1.355l.073.062c.1.092.227.18.35.268.358.25.77.48 1.236.673l.164.066c.23.1.475.17.73.243.8.22 1.696.35 2.7.35h.132c1.29-.018 2.504-.304 3.484-.83.712-.383 1.302-.894 1.71-1.522.22-.34.388-.715.492-1.122a4.08 4.08 0 0 0 .124-1.012c0-1.05-.244-1.844-.652-2.457a3.67 3.67 0 0 0-.817-.869 4.38 4.38 0 0 0-.159-.117c-.93-.657-2.138-.988-3.3-1.307-.576-.158-1.14-.313-1.654-.502-.978-.36-1.775-.847-2.12-1.72-.12-.31-.185-.656-.185-1.056 0-1.254.814-2.266 2.486-2.266l.066.001c1.302.022 1.927.7 2.383 1.487a7.12 7.12 0 0 1 .115.207 17.55 17.55 0 0 1 .247.484l.17.335.02.04c.4.745.83 1.364 1.774 1.364.055 0 .107-.002.16-.005.667-.045 1.064-.38 1.198-.91.035-.137.052-.287.052-.448.006-.494-.168-1-.5-1.474a4.25 4.25 0 0 0-.909-.93 5.38 5.38 0 0 0-.29-.207 5.88 5.88 0 0 0-.399-.243c-1.034-.576-2.408-.953-4.02-.953h-.066c-3.09.02-5.13 1.45-5.64 3.52a4.41 4.41 0 0 0-.125 1.056c.003.9.175 1.613.47 2.187a3.53 3.53 0 0 0 .565.805l.062.065c.983 1.003 2.486 1.394 3.912 1.764l.924.248c1.29.37 2.392.837 2.804 1.905.112.3.173.624.173 1.012 0 1.342-1.012 2.222-2.552 2.222a4.78 4.78 0 0 1-.132-.002c-1.493-.04-2.265-.745-2.817-1.556a5.89 5.89 0 0 1-.091-.138c-.15-.235-.287-.477-.42-.71l-.17-.298c-.35-.606-.708-1.12-1.3-1.286a1.57 1.57 0 0 0-.395-.056c-.723 0-1.136.368-1.27.91zm14.933 2.037a1.33 1.33 0 0 1-.352.917 3.97 3.97 0 0 1-.143.157l-.024.025c-.18.19-.34.358-.34.595v.066c0 .242.198.374.506.374h10.384c.327 0 .508-.122.616-.356a1.37 1.37 0 0 0 .088-.282l.484-2.662c.044-.286-.088-.572-.396-.572h-.176c-.23 0-.432.104-.616.27-.026.023-.05.047-.076.072l-.03.03c-.205.216-.393.502-.586.796-.21.318-.424.645-.672.902-.218.225-.462.395-.75.456a1.14 1.14 0 0 1-.239.025H99.14c-.19 0-.352-.035-.5-.097-.31-.14-.498-.4-.594-.717-.056-.178-.08-.367-.08-.55l.022-4.598h2.838c.062 0 .12.005.176.014.455.077.71.45.92.806l.062.107.03.05.045.078c.153.258.297.462.507.462h.176c.22 0 .374-.198.374-.462v-3.542c0-.286-.154-.462-.374-.462h-.176c-.203 0-.345.202-.492.462l-.04.073-.044.08c-.105.194-.22.403-.363.58-.194.236-.442.412-.8.412h-2.838v-4.73A1.69 1.69 0 0 1 98 6.514c.04-.493.297-.724.638-.792a1.22 1.22 0 0 1 .237-.022h2.816c.095 0 .187.01.276.032a1.32 1.32 0 0 1 .183.058 1.71 1.71 0 0 1 .421.251 2.81 2.81 0 0 1 .176.153c.264.25.502.565.73.868.204.27.402.533.605.73l.032.03.018.017c.202.185.4.303.638.303h.132c.308 0 .506-.198.44-.572l-.528-2.574c-.01-.075-.026-.142-.044-.202-.1-.293-.273-.414-.638-.414H94.32c-.286 0-.484.132-.484.352v.088c0 .214.14.373.308.55l.026.027c.05.053.1.107.15.166a1.37 1.37 0 0 1 .374.95v11.352zm20.396-.596c-.15-.235-.287-.477-.42-.71l-.17-.298c-.422-.73-.854-1.325-1.695-1.342-.724 0-1.136.368-1.27.91-.033.134-.05.28-.05.43 0 .754.428 1.6 1.247 2.298l.073.062a5.19 5.19 0 0 0 .35.268c1.106.777 2.74 1.333 4.842 1.333h.132c2.737-.04 5.124-1.28 5.684-3.475.08-.318.124-.655.124-1.012 0-1.05-.245-1.844-.653-2.457-.264-.397-.596-.72-.975-.987-.93-.657-2.138-.988-3.302-1.307-.575-.158-1.14-.313-1.654-.502-.978-.36-1.775-.847-2.12-1.72-.12-.31-.184-.656-.184-1.056 0-1.254.814-2.266 2.486-2.266l.066.001c1.3.022 1.927.7 2.382 1.487a5.77 5.77 0 0 1 .115.207 17.83 17.83 0 0 1 .247.484l.17.335c.007.013.014.026.02.04l.015.028c.386.733.827 1.336 1.76 1.336.763 0 1.21-.344 1.356-.916.034-.137.052-.287.052-.448a2.16 2.16 0 0 0-.021-.32c-.002-.01-.003-.02-.005-.03-.114-.725-.6-1.453-1.382-2.053a5.91 5.91 0 0 0-.29-.207c-.32-.213-.68-.405-1.077-.57-.93-.387-2.06-.625-3.34-.625h-.066c-3.09.02-5.13 1.45-5.64 3.52-.083.336-.125.69-.125 1.056.003.9.175 1.613.47 2.187a3.53 3.53 0 0 0 .565.805c.02.022.04.043.062.065.983 1.003 2.486 1.394 3.912 1.764l.924.248c1.3.37 2.393.837 2.805 1.905.112.3.173.624.173 1.012 0 1.342-1.012 2.222-2.552 2.222a4.74 4.74 0 0 1-.132-.002c-1.493-.04-2.266-.745-2.818-1.556l-.09-.138zm10.373-12.876a.76.76 0 0 0-.132.032c-.15.052-.247.15-.308.306-.03.075-.05.163-.066.265l-.396 2.794c-.013.073-.016.14-.01.198.03.25.2.374.472.374h.308a.49.49 0 0 0 .246-.068c.028-.016.056-.035.084-.057.072-.057.14-.13.205-.217l.024-.032c.145-.2.273-.448.408-.706.283-.545.593-1.138 1.074-1.37a1.01 1.01 0 0 1 .445-.101h1.76v12.078c0 .43-.192.704-.396.93-.043.047-.087.092-.13.136l-.055.057c-.165.173-.3.334-.3.55v.066c0 .242.176.374.484.374h4.114c.33 0 .506-.132.506-.374v-.066c0-.225-.155-.392-.338-.573a1.04 1.04 0 0 1-.035-.034l-.133-.134c-.216-.225-.418-.498-.418-.93V5.8h1.782c.016 0 .032 0 .048.001.143.006.273.04.394.098.3.136.522.4.725.706l.003.005c.14.21.266.44.387.663.153.28.3.546.456.744l.02.027c.04.048.08.092.122.13.02.02.04.036.062.053a.54.54 0 0 0 .334.126h.33c.308 0 .506-.198.44-.55l-.462-2.816a1.32 1.32 0 0 0-.038-.176.72.72 0 0 0-.031-.088c-.052-.128-.13-.218-.24-.275-.05-.025-.104-.044-.166-.057-.068-.014-.145-.02-.23-.02h-11.154c-.073 0-.14.004-.198.013zm13.716.04c-.133.058-.21.16-.21.3v.088c.006.233.15.397.318.576.01.01.02.02.03.03.052.056.107.113.16.175.186.217.352.483.352.9v7.546c0 3.982 2.684 6.182 6.534 6.182a8.23 8.23 0 0 0 .726-.031c1.962-.173 3.526-1.057 4.438-2.566a5.23 5.23 0 0 0 .245-.454c.064-.13.122-.266.177-.405.302-.774.464-1.67.464-2.682v-7.6c0-.44.215-.716.44-.943l.124-.12c.203-.195.382-.368.382-.607v-.088c0-.22-.198-.352-.506-.352h-2.508c-.286 0-.506.132-.506.352v.088c0 .24.167.412.356.607l.15.16c.196.22.374.49.374.904v7.6c-.016 3.53-1.987 4.708-3.63 4.708a4.84 4.84 0 0 1-.726-.053c-2.005-.304-3.2-1.918-3.2-4.7V6.492c0-.44.215-.716.44-.943l.112-.1c.215-.207.394-.38.394-.62v-.088c0-.22-.198-.352-.506-.352h-4.136c-.115 0-.215.02-.295.053zm1.825-1.93l.003-.003zm1.18.137h0zm8.06-.137h0zm-18.358 19.274l.002-.002zM70.853 7.856l-2.508 6.842h5.082l-2.574-6.842zm84.256 11.562a.51.51 0 0 0-.02.142v.066c0 .242.198.374.506.374h6.05l.33-.005c4.325-.118 7.423-2.567 8.03-6.375a8.95 8.95 0 0 0 .107-1.235l.002-.174c0-1.594-.46-3.04-1.31-4.244-.746-1.05-1.78-1.91-3.067-2.527-1.422-.68-3.15-1.062-5.126-1.062h-5.016c-.308 0-.506.132-.506.352v.088c0 .214.13.374.287.545l.06.063c.053.056.107.113.16.175.186.217.352.483.352.9v11.396c0 .406-.166.672-.352.9l-.053.06-.107.115c-.07.075-.137.146-.194.22s-.107.158-.132.246zm4.116-2.652c0 .45.085.826.243 1.122a1.42 1.42 0 0 0 .455.511c.25.17.565.26.93.26h1.122c2.684 0 4.686-1.804 4.686-5.038 0-.48-.033-.95-.095-1.408-.496-3.637-2.887-6.437-5.955-6.49l-.088-.001h-.418a1.33 1.33 0 0 0-.211.016c-.35.056-.617.266-.662.754a1.51 1.51 0 0 0-.007.154v10.12zm16.043 2.21c-.17.185-.316.354-.316.583v.066c0 .242.176.374.484.374h4.158c.286 0 .484-.132.484-.374v-.066c0-.24-.175-.412-.373-.607-.006-.006-.012-.012-.02-.02l-.092-.092c-.223-.23-.44-.506-.44-.954v-4.246l4.136-7.15c.284-.504.603-.783.858-.996.014-.01.027-.022.04-.033.26-.215.444-.37.444-.643v-.088c0-.22-.176-.352-.484-.352h-2.904c-.308 0-.484.132-.484.352v.088c0 .105.052.197.13.284.03.03.06.062.096.092a3.58 3.58 0 0 0 .222.174c.012.01.023.018.035.026.348.26.707.553.396 1.095l-3.388 5.94-3.388-5.94c-.268-.476.025-.77.34-1.03l.08-.065c.226-.184.44-.358.44-.577v-.088c0-.22-.198-.352-.506-.352h-4.994c-.308 0-.528.132-.528.352v.088c0 .286.22.465.52.707.174.14.36.294.547.495a3.19 3.19 0 0 1 .364.47l4.664 7.392v4.004c0 .413-.167.68-.352.9-.048.058-.098.112-.146.164-.008.008-.015.016-.022.024zm2.93 2.724l.001-.002zm4.264-5.65zM146.456 8.36zm.908-.103z" fill="#fdf8f5"/><defs ><path id="B" d="M11.373 20.22c3.2 0 5.94-1.628 5.94-4.488 0-6.336-8.888-3.3-8.888-8.03 0-1.254.814-2.266 2.486-2.266 3.212 0 2.398 3.916 4.774 3.916.946 0 1.408-.528 1.408-1.364.022-1.826-2.42-3.806-6.116-3.806-3.63 0-5.83 1.936-5.83 4.576.022 6.512 8.9 3.3 8.9 7.986 0 1.342-1.012 2.222-2.552 2.222-3.718 0-3.124-4.004-5.324-4.048-.902 0-1.32.572-1.32 1.342 0 1.76 2.332 3.96 6.512 3.96z"/></defs></svg>