<svg width="255" height="38" viewBox="0 0 255 38" fill="none" xmlns="http://www.w3.org/2000/svg">
<path d="M6.228 29.928V30H17.244V29.928C16.416 29.568 15.768 28.992 15.3 28.2C14.796 27.444 14.58 26.58 14.58 25.608V6.132H16.776C18.18 6.132 19.368 6.564 20.304 7.356C21.24 8.148 22.14 9.48 23.004 11.352H23.076L22.464 4.8H1.008L0.432 11.352H0.504C1.332 9.48 2.232 8.148 3.168 7.356C4.104 6.564 5.292 6.132 6.696 6.132H8.928V25.608C8.928 26.58 8.676 27.444 8.208 28.2C7.704 28.992 7.056 29.568 6.228 29.928ZM41.3035 28.308C41.0875 27.66 40.9795 26.76 40.9795 25.608V14.772C40.9795 13.908 40.6915 13.188 40.1875 12.612C39.6835 12.072 38.8555 11.784 37.7395 11.784C36.6955 11.784 35.6515 12 34.5715 12.396C33.4915 12.828 32.5195 13.296 31.6195 13.872V4.8H24.5995V4.872C25.4275 5.304 25.9675 5.844 26.1835 6.492C26.3995 7.14 26.5075 8.04 26.5075 9.192V25.608C26.5075 26.76 26.3995 27.66 26.1835 28.308C25.9675 28.956 25.4275 29.496 24.5995 29.928V30H33.2035V29.928C32.5195 29.568 32.0875 29.028 31.9075 28.344C31.6915 27.696 31.6195 26.76 31.6195 25.608V15.024C32.5915 14.34 33.4555 13.98 34.2475 13.98C34.7875 13.98 35.1835 14.196 35.4715 14.628C35.7235 15.06 35.8675 15.6 35.8675 16.248V25.608C35.8675 26.724 35.7595 27.624 35.5435 28.308C35.3275 29.028 34.8955 29.568 34.2475 29.928V30H42.8875V29.928C42.0235 29.496 41.5195 28.956 41.3035 28.308ZM57.2656 25.68C56.4016 26.112 55.6096 26.292 54.8536 26.292C53.4856 26.292 52.2976 25.788 51.2896 24.78C50.2456 23.772 49.6336 22.188 49.4896 20.028H60.0016C59.9296 18.3 59.6056 16.788 58.9576 15.528C58.3096 14.268 57.4456 13.296 56.4376 12.648C55.3936 12 54.2416 11.676 53.0176 11.676C51.6496 11.676 50.3536 12.036 49.0936 12.756C47.7976 13.476 46.7536 14.556 45.9256 15.96C45.0976 17.4 44.7016 19.092 44.7016 21.036C44.7016 23.052 45.0616 24.78 45.8536 26.184C46.6096 27.588 47.5816 28.632 48.8056 29.316C49.9936 30 51.2536 30.324 52.5496 30.324C54.2776 30.324 55.7896 29.712 57.0496 28.452C58.2736 27.192 59.1736 25.716 59.7136 24.024L59.6416 23.988C58.8856 24.708 58.0936 25.284 57.2656 25.68ZM51.0016 13.368C51.4336 12.936 51.8656 12.684 52.2976 12.684C53.0176 12.684 53.6656 13.26 54.2416 14.412C54.7816 15.564 55.1056 17.004 55.2496 18.804H49.4536C49.4536 17.508 49.5976 16.392 49.8856 15.456C50.1736 14.52 50.5696 13.836 51.0016 13.368ZM85.1563 5.592C83.9683 5.088 82.7083 4.8 81.4123 4.8H68.8483V4.872C69.6763 5.268 70.3243 5.844 70.8283 6.6C71.2963 7.392 71.5483 8.256 71.5483 9.192V25.608C71.5483 26.58 71.2963 27.444 70.8283 28.2C70.3243 28.992 69.6763 29.568 68.8483 29.928V30H79.8643V29.928C79.0363 29.568 78.3883 28.992 77.9203 28.2C77.4163 27.444 77.2003 26.58 77.2003 25.608V18.228C78.0643 18.372 79.0363 18.408 80.1163 18.408C83.0683 18.408 85.3003 17.796 86.8123 16.572C88.3243 15.348 89.0803 13.728 89.0803 11.64C89.0803 10.2 88.7203 8.976 88.0003 7.932C87.2803 6.924 86.3083 6.132 85.1563 5.592ZM81.9883 15.852C81.1963 16.644 80.1163 17.04 78.7483 17.04C78.2083 17.04 77.7043 17.004 77.2003 16.932V5.988H77.4523C78.5323 5.988 79.5043 6.276 80.3683 6.78C81.2323 7.284 81.9523 8.004 82.4563 8.904C82.9603 9.84 83.2123 10.848 83.2123 12C83.2123 13.764 82.7803 15.06 81.9883 15.852ZM105.345 28.308C105.129 27.66 105.021 26.76 105.021 25.608V15.96C105.021 14.736 104.625 13.728 103.869 12.936C103.113 12.144 101.925 11.748 100.269 11.748C98.685 11.748 96.741 11.964 94.437 12.36L91.449 16.356L91.521 16.428L92.493 15.78C93.825 14.916 94.905 14.232 95.769 13.764C96.633 13.296 97.353 13.044 98.001 13.044C98.649 13.044 99.117 13.26 99.477 13.692C99.837 14.124 100.017 14.664 100.017 15.312C100.017 15.96 99.837 16.5 99.513 16.968C99.189 17.472 98.721 17.904 98.109 18.336C97.497 18.768 96.597 19.344 95.409 20.028C94.221 20.712 93.321 21.288 92.673 21.792C92.025 22.296 91.521 22.836 91.197 23.484C90.837 24.132 90.693 24.888 90.693 25.752C90.693 26.472 90.837 27.156 91.197 27.804C91.521 28.488 92.025 29.064 92.709 29.496C93.393 29.964 94.257 30.18 95.265 30.18C96.633 30.18 98.217 29.46 99.981 27.984V30H106.929V29.928C106.065 29.496 105.561 28.956 105.345 28.308ZM99.405 27.12C99.045 27.588 98.541 27.804 97.965 27.804C97.317 27.804 96.741 27.516 96.237 26.904C95.733 26.292 95.517 25.536 95.517 24.6C95.517 23.664 95.625 22.944 95.877 22.368C96.129 21.792 96.525 21.252 97.065 20.748C97.569 20.244 98.541 19.416 99.981 18.264V25.176C99.981 26.04 99.765 26.688 99.405 27.12ZM115.27 30H116.098C117.646 30 119.158 29.676 120.598 28.992C122.038 28.308 123.226 27.264 124.162 25.824C125.098 24.384 125.566 22.62 125.566 20.46C125.566 17.652 124.738 15.564 123.118 14.124C121.462 12.72 119.302 12 116.602 12H108.25V12.072C109.078 12.504 109.618 13.044 109.834 13.692C110.05 14.34 110.158 15.24 110.158 16.392V32.088C110.158 33.24 110.05 34.14 109.834 34.788C109.618 35.436 109.078 35.976 108.25 36.408V36.48H117.178V36.408C116.314 35.976 115.81 35.436 115.594 34.788C115.378 34.14 115.27 33.24 115.27 32.088V30ZM115.27 13.044H115.342C116.206 13.044 117.034 13.512 117.79 14.376C118.546 15.276 119.158 16.5 119.626 18.012C120.058 19.56 120.31 21.252 120.31 23.088C120.31 24.708 120.13 25.932 119.77 26.796C119.41 27.66 118.978 28.236 118.402 28.524C117.826 28.812 117.106 28.956 116.278 28.956H115.27V13.044ZM140.495 25.68C139.631 26.112 138.839 26.292 138.083 26.292C136.715 26.292 135.527 25.788 134.519 24.78C133.475 23.772 132.863 22.188 132.719 20.028H143.231C143.159 18.3 142.835 16.788 142.187 15.528C141.539 14.268 140.675 13.296 139.667 12.648C138.623 12 137.471 11.676 136.247 11.676C134.879 11.676 133.583 12.036 132.323 12.756C131.027 13.476 129.983 14.556 129.155 15.96C128.327 17.4 127.931 19.092 127.931 21.036C127.931 23.052 128.291 24.78 129.083 26.184C129.839 27.588 130.811 28.632 132.035 29.316C133.223 30 134.483 30.324 135.779 30.324C137.507 30.324 139.019 29.712 140.279 28.452C141.503 27.192 142.403 25.716 142.943 24.024L142.871 23.988C142.115 24.708 141.323 25.284 140.495 25.68ZM134.231 13.368C134.663 12.936 135.095 12.684 135.527 12.684C136.247 12.684 136.895 13.26 137.471 14.412C138.011 15.564 138.335 17.004 138.479 18.804H132.683C132.683 17.508 132.827 16.392 133.115 15.456C133.403 14.52 133.799 13.836 134.231 13.368ZM150.136 30.18C151.072 30.324 152.008 30.396 152.98 30.396C154.78 30.396 156.328 29.928 157.624 28.992C158.92 28.056 159.604 26.616 159.604 24.672C159.604 23.052 159.1 21.792 158.092 20.856C157.084 19.92 155.608 19.128 153.592 18.444C152.296 18.012 151.36 17.688 150.784 17.436C150.208 17.184 149.74 16.896 149.38 16.536C149.02 16.212 148.84 15.78 148.84 15.276C148.84 14.592 149.128 14.016 149.704 13.584C150.28 13.152 150.964 12.936 151.792 12.936C153.088 12.936 154.24 13.404 155.32 14.34C156.4 15.276 157.48 16.716 158.632 18.624H158.704L158.416 12.72C155.752 12.036 153.736 11.676 152.296 11.676C150.424 11.676 148.84 12.18 147.544 13.116C146.212 14.052 145.564 15.456 145.564 17.292C145.564 18.66 145.924 19.74 146.716 20.604C147.472 21.468 148.876 22.224 150.964 22.944C152.332 23.448 153.376 23.808 154.06 24.096C154.744 24.384 155.284 24.744 155.716 25.14C156.148 25.536 156.364 26.004 156.364 26.544C156.364 27.408 156.076 28.02 155.5 28.452C154.924 28.884 154.204 29.1 153.34 29.1C151.54 29.1 150.064 28.452 148.912 27.084C147.724 25.716 146.644 24.06 145.672 22.116H145.636L146.068 29.388C146.284 29.424 146.536 29.496 146.86 29.568C148.084 29.856 149.2 30.036 150.136 30.18ZM170.533 30.036C171.361 30.036 172.009 30.036 172.513 30V29.928C171.253 29.352 170.317 28.776 169.741 28.236C169.165 27.696 168.769 27.12 168.589 26.472C168.373 25.86 168.301 25.032 168.301 23.988V13.224H171.469V12H168.301V5.952H168.229C167.365 7.644 166.285 9.048 164.989 10.164C163.693 11.316 162.397 11.964 161.137 12.108V13.224H163.189V23.376C163.189 25.104 163.297 26.4 163.513 27.228C163.729 28.092 164.377 28.776 165.421 29.28C166.465 29.784 168.157 30.036 170.533 30.036ZM173.216 29.928V30H182.144V29.928C181.28 29.496 180.776 28.956 180.56 28.308C180.344 27.66 180.236 26.76 180.236 25.608V12H173.216V12.072C174.044 12.504 174.584 13.044 174.8 13.692C175.016 14.34 175.124 15.24 175.124 16.392V25.608C175.124 26.76 175.016 27.66 174.8 28.308C174.584 28.956 174.044 29.496 173.216 29.928ZM175.484 9.264C176.06 9.804 176.744 10.056 177.536 10.056C178.328 10.056 178.976 9.804 179.552 9.264C180.128 8.724 180.416 8.076 180.416 7.284C180.416 6.564 180.128 5.916 179.552 5.376C178.976 4.836 178.328 4.548 177.536 4.548C176.744 4.548 176.06 4.836 175.484 5.376C174.908 5.916 174.656 6.564 174.656 7.284C174.656 8.076 174.908 8.724 175.484 9.264ZM196.601 25.68C195.737 26.112 194.945 26.292 194.189 26.292C192.821 26.292 191.633 25.788 190.625 24.78C189.581 23.772 188.969 22.188 188.825 20.028H199.337C199.265 18.3 198.941 16.788 198.293 15.528C197.645 14.268 196.781 13.296 195.773 12.648C194.729 12 193.577 11.676 192.353 11.676C190.985 11.676 189.689 12.036 188.429 12.756C187.133 13.476 186.089 14.556 185.261 15.96C184.433 17.4 184.037 19.092 184.037 21.036C184.037 23.052 184.397 24.78 185.189 26.184C185.945 27.588 186.917 28.632 188.141 29.316C189.329 30 190.589 30.324 191.885 30.324C193.613 30.324 195.125 29.712 196.385 28.452C197.609 27.192 198.509 25.716 199.049 24.024L198.977 23.988C198.221 24.708 197.429 25.284 196.601 25.68ZM190.337 13.368C190.769 12.936 191.201 12.684 191.633 12.684C192.353 12.684 193.001 13.26 193.577 14.412C194.117 15.564 194.441 17.004 194.585 18.804H188.789C188.789 17.508 188.933 16.392 189.221 15.456C189.509 14.52 189.905 13.836 190.337 13.368ZM201.059 29.928V30H209.987V29.928C209.123 29.496 208.619 28.956 208.403 28.308C208.187 27.66 208.079 26.76 208.079 25.608V4.8H201.059V4.872C201.887 5.304 202.427 5.844 202.643 6.492C202.859 7.14 202.967 8.04 202.967 9.192V25.608C202.967 26.76 202.859 27.66 202.643 28.308C202.427 28.956 201.887 29.496 201.059 29.928ZM211.411 29.928V30H220.339V29.928C219.475 29.496 218.971 28.956 218.755 28.308C218.539 27.66 218.431 26.76 218.431 25.608V4.8H211.411V4.872C212.239 5.304 212.779 5.844 212.995 6.492C213.211 7.14 213.319 8.04 213.319 9.192V25.608C213.319 26.76 213.211 27.66 212.995 28.308C212.779 28.956 212.239 29.496 211.411 29.928ZM221.764 29.928V30H230.692V29.928C229.828 29.496 229.324 28.956 229.108 28.308C228.892 27.66 228.784 26.76 228.784 25.608V12H221.764V12.072C222.592 12.504 223.132 13.044 223.348 13.692C223.564 14.34 223.672 15.24 223.672 16.392V25.608C223.672 26.76 223.564 27.66 223.348 28.308C223.132 28.956 222.592 29.496 221.764 29.928ZM224.032 9.264C224.608 9.804 225.292 10.056 226.084 10.056C226.876 10.056 227.524 9.804 228.1 9.264C228.676 8.724 228.964 8.076 228.964 7.284C228.964 6.564 228.676 5.916 228.1 5.376C227.524 4.836 226.876 4.548 226.084 4.548C225.292 4.548 224.608 4.836 224.032 5.376C223.456 5.916 223.204 6.564 223.204 7.284C223.204 8.076 223.456 8.724 224.032 9.264ZM247.993 12.072V12H233.989L232.981 18.516H233.053C233.845 16.824 234.709 15.528 235.573 14.592C236.437 13.692 237.481 13.224 238.741 13.224H241.945L231.757 29.928V30H247.273L247.921 22.548H247.849C247.201 24.132 246.661 25.356 246.229 26.148C245.797 26.94 245.221 27.588 244.573 28.02C243.925 28.452 243.061 28.668 242.053 28.668H237.877L247.993 12.072Z" fill="#4A5759"/>
<path d="M61.2 27.3C61.2 25.6432 62.5432 24.3 64.2 24.3C65.8569 24.3 67.2 25.6432 67.2 27.3C67.2 28.9569 65.8569 30.3 64.2 30.3C62.5432 30.3 61.2 28.9569 61.2 27.3Z" fill="#50959E"/>
</svg>
