<svg width="28" height="40" viewBox="0 0 28 40" fill="none" xmlns="http://www.w3.org/2000/svg">
<path fill-rule="evenodd" clip-rule="evenodd" d="M2 36H26C27.1 36 28 36.9 28 38C28 39.1 27.1 40 26 40H2C0.9 40 0 39.1 0 38C0 36.9 0.9 36 2 36ZM14 10C11.8 10 10 11.8 10 14C10 16.2 11.8 18 14 18C15.0609 18 16.0783 17.5786 16.8284 16.8284C17.5786 16.0783 18 15.0609 18 14C18 12.9391 17.5786 11.9217 16.8284 11.1716C16.0783 10.4214 15.0609 10 14 10ZM14 0C20.54 0 28 4.92 28 14.3C28 20.26 23.74 26.54 15.22 33.08C14.5 33.64 13.5 33.64 12.78 33.08C4.26 26.52 0 20.26 0 14.3C0 4.92 7.46 0 14 0Z" fill="#F79393"/>
</svg>
