<svg width="69" height="25" viewBox="0 0 69 25" fill="none" xmlns="http://www.w3.org/2000/svg">
<path d="M12.6126 20.2202C16.9026 20.2202 20.2466 16.9202 20.2466 12.2782C20.2466 7.74616 16.9686 4.16016 12.5466 4.16016C7.94859 4.16016 4.82458 7.50416 4.82458 12.2342C4.82458 16.7222 8.19059 20.2202 12.6126 20.2202ZM13.5366 18.7902C10.4566 18.7902 8.05858 14.1262 8.05858 9.61616C8.05858 7.17416 9.33459 5.59016 11.3586 5.59016C14.4606 5.59016 16.9026 10.4962 16.9026 14.8082C16.9026 17.0962 15.5826 18.7902 13.5366 18.7902Z" fill="#50959E"/>
<path d="M22.3759 20.0002H26.5119C26.8199 20.0002 27.0179 19.8462 27.0179 19.6262V19.5382C27.0179 19.0322 26.0719 18.8122 26.0719 17.8882V14.9182H28.0299C31.9239 14.9182 34.3879 12.8502 34.3879 9.52816C34.3879 5.83216 31.2859 4.38016 27.3919 4.38016H22.3759C22.0679 4.38016 21.8699 4.51216 21.8699 4.73216V4.82016C21.8699 5.37016 22.7279 5.59016 22.7279 6.49216V17.8882C22.7279 18.8122 21.8699 19.0322 21.8699 19.5382V19.6262C21.8699 19.8462 22.0679 20.0002 22.3759 20.0002ZM27.0179 13.6202C26.3359 13.6202 26.0719 13.2462 26.0719 12.6302V6.64616C26.0719 6.03016 26.3359 5.70016 26.7979 5.70016H27.3919C29.1519 5.70016 30.9339 7.32816 30.9339 10.3202C30.9339 12.1682 29.8999 13.6202 28.0299 13.6202H27.0179Z" fill="#50959E"/>
<path d="M36.2334 20.0002H46.6174C47.0574 20.0002 47.2334 19.7802 47.3214 19.3622L47.8054 16.7002C47.8494 16.4142 47.7174 16.1282 47.4094 16.1282H47.2334C46.0894 16.1282 45.6934 18.6802 44.2634 18.6802H41.0294C40.1714 18.6802 39.8634 17.9542 39.8634 17.3162L39.8854 12.7182H42.7234C43.8014 12.7182 43.8894 14.2362 44.4614 14.2362H44.6374C44.8574 14.2362 45.0114 14.0382 45.0114 13.7742V10.2322C45.0114 9.94616 44.8574 9.77016 44.6374 9.77016H44.4614C43.8894 9.77016 43.8014 11.3762 42.7234 11.3762H39.8854V6.64616C39.8854 5.94216 40.2814 5.70016 40.7654 5.70016H43.5814C44.9894 5.70016 45.6274 8.14216 46.6614 8.14216H46.7934C47.1014 8.14216 47.2994 7.94416 47.2334 7.57016L46.7054 4.99616C46.6394 4.55616 46.4634 4.38016 46.0234 4.38016H36.2114C35.9254 4.38016 35.7274 4.51216 35.7274 4.73216V4.82016C35.7274 5.34816 36.5854 5.54616 36.5854 6.51416V17.8662C36.5854 18.8342 35.7274 19.0102 35.7274 19.5602V19.6262C35.7274 19.8682 35.9254 20.0002 36.2334 20.0002Z" fill="#50959E"/>
<path d="M63.4965 4.38016H60.9225C60.6145 4.38016 60.4165 4.53416 60.4165 4.75416V4.82016C60.4165 5.37016 61.3625 5.56816 61.3625 6.49216V15.8642L53.5305 4.99616C53.2445 4.57816 52.9805 4.38016 52.4965 4.38016H49.7465C49.4385 4.38016 49.2405 4.53416 49.2405 4.75416V4.84216C49.2405 5.39216 50.1205 5.56816 50.1205 6.51416V17.8442C50.1205 18.8122 49.2405 19.0102 49.2405 19.5602V19.6262C49.2405 19.8682 49.4385 20.0002 49.7465 20.0002H52.2985C52.6065 20.0002 52.8045 19.8682 52.8045 19.6262V19.5602C52.8045 19.0102 51.8145 18.8122 51.8145 17.8442V8.07616L60.1965 19.3182C60.5265 19.7802 60.7685 20.0002 61.1645 20.0002H62.1985C62.7265 20.0002 63.0565 19.6702 63.0565 19.1202V6.49216C63.0565 5.56816 64.0025 5.37016 64.0025 4.82016V4.75416C64.0025 4.53416 63.8045 4.38016 63.4965 4.38016Z" fill="#50959E"/>
<path fill-rule="evenodd" clip-rule="evenodd" d="M26.0719 12.6302C26.0719 13.1498 26.2598 13.4972 26.7279 13.5932C26.8148 13.611 26.9112 13.6202 27.0179 13.6202H28.0299C29.8999 13.6202 30.9339 12.1682 30.9339 10.3202C30.9339 10.0445 30.9188 9.78044 30.89 9.52816C30.7827 8.59006 30.4859 7.81488 30.0719 7.21324C30.0539 7.18694 30.0355 7.16098 30.017 7.13534C29.8872 6.95589 29.7468 6.79272 29.5978 6.64616C28.9645 6.02327 28.176 5.70016 27.3919 5.70016H26.7979C26.7536 5.70016 26.711 5.70321 26.6703 5.70926C26.3244 5.76074 26.1149 6.0297 26.0779 6.49216C26.0739 6.54131 26.0719 6.59266 26.0719 6.64616V12.6302ZM27.3919 4.38016C29.0447 4.38016 30.5547 4.64172 31.7455 5.22538C32.41 5.55113 32.9752 5.97722 33.4101 6.51416C34.0321 7.28191 34.3879 8.27632 34.3879 9.52816C34.3879 9.80075 34.3714 10.0649 34.3387 10.3202C34.1677 11.6592 33.5557 12.7536 32.5854 13.5382C31.4865 14.4267 29.9281 14.9182 28.0299 14.9182H26.0719V17.8882C26.0719 18.3287 26.2869 18.6092 26.5119 18.8369C26.5394 18.8647 26.567 18.8917 26.5944 18.9182C26.604 18.9274 26.6136 18.9366 26.6231 18.9457C26.6321 18.9544 26.6412 18.963 26.6502 18.9716C26.8468 19.1595 27.0179 19.323 27.0179 19.5382V19.6262C27.0179 19.8462 26.8199 20.0002 26.5119 20.0002H22.3759C22.0782 20.0002 21.8832 19.8562 21.8706 19.6479C21.8702 19.6407 21.8699 19.6335 21.8699 19.6262V19.5382C21.8699 19.3292 22.0163 19.169 22.1881 18.9878C22.1932 18.9824 22.1984 18.977 22.2035 18.9716C22.2601 18.912 22.3189 18.85 22.3759 18.7831C22.5619 18.5648 22.7279 18.2946 22.7279 17.8882V6.49216C22.7279 6.36045 22.7096 6.24327 22.6784 6.13749C22.6155 5.92462 22.5002 5.75788 22.3759 5.61159C22.3683 5.60257 22.3606 5.59362 22.3529 5.58475C22.3088 5.53407 22.2639 5.48573 22.2202 5.43862C22.2146 5.43262 22.209 5.42663 22.2035 5.42067C22.0392 5.24345 21.8946 5.08166 21.8728 4.87441C21.8709 4.85667 21.8699 4.8386 21.8699 4.82016V4.73216C21.8699 4.51216 22.0679 4.38016 22.3759 4.38016H27.3919ZM18.8492 1.99586C19.1071 1.68239 19.4079 1.40673 19.7413 1.17749C20.7112 0.510674 21.7205 0.380156 22.3759 0.380156H27.3919C29.2694 0.380156 31.3332 0.650009 33.197 1.4883C33.309 1.39002 33.4259 1.29765 33.5471 1.21162C34.5029 0.533348 35.5136 0.380156 36.2114 0.380156H46.0234C46.4543 0.380156 47.1579 0.430684 47.9141 0.746257C48.5725 0.467785 49.2195 0.380156 49.7465 0.380156H52.4965C53.3297 0.380156 54.2902 0.564001 55.2129 1.14264C56.0189 1.64807 56.5194 2.28736 56.7995 2.69064L56.8802 2.80266C57.1857 2.19902 57.6263 1.68047 58.154 1.28466C59.1055 0.57104 60.1446 0.380156 60.9225 0.380156H63.4965C64.2744 0.380156 65.3135 0.57104 66.265 1.28466C67.3021 2.06245 68.0025 3.31415 68.0025 4.75416V4.82016C68.0025 6.1257 67.4476 7.06684 67.0565 7.58184V19.1202C67.0565 20.1961 66.7193 21.51 65.6798 22.5688C64.6329 23.635 63.3077 24.0002 62.1985 24.0002H61.1645C60.0969 24.0002 59.1005 23.6621 58.2651 23.0394C57.6153 22.555 57.1838 21.9804 56.9668 21.6783L56.5449 21.1125C56.2569 21.9097 55.7342 22.6254 55.0016 23.152C54.0001 23.8718 52.9481 24.0002 52.2985 24.0002H49.7465C49.3459 24.0002 48.7923 23.9513 48.1919 23.7451C47.6201 23.9386 47.0702 24.0002 46.6174 24.0002H36.2334C35.5838 24.0002 34.5318 23.8718 33.5303 23.152C32.362 22.3122 31.7274 20.9914 31.7274 19.6262V19.5602C31.7274 19.1134 31.792 18.7093 31.892 18.3507C31.5729 18.452 31.2486 18.5388 30.9202 18.6119C30.9812 18.8956 31.0179 19.2048 31.0179 19.5382V19.6262C31.0179 21.0662 30.3175 22.3179 29.2804 23.0957C28.3289 23.8093 27.2899 24.0002 26.5119 24.0002H22.3759C21.598 24.0002 20.5589 23.8093 19.6074 23.0957C19.3456 22.8993 19.1052 22.6727 18.8922 22.4205C17.0983 23.5665 14.9527 24.2202 12.6126 24.2202C5.87231 24.2202 0.824585 18.8206 0.824585 12.2342C0.824585 8.98049 1.91049 5.93268 4.0612 3.66856C6.2288 1.38663 9.23617 0.160156 12.5466 0.160156C14.9322 0.160156 17.0721 0.838371 18.8492 1.99586ZM18.3553 6.85962C16.9708 5.19674 14.9241 4.16016 12.5466 4.16016C12.1386 4.16016 11.7422 4.18648 11.3586 4.23777C8.27012 4.65069 6.00855 6.68141 5.17538 9.61616C4.94572 10.4251 4.82458 11.3028 4.82458 12.2342C4.82458 16.7222 8.19059 20.2202 12.6126 20.2202C12.9259 20.2202 13.2343 20.2026 13.5366 20.1681C15.4014 19.9556 17.0387 19.1022 18.229 17.7871C18.4054 17.5922 18.5719 17.3873 18.7279 17.1727C18.7928 17.0835 18.8558 16.9927 18.917 16.9002C19.0694 16.67 19.2102 16.4297 19.3385 16.1801L19.3391 16.179C19.5603 15.7487 19.7448 15.2906 19.8883 14.8082C20.1214 14.0245 20.2466 13.1765 20.2466 12.2782C20.2466 10.7034 19.8508 9.2428 19.1487 8.00722C19.0188 7.77851 18.8783 7.55751 18.7279 7.34492C18.6098 7.17784 18.4855 7.01596 18.3553 6.85962ZM36.0907 18.9402C36.0827 18.9487 36.0746 18.9572 36.0666 18.9657C35.8859 19.1565 35.7274 19.3238 35.7274 19.5602V19.6262C35.7274 19.8682 35.9254 20.0002 36.2334 20.0002H46.6174C46.9446 20.0002 47.1258 19.8785 47.2334 19.6442C47.2361 19.6383 47.2388 19.6323 47.2414 19.6262C47.2506 19.605 47.2592 19.583 47.2673 19.5602C47.2885 19.5001 47.3062 19.4341 47.3214 19.3622L47.8054 16.7002C47.8494 16.4142 47.7174 16.1282 47.4094 16.1282H47.2334C47.0024 16.1282 46.802 16.2321 46.6174 16.3981C46.5919 16.4211 46.5666 16.4452 46.5417 16.4704C46.5317 16.4805 46.5218 16.4907 46.5119 16.5012C46.491 16.5231 46.4702 16.5459 46.4497 16.5693C46.3366 16.6979 46.2282 16.8466 46.1205 17.0045C46.0556 17.0997 45.9909 17.1982 45.9257 17.2976C45.8262 17.4492 45.7253 17.6028 45.6202 17.7498C45.5046 17.9114 45.3837 18.065 45.2536 18.1991C45.0356 18.4238 44.7917 18.5938 44.503 18.6552C44.4264 18.6715 44.3466 18.6802 44.2634 18.6802H41.0294C40.8399 18.6802 40.6772 18.6447 40.5388 18.5827C40.2297 18.4442 40.0413 18.1728 39.9446 17.8662C39.8886 17.6883 39.8634 17.4986 39.8634 17.3162L39.8854 12.7182H42.7234C42.7852 12.7182 42.8438 12.7232 42.8995 12.7326C43.3549 12.8097 43.6104 13.1836 43.8189 13.5391C43.84 13.5752 43.8607 13.611 43.881 13.6463C43.8826 13.6491 43.8841 13.6518 43.8857 13.6546C43.8937 13.6684 43.9016 13.6821 43.9095 13.6958C43.9248 13.7223 43.94 13.7485 43.9551 13.7742C44.1072 14.0324 44.2518 14.2362 44.4614 14.2362H44.6374C44.8574 14.2362 45.0114 14.0382 45.0114 13.7742V10.2322C45.0114 9.94616 44.8574 9.77016 44.6374 9.77016H44.4614C44.2587 9.77016 44.1168 9.97178 43.9701 10.2322C43.9567 10.2559 43.9432 10.2802 43.9297 10.3049C43.9152 10.3313 43.9005 10.3582 43.8857 10.3855C43.7805 10.579 43.6665 10.7886 43.5222 10.9644C43.3288 11.2 43.0804 11.3762 42.7234 11.3762H39.8854V6.64616C39.8854 6.60021 39.8871 6.55623 39.8903 6.51416C39.9289 6.02084 40.1876 5.78968 40.5284 5.72208C40.6039 5.70711 40.6833 5.70016 40.7654 5.70016H43.5814C43.6767 5.70016 43.7685 5.71135 43.8571 5.73223C43.9199 5.747 43.981 5.76662 44.0407 5.79055C44.1893 5.85013 44.3289 5.93645 44.4614 6.04119C44.5214 6.08866 44.58 6.13992 44.6374 6.19419C44.9019 6.44459 45.1395 6.75913 45.3683 7.06196C45.5729 7.33293 45.7705 7.59452 45.974 7.79239C45.9844 7.80246 45.9947 7.81237 46.0051 7.8221C46.0112 7.82779 46.0173 7.83343 46.0234 7.839C46.0556 7.86847 46.0879 7.89626 46.1205 7.92215C46.2862 8.05373 46.4576 8.13624 46.6413 8.14185C46.648 8.14205 46.6547 8.14216 46.6614 8.14216H46.7934C47.1014 8.14216 47.2994 7.94416 47.2334 7.57016L46.7054 4.99616C46.697 4.94069 46.687 4.88941 46.6749 4.84216C46.6706 4.82563 46.6661 4.8096 46.6614 4.79405C46.6572 4.78038 46.6528 4.76708 46.6482 4.75416C46.5543 4.4903 46.3714 4.38016 46.0234 4.38016H36.2114C35.9254 4.38016 35.7274 4.51216 35.7274 4.73216V4.82016C35.7274 5.03368 35.8677 5.19323 36.0348 5.37157C36.0433 5.38057 36.0518 5.38962 36.0603 5.39872C36.1098 5.45138 36.1611 5.50595 36.2114 5.56424C36.406 5.79002 36.5854 6.07163 36.5854 6.51416V17.8662C36.5854 18.292 36.4193 18.5645 36.2334 18.7831C36.1863 18.8384 36.138 18.8902 36.0907 18.9402ZM49.4829 4.4264C49.3836 4.46638 49.3108 4.53044 49.2722 4.61114C49.2515 4.65441 49.2405 4.70246 49.2405 4.75416V4.84216C49.2405 4.89611 49.249 4.94645 49.2643 4.99428C49.3164 5.15741 49.4476 5.29125 49.5921 5.43862C49.6429 5.4904 49.6953 5.54385 49.7465 5.60083C49.9425 5.81888 50.1205 6.08861 50.1205 6.51416V17.8442C50.1205 18.2796 49.9425 18.5592 49.7465 18.7852C49.6941 18.8456 49.6404 18.9022 49.5885 18.957C49.4502 19.1028 49.3246 19.2352 49.2697 19.3912C49.2535 19.4372 49.2435 19.4852 49.2411 19.5363C49.2407 19.5442 49.2405 19.5521 49.2405 19.5602V19.6262C49.2405 19.6568 49.2437 19.6857 49.2499 19.7128C49.2547 19.7337 49.2612 19.7535 49.2695 19.7723C49.335 19.9208 49.5077 20.0002 49.7465 20.0002H52.2985C52.6065 20.0002 52.8045 19.8682 52.8045 19.6262V19.5602C52.8045 19.3238 52.6216 19.1524 52.4131 18.957C52.3754 18.9217 52.3369 18.8856 52.2985 18.8482C52.0547 18.611 51.8145 18.321 51.8145 17.8442V8.07616L60.1965 19.3182C60.3428 19.5229 60.4718 19.6802 60.6045 19.7918C60.7713 19.932 60.944 20.0002 61.1645 20.0002H62.1985C62.5818 20.0002 62.8608 19.8263 62.9849 19.5205C63.0317 19.4051 63.0565 19.2709 63.0565 19.1202V6.49216C63.0565 6.05166 63.2715 5.77616 63.4965 5.54886C63.5379 5.50702 63.5797 5.46681 63.6205 5.42751C63.8231 5.23246 64.0025 5.05969 64.0025 4.82016V4.75416C64.0025 4.53416 63.8045 4.38016 63.4965 4.38016H60.9225C60.6145 4.38016 60.4165 4.53416 60.4165 4.75416V4.82016C60.4165 5.05969 60.596 5.23246 60.7985 5.42751C60.8393 5.46681 60.8811 5.50702 60.9225 5.54886C61.1475 5.77616 61.3625 6.05166 61.3625 6.49216V15.8642L53.5305 4.99616C53.4327 4.85314 53.3374 4.73589 53.235 4.6435C53.0381 4.46585 52.8149 4.38016 52.4965 4.38016H49.7465C49.7319 4.38016 49.7175 4.3805 49.7033 4.38119C49.6203 4.38523 49.5462 4.40093 49.4829 4.4264ZM52.4509 21.7517C52.4443 21.759 52.4431 21.7601 52.4488 21.754L52.4509 21.7517ZM66.3414 8.36082C66.3435 8.35866 66.346 8.3563 66.3489 8.35345C66.334 8.369 66.3302 8.37184 66.3414 8.36082ZM12.6126 18.6483C12.9122 18.7411 13.2208 18.7902 13.5366 18.7902C15.5826 18.7902 16.9026 17.0962 16.9026 14.8082C16.9026 13.9738 16.8112 13.1172 16.6412 12.2782C16.0486 9.35267 14.5013 6.64126 12.5466 5.83321C12.1648 5.67537 11.7674 5.59016 11.3586 5.59016C9.33459 5.59016 8.05859 7.17416 8.05859 9.61616C8.05859 10.4949 8.14961 11.3794 8.31898 12.2342C8.92977 15.3167 10.5594 18.0119 12.6126 18.6483Z" fill="#FDF8F5"/>
</svg>
