<svg width="242" height="64" viewBox="0 0 242 64" fill="none" xmlns="http://www.w3.org/2000/svg">
<rect width="242" height="64" fill="#F79393"/>
<path d="M55.492 41.8396C54.26 42.9596 52.608 43.6316 50.928 43.6316C48.856 43.6316 47.008 42.1756 46.112 39.2356H51.908C52.244 39.2356 52.468 39.0676 52.468 38.8156V38.1716C52.468 37.9196 52.244 37.7516 51.908 37.7516H45.776C45.692 37.2756 45.636 36.7996 45.608 36.2676H52.804C53.14 36.2676 53.392 36.0996 53.392 35.8476V35.1756C53.392 34.9516 53.14 34.7556 52.804 34.7556H45.58C45.664 31.1156 47.288 28.9036 49.304 28.9036C52.776 28.9036 52.216 32.7396 54.988 32.7396C56.164 32.7396 56.78 31.8716 56.78 30.9756C56.78 28.7916 53.728 27.1956 50.116 27.1956C46.112 27.1956 42.528 29.9676 41.66 34.7556H39.56C39.224 34.7556 39 34.9516 39 35.1756V35.8476C39 36.0996 39.224 36.2676 39.56 36.2676H41.464C41.436 36.5476 41.436 36.8556 41.436 37.1636V37.7516H39.56C39.224 37.7516 39 37.9196 39 38.1716V38.8156C39 39.0676 39.224 39.2356 39.56 39.2356H41.604C42.332 43.7436 45.412 47.4396 50.2 47.4396C54.064 47.4396 56.472 44.7236 56.836 42.5396C56.92 41.6996 56.024 41.3636 55.492 41.8396Z" fill="#50959E"/>
<path d="M70.3315 29.2676C67.5315 29.2676 65.0515 30.1876 63.3715 31.5076L64.6515 23.5876H78.1315C78.6915 23.5876 78.9715 23.2276 78.9715 22.7076V19.6676C78.9715 19.0676 78.6915 18.7876 78.1315 18.7876H63.0515C62.5315 18.7876 62.1715 19.0276 62.0915 19.5476L60.5715 32.3076C60.3715 33.7076 62.4515 34.5876 63.6915 33.5876C65.2915 32.3876 66.6515 31.7076 68.4915 31.7076C71.8915 31.7076 73.8515 34.2276 73.8515 38.8676C73.8515 43.0676 71.7315 45.1076 69.0515 45.1076C64.6515 45.1076 65.2515 39.1076 61.9715 39.1076C60.5715 39.1076 59.0915 39.8276 59.0915 41.9076C59.0915 44.9476 62.4915 47.5876 69.0115 47.5876C75.6115 47.5876 79.9315 43.4676 79.9315 37.9076C79.9315 32.3876 75.2515 29.2676 70.3315 29.2676Z" fill="#50959E"/>
<path d="M102.375 44.1876L95.6146 34.7476L98.8546 31.7476C100.335 30.4276 102.295 29.7876 102.295 28.7876V28.6276C102.295 28.2276 101.975 27.9876 101.495 27.9876H95.7746C95.2946 27.9876 94.9746 28.2276 94.9746 28.6676V28.8276C94.9746 29.7876 97.0946 30.7876 95.9346 31.7876L89.6146 37.2676V17.9076C89.6146 17.2276 88.9746 16.7076 88.0146 17.1876L82.6946 19.6676C82.1746 19.8676 81.8946 20.0676 81.8946 20.4676V20.6276C81.8946 21.4676 83.6946 21.8676 83.6946 23.6676V43.3476C83.6946 45.0276 82.1746 45.3476 82.1746 46.3476V46.5076C82.1746 46.9076 82.4946 47.1876 83.0546 47.1876H90.4146C90.9746 47.1876 91.3346 46.9076 91.3346 46.5076V46.3476C91.3346 45.3476 89.6146 45.0276 89.6146 43.3476V40.3076L91.9746 38.1076L96.2946 44.1876C96.9746 45.1476 95.4946 45.3876 95.4946 46.3876V46.4676C95.4946 46.9076 95.8146 47.1876 96.2946 47.1876H103.735C104.215 47.1876 104.535 46.9476 104.535 46.5076V46.3876C104.535 45.4276 103.055 45.1076 102.375 44.1876Z" fill="#50959E"/>
<path d="M114.247 35.5076H127.047C127.567 35.5076 127.847 35.1876 127.847 34.6276V33.3476C127.847 32.8276 127.567 32.5076 127.047 32.5076H114.247C113.727 32.5076 113.447 32.8276 113.447 33.3476V34.6276C113.447 35.1876 113.727 35.5076 114.247 35.5076Z" fill="#50959E"/>
<path d="M140.849 47.1876H149.329C149.849 47.1876 150.169 46.9476 150.169 46.5076V46.3876C150.169 45.3876 147.889 44.8276 147.889 43.0276V23.3876C147.889 21.2276 148.809 21.1076 148.809 19.9876C148.809 19.0276 147.769 18.2676 146.049 18.9876L140.449 21.4276C139.729 21.7476 139.369 22.0276 139.369 22.5076V22.7076C139.369 24.1076 142.129 23.1476 142.129 25.6276V43.0276C142.129 44.8276 139.969 45.3876 139.969 46.3876V46.5076C139.969 46.9476 140.289 47.1876 140.849 47.1876Z" fill="#50959E"/>
<path d="M165.21 47.5876C171.97 47.5876 177.49 42.1076 177.49 33.1076C177.49 24.3076 172.09 18.3876 165.09 18.3876C157.45 18.3876 152.77 24.1076 152.77 32.9876C152.77 42.0276 158.25 47.5876 165.21 47.5876ZM166.13 45.2676C161.85 45.2676 159.09 38.2676 159.09 30.7876C159.09 24.2676 161.17 20.8276 164.21 20.8276C168.45 20.8276 171.17 28.5876 171.17 35.8276C171.17 41.9876 169.05 45.2676 166.13 45.2676Z" fill="#50959E"/>
<path d="M200.148 44.1876L193.388 34.7476L196.628 31.7476C198.108 30.4276 200.068 29.7876 200.068 28.7876V28.6276C200.068 28.2276 199.748 27.9876 199.268 27.9876H193.548C193.068 27.9876 192.748 28.2276 192.748 28.6676V28.8276C192.748 29.7876 194.868 30.7876 193.708 31.7876L187.388 37.2676V17.9076C187.388 17.2276 186.748 16.7076 185.788 17.1876L180.468 19.6676C179.948 19.8676 179.668 20.0676 179.668 20.4676V20.6276C179.668 21.4676 181.468 21.8676 181.468 23.6676V43.3476C181.468 45.0276 179.948 45.3476 179.948 46.3476V46.5076C179.948 46.9076 180.268 47.1876 180.828 47.1876H188.188C188.748 47.1876 189.108 46.9076 189.108 46.5076V46.3476C189.108 45.3476 187.388 45.0276 187.388 43.3476V40.3076L189.748 38.1076L194.068 44.1876C194.748 45.1476 193.268 45.3876 193.268 46.3876V46.4676C193.268 46.9076 193.588 47.1876 194.068 47.1876H201.508C201.988 47.1876 202.308 46.9476 202.308 46.5076V46.3876C202.308 45.4276 200.828 45.1076 200.148 44.1876Z" fill="#50959E"/>
<path fill-rule="evenodd" clip-rule="evenodd" d="M51.908 39.2356C52.244 39.2356 52.468 39.0676 52.468 38.8156V38.1716C52.468 37.9196 52.244 37.7516 51.908 37.7516H45.776C45.692 37.2756 45.636 36.7996 45.608 36.2676H52.804C53.14 36.2676 53.392 36.0996 53.392 35.8476V35.1756C53.392 34.9516 53.14 34.7556 52.804 34.7556H45.58C45.5847 34.5536 45.5941 34.3561 45.608 34.1631C45.6508 33.5712 45.7362 33.0219 45.8588 32.5191C45.8796 32.4339 45.9014 32.3501 45.9242 32.2676C46.0824 31.6968 46.2902 31.1907 46.5385 30.7556C47.2187 29.5635 48.2029 28.9036 49.304 28.9036C49.603 28.9036 49.8721 28.932 50.116 28.984C51.2557 29.227 51.8452 29.9842 52.3643 30.7556C52.4153 30.8315 52.4657 30.9075 52.5159 30.9832C52.6117 31.1277 52.7067 31.271 52.804 31.4098C52.8184 31.4303 52.8329 31.4508 52.8474 31.4711C53.3472 32.1707 53.9205 32.7396 54.988 32.7396C55.5344 32.7396 55.9599 32.5522 56.2589 32.2617C56.4058 32.1189 56.5222 31.9512 56.6074 31.7686L56.6082 31.767C56.6119 31.759 56.6155 31.751 56.6191 31.7429C56.7259 31.5042 56.78 31.2411 56.78 30.9756C56.78 30.845 56.7691 30.7164 56.7478 30.5903C56.6454 29.9835 56.303 29.4304 55.7797 28.9548C54.5922 27.8754 52.4734 27.1956 50.116 27.1956C49.8431 27.1956 49.5722 27.2084 49.304 27.2339C46.3782 27.5122 43.7709 29.2935 42.4252 32.2676C42.2681 32.6146 42.1283 32.9778 42.0071 33.3568C41.8736 33.7742 41.7628 34.2106 41.6767 34.6655C41.671 34.6954 41.6655 34.7255 41.66 34.7556H39.56C39.224 34.7556 39 34.9516 39 35.1756V35.8476C39 35.913 39.0151 35.9729 39.0434 36.0255C39.124 36.1755 39.3113 36.2676 39.56 36.2676H41.464C41.436 36.5476 41.436 36.8556 41.436 37.1636V37.7516H39.56C39.224 37.7516 39 37.9196 39 38.1716V38.8156C39 39.0676 39.224 39.2356 39.56 39.2356H41.604C41.6864 39.7458 41.7989 40.2456 41.9406 40.7308C42.0424 41.0791 42.1591 41.4199 42.2906 41.7516C43.3909 44.5281 45.5208 46.6699 48.4778 47.2703C49.0241 47.3812 49.5986 47.4396 50.2 47.4396C50.4488 47.4396 50.6915 47.4283 50.928 47.4067C52.7231 47.2424 54.1616 46.4797 55.1749 45.4974C55.3594 45.3186 55.5297 45.1324 55.6856 44.9413C56.1484 44.3739 56.4834 43.7625 56.6796 43.1669C56.6813 43.1618 56.683 43.1567 56.6847 43.1515C56.752 42.9447 56.8026 42.7399 56.836 42.5396C56.8623 42.2762 56.7923 42.0624 56.6674 41.9076C56.3939 41.5687 55.8572 41.5128 55.492 41.8396C55.4669 41.8624 55.4415 41.8851 55.4161 41.9076C55.3121 41.9993 55.2052 42.0879 55.0958 42.1732C55.0687 42.1943 55.0414 42.2152 55.014 42.2359C54.966 42.2722 54.9176 42.3078 54.8686 42.3428C54.2901 42.7567 53.6467 43.0826 52.9687 43.3031C52.3117 43.5168 51.6222 43.6316 50.928 43.6316C50.6818 43.6316 50.4387 43.611 50.2 43.5698C49.9609 43.5286 49.7263 43.4667 49.4973 43.3841C49.3761 43.3404 49.2566 43.2909 49.1388 43.2356C48.4766 42.9247 47.8698 42.4304 47.3508 41.7516C47.0275 41.3287 46.7382 40.8341 46.4908 40.2676C46.3506 39.9467 46.2239 39.6027 46.112 39.2356H51.908ZM60.0188 39.7177C59.4671 40.1571 59.0915 40.8598 59.0915 41.9076C59.0915 42.201 59.1232 42.4907 59.1863 42.7746C59.1984 42.8293 59.2117 42.8837 59.2262 42.9379C59.4086 43.6213 59.7757 44.2687 60.3239 44.8511C61.0584 45.6315 62.1178 46.2955 63.4937 46.7739C64.9715 47.2878 66.8144 47.5876 69.0115 47.5876C69.0248 47.5876 69.0382 47.5876 69.0515 47.5875C71.7661 47.5807 74.0933 46.8758 75.8904 45.6601C77.8512 44.3337 79.1811 42.3991 79.6946 40.0997C79.8508 39.4005 79.9315 38.6675 79.9315 37.9076C79.9315 37.175 79.8491 36.4848 79.6946 35.8385C79.0557 33.1651 77.1843 31.2437 74.8147 30.1932C73.4402 29.5839 71.898 29.2676 70.3315 29.2676C69.7001 29.2676 69.0849 29.3144 68.4915 29.402C68.2375 29.4395 67.9875 29.4844 67.742 29.5364C66.666 29.7642 65.6749 30.1266 64.8051 30.5843C64.5626 30.7119 64.3295 30.8468 64.1067 30.9883C63.8474 31.153 63.6019 31.3265 63.3715 31.5076L64.6515 23.5876H78.1315C78.4151 23.5876 78.6269 23.4952 78.7669 23.3365C78.9033 23.1818 78.9715 22.9642 78.9715 22.7076V19.6676C78.9715 19.0939 78.7155 18.8127 78.2035 18.7892C78.18 18.7881 78.156 18.7876 78.1315 18.7876H63.0515C62.5315 18.7876 62.1715 19.0276 62.0915 19.5476L60.5715 32.3076C60.5585 32.3984 60.5551 32.487 60.5605 32.5731C60.6379 33.8138 62.5319 34.5227 63.6915 33.5876C63.9797 33.3714 64.26 33.1722 64.5368 32.9907C65.1927 32.5608 65.8284 32.2308 66.5 32.0132C66.7843 31.9211 67.0751 31.8491 67.3764 31.7982C67.731 31.7383 68.1004 31.7076 68.4915 31.7076C69.1622 31.7076 69.7769 31.8056 70.3315 31.9987C71.1857 32.296 71.8975 32.8186 72.4524 33.5553C73.3636 34.7652 73.8515 36.5525 73.8515 38.8676C73.8515 40.4579 73.5475 41.7386 73.0243 42.7161C72.1657 44.32 70.7167 45.1076 69.0515 45.1076C69.0381 45.1076 69.0248 45.1075 69.0115 45.1074C67.418 45.0941 66.4858 44.2878 65.7844 43.2704C65.4594 42.799 65.1839 42.2824 64.9152 41.7783C64.1781 40.3957 63.4913 39.1076 61.9715 39.1076C61.2767 39.1076 60.5623 39.2849 60.0188 39.7177ZM66.1789 36.7225C66.4479 36.9625 66.6887 37.2148 66.9022 37.4683C67.6113 38.3102 68.1741 39.3788 68.488 39.9748C68.5346 40.0634 68.5758 40.1416 68.6111 40.207C68.8851 40.7144 69.0515 40.9715 69.1514 41.1039C69.3111 41.0907 69.3485 41.0448 69.3806 41.0056C69.3828 41.0028 69.385 41.0001 69.3873 40.9975C69.4831 40.8828 69.8515 40.3299 69.8515 38.8676C69.8515 37.0293 69.4515 36.2187 69.256 35.9602C69.1766 35.8552 69.1204 35.8212 69.0724 35.7988C69.0133 35.7713 68.8439 35.7076 68.4915 35.7076C67.8925 35.7076 67.3825 35.8315 66.1789 36.7225ZM57.3941 25.1647C57.1734 25.018 56.9536 24.8853 56.7391 24.7666C54.8159 23.7025 52.4533 23.1956 50.116 23.1956C45.1233 23.1956 40.7241 26.1073 38.6788 30.8533C37.0688 31.1906 35 32.4384 35 35.1756V35.8476C35 36.2509 35.0544 36.6404 35.1557 37.0096C35.0544 37.3787 35 37.7682 35 38.1716V38.8156C35 40.2608 35.6979 41.528 36.754 42.3201C37.3444 42.7628 37.9687 43.0068 38.5454 43.1293C40.3197 47.6501 44.2487 51.4396 50.2 51.4396C53.4756 51.4396 56.2071 50.1284 58.0883 48.2424C58.5221 48.6234 58.9912 48.9702 59.4874 49.2801C61.9822 50.8385 65.2701 51.5876 69.0115 51.5876C72.6797 51.5876 76.0349 50.5642 78.6662 48.593C78.9552 49.1689 79.3699 49.6923 79.9059 50.121C80.9584 50.9631 82.1495 51.1876 83.0546 51.1876H90.4146C91.2937 51.1876 92.3985 50.9772 93.4 50.2596C94.3429 50.9522 95.4047 51.1876 96.2946 51.1876H103.735C104.59 51.1876 105.79 50.9771 106.854 50.1035C108.022 49.1435 108.535 47.7835 108.535 46.5076V46.3876C108.535 44.9967 107.96 43.9214 107.367 43.2085C106.848 42.5855 106.257 42.1709 105.986 41.9838C105.757 41.8249 105.654 41.7578 105.584 41.712C105.539 41.6827 105.507 41.6621 105.464 41.6318L100.92 35.2863L101.541 34.7116C101.841 34.4476 102.113 34.2737 102.549 33.9956C102.766 33.8565 103.025 33.6913 103.348 33.4758C103.718 33.2297 104.342 32.8009 104.887 32.2182C105.452 31.6145 106.295 30.4544 106.295 28.7876V28.6276C106.295 27.2479 105.688 25.9097 104.546 25.0123C103.51 24.1982 102.353 23.9876 101.495 23.9876H95.7746C95.1702 23.9876 94.3936 24.0927 93.6146 24.4626V17.9076C93.6146 16.3119 92.8299 14.5641 91.1119 13.613C89.3963 12.6633 87.5865 12.9494 86.2889 13.5788L81.2989 15.9049C80.2024 14.9745 78.943 14.7876 78.1315 14.7876H63.0515C62.2097 14.7876 61.0516 14.9807 59.9911 15.7842C58.8632 16.6386 58.3084 17.8319 58.138 18.9393L58.1276 19.0067L57.3941 25.1647ZM82.6946 19.6676C82.1746 19.8676 81.8946 20.0676 81.8946 20.4676V20.6276C81.8946 20.9685 82.1911 21.2369 82.5435 21.5559C82.6824 21.6817 82.83 21.8153 82.9715 21.9643C83.3554 22.3686 83.6946 22.8862 83.6946 23.6676V43.3476C83.6946 44.0988 83.3907 44.5781 83.0546 44.9679C82.9665 45.0701 82.8761 45.1662 82.7884 45.2594C82.4629 45.6055 82.1746 45.9121 82.1746 46.3476V46.5076C82.1746 46.9076 82.4946 47.1876 83.0546 47.1876H90.4146C90.9746 47.1876 91.3346 46.9076 91.3346 46.5076V46.3476C91.3346 45.9121 91.0084 45.6055 90.6401 45.2594C90.5659 45.1897 90.4899 45.1184 90.4146 45.044C90.0055 44.6403 89.6146 44.1485 89.6146 43.3476V40.3076L91.9746 38.1076L96.2946 44.1876C96.5725 44.5798 96.4897 44.8519 96.2946 45.1047C96.2208 45.2003 96.1309 45.2932 96.0384 45.3889C95.777 45.659 95.4946 45.9508 95.4946 46.3876V46.4676C95.4946 46.9076 95.8146 47.1876 96.2946 47.1876H103.735C104.215 47.1876 104.535 46.9476 104.535 46.5076V46.3876C104.535 45.9164 104.178 45.5994 103.735 45.2899C103.646 45.2278 103.553 45.1659 103.459 45.1031C103.068 44.8419 102.654 44.5653 102.375 44.1876L95.6146 34.7476L98.8546 31.7476C99.0646 31.5603 99.2842 31.3867 99.5065 31.2239C99.7581 31.0396 100.013 30.869 100.261 30.7079C100.381 30.6303 100.499 30.5549 100.614 30.4812C100.937 30.2753 101.238 30.0826 101.495 29.8927C101.974 29.5374 102.295 29.1919 102.295 28.7876V28.6276C102.295 28.2276 101.975 27.9876 101.495 27.9876H95.7746C95.2946 27.9876 94.9746 28.2276 94.9746 28.6676V28.8276C94.9746 29.0762 95.1168 29.3274 95.3073 29.5807C95.4029 29.7077 95.5105 29.8351 95.6186 29.963C95.671 30.025 95.7234 30.0871 95.7746 30.1493C96.2206 30.691 96.5706 31.2393 95.9346 31.7876L89.6146 37.2676V17.9076C89.6146 17.2276 88.9746 16.7076 88.0146 17.1876L82.6946 19.6676ZM98.8398 48.2468C98.8398 48.2468 98.8409 48.2455 98.8444 48.2418C98.8417 48.2448 98.8398 48.2468 98.8398 48.2468ZM144.477 15.309L144.504 15.2978C146.039 14.6555 147.952 14.3932 149.755 15.228C151.648 16.1049 152.809 17.9541 152.809 19.9876C152.809 19.9986 152.809 20.0096 152.809 20.0205C152.871 19.9434 152.933 19.8669 152.997 19.7909C155.947 16.2651 160.19 14.3876 165.09 14.3876C169.439 14.3876 173.173 16.0386 175.975 18.7945C176.228 18.1356 176.63 17.5441 177.155 17.0575C177.795 16.4658 178.499 16.1469 178.891 15.9895L184.062 13.5789C185.36 12.9494 187.17 12.6632 188.885 13.613C190.603 14.564 191.388 16.3119 191.388 17.9076V24.4626C192.167 24.0927 192.944 23.9876 193.548 23.9876H199.268C200.126 23.9876 201.283 24.1982 202.319 25.0123C203.461 25.9097 204.068 27.2479 204.068 28.6276V28.7876C204.068 30.4544 203.225 31.6145 202.66 32.2182C202.116 32.8009 201.491 33.2297 201.122 33.4758C200.799 33.6913 200.54 33.8565 200.322 33.9956C199.887 34.2737 199.614 34.4476 199.314 34.7115L198.694 35.2863L203.238 41.6318C203.28 41.6621 203.312 41.6827 203.357 41.712C203.427 41.7578 203.53 41.8249 203.76 41.9838C204.03 42.1709 204.621 42.5855 205.14 43.2085C205.734 43.9214 206.308 44.9967 206.308 46.3876V46.5076C206.308 47.7835 205.796 49.1435 204.627 50.1035C203.563 50.9771 202.363 51.1876 201.508 51.1876H194.068C193.178 51.1876 192.116 50.9522 191.173 50.2596C190.172 50.9772 189.067 51.1876 188.188 51.1876H180.828C179.923 51.1876 178.732 50.9631 177.679 50.1211C176.757 49.3833 176.194 48.3653 176.012 47.2821C173.194 50.0085 169.457 51.5876 165.21 51.5876C160.977 51.5876 157.076 50.0111 154.13 47.1133C153.989 48.2143 153.458 49.331 152.429 50.1466C151.343 51.0082 150.138 51.1876 149.329 51.1876H140.849C140.078 51.1876 138.869 51.0337 137.765 50.187C136.5 49.2172 135.969 47.8015 135.969 46.5076V46.3876C135.969 44.6171 136.94 43.4469 137.355 42.9932C137.595 42.7319 137.833 42.5151 137.984 42.3791C138.048 42.322 138.094 42.2818 138.129 42.2508V27.0438C138.034 26.9978 137.937 26.9471 137.838 26.8915C137.365 26.6253 136.699 26.1568 136.165 25.3606C135.599 24.5172 135.369 23.5845 135.369 22.7076V22.5076C135.369 21.0503 136.001 19.8411 136.892 18.9995C137.594 18.3364 138.395 17.9628 138.824 17.7723L138.837 17.7664L144.477 15.309ZM139.462 27.5523C139.462 27.5523 139.448 27.5478 139.426 27.5376C139.451 27.547 139.462 27.5523 139.462 27.5523ZM138.507 41.9013C138.507 41.9013 138.503 41.9066 138.493 41.9177C138.502 41.9069 138.507 41.9013 138.507 41.9013ZM177.468 34.0795C177.483 33.7603 177.49 33.4363 177.49 33.1076C177.49 32.7827 177.483 32.4618 177.468 32.145C177.19 26.076 174.282 21.5029 170.088 19.5006C168.569 18.7756 166.882 18.3876 165.09 18.3876C164.792 18.3876 164.499 18.3963 164.21 18.4135C161.351 18.5842 158.942 19.5926 157.084 21.2913C154.317 23.8211 152.77 27.882 152.77 32.9876C152.77 39.5377 155.647 44.2608 159.879 46.3657C161.488 47.1658 163.293 47.5876 165.21 47.5876C165.519 47.5876 165.826 47.5761 166.13 47.5533C169.039 47.3353 171.672 46.0818 173.669 43.9579C175.854 41.6346 177.277 38.2698 177.468 34.0795ZM181.468 43.3476C181.468 44.0988 181.164 44.5781 180.828 44.9679C180.74 45.0701 180.65 45.1662 180.562 45.2594C180.236 45.6055 179.948 45.9121 179.948 46.3476V46.5076C179.948 46.9076 180.268 47.1876 180.828 47.1876H188.188C188.748 47.1876 189.108 46.9076 189.108 46.5076V46.3476C189.108 45.9121 188.782 45.6055 188.414 45.2594C188.339 45.1897 188.263 45.1184 188.188 45.044C187.779 44.6403 187.388 44.1485 187.388 43.3476V40.3076L189.748 38.1076L194.068 44.1876C194.346 44.5798 194.263 44.8519 194.068 45.1047C193.994 45.2003 193.904 45.2932 193.812 45.3889C193.55 45.659 193.268 45.9508 193.268 46.3876V46.4676C193.268 46.9076 193.588 47.1876 194.068 47.1876H201.508C201.988 47.1876 202.308 46.9476 202.308 46.5076V46.3876C202.308 45.9164 201.952 45.5994 201.508 45.2899C201.419 45.2278 201.326 45.1659 201.232 45.1031C200.841 44.8419 200.427 44.5653 200.148 44.1876L193.388 34.7476L196.628 31.7476C196.838 31.5603 197.058 31.3867 197.28 31.2239C197.532 31.0396 197.787 30.869 198.035 30.7079C198.154 30.6303 198.272 30.5549 198.388 30.4812C198.71 30.2753 199.012 30.0826 199.268 29.8928C199.748 29.5374 200.068 29.1919 200.068 28.7876V28.6276C200.068 28.2276 199.748 27.9876 199.268 27.9876H193.548C193.068 27.9876 192.748 28.2276 192.748 28.6676V28.8276C192.748 29.0762 192.89 29.3274 193.081 29.5807C193.176 29.7077 193.284 29.8351 193.392 29.963C193.444 30.025 193.497 30.0871 193.548 30.1493C193.994 30.691 194.344 31.2393 193.708 31.7876L187.388 37.2676V17.9076C187.388 17.2276 186.748 16.7076 185.788 17.1876L180.468 19.6676C179.948 19.8676 179.668 20.0676 179.668 20.4676V20.6276C179.668 20.9685 179.965 21.2369 180.317 21.5559C180.833 22.0229 181.468 22.5981 181.468 23.6676V43.3476ZM127.047 39.5076H114.247C113.143 39.5076 111.747 39.1401 110.679 37.9534C109.671 36.8333 109.447 35.5247 109.447 34.6276V33.3476C109.447 32.4008 109.707 31.0998 110.725 30.0069C111.783 28.8705 113.147 28.5076 114.247 28.5076H127.047C128.147 28.5076 129.512 28.8705 130.57 30.0069C131.587 31.0998 131.847 32.4008 131.847 33.3476V34.6276C131.847 35.5247 131.623 36.8333 130.615 37.9534C129.547 39.1401 128.151 39.5076 127.047 39.5076ZM114.247 32.5076C113.727 32.5076 113.447 32.8276 113.447 33.3476V34.6276C113.447 35.1876 113.727 35.5076 114.247 35.5076H127.047C127.567 35.5076 127.847 35.1876 127.847 34.6276V33.3476C127.847 32.8276 127.567 32.5076 127.047 32.5076H114.247ZM147.957 43.5498C147.926 43.435 147.905 43.3145 147.895 43.1876C147.891 43.1353 147.889 43.082 147.889 43.0276V23.3876C147.889 22.1318 148.2 21.5656 148.46 21.0914C148.647 20.7501 148.809 20.4564 148.809 19.9876C148.809 19.0276 147.769 18.2676 146.049 18.9876L140.449 21.4276C139.729 21.7476 139.369 22.0276 139.369 22.5076V22.7076C139.369 23.3082 139.877 23.4744 140.457 23.6643C140.901 23.8098 141.388 23.9692 141.721 24.3486C141.74 24.3701 141.759 24.3923 141.777 24.4153C141.91 24.5863 142.013 24.7985 142.073 25.0675C142.074 25.0722 142.075 25.077 142.076 25.0819C142.11 25.2426 142.129 25.4234 142.129 25.6276V43.0276C142.129 43.082 142.127 43.1353 142.123 43.1876C142.115 43.2936 142.1 43.3951 142.078 43.4926C141.908 44.239 141.349 44.7451 140.849 45.1858C140.837 45.196 140.826 45.2062 140.814 45.2163C140.363 45.6137 139.969 45.9605 139.969 46.3876V46.5076C139.969 46.9476 140.289 47.1876 140.849 47.1876H149.329C149.849 47.1876 150.169 46.9476 150.169 46.5076V46.3876C150.169 45.9762 149.783 45.6393 149.329 45.2599C149.311 45.2455 149.294 45.2309 149.276 45.2163C148.753 44.7797 148.156 44.282 147.957 43.5498ZM141.975 25.1284C141.958 25.1385 141.948 25.1433 141.948 25.1433C141.948 25.1433 141.956 25.1383 141.975 25.1284ZM167.707 22.8539C169.886 25.6338 171.17 30.8534 171.17 35.8276C171.17 38.2109 170.853 40.1632 170.294 41.6611C169.41 44.0347 167.92 45.2676 166.13 45.2676C165.815 45.2676 165.508 45.2296 165.21 45.1564C164.124 44.8894 163.154 44.1535 162.323 43.0742C160.286 40.4259 159.09 35.7107 159.09 30.7876C159.09 27.8211 159.521 25.4922 160.276 23.8347C161.181 21.8494 162.553 20.8276 164.21 20.8276C164.511 20.8276 164.805 20.8667 165.09 20.942C166.062 21.1986 166.94 21.875 167.707 22.8539ZM166.061 41.2022C165.819 41.0506 165.287 40.5821 164.644 39.1723C163.712 37.1283 163.09 34.1029 163.09 30.7876C163.09 27.8643 163.57 26.118 164.034 25.2558C164.105 25.122 164.17 25.0222 164.223 24.9492C164.24 24.9645 164.257 24.9811 164.276 24.9993C164.633 25.3521 165.117 26.0445 165.599 27.1781C166.56 29.437 167.17 32.6369 167.17 35.8276C167.17 38.5291 166.692 40.1259 166.259 40.8955C166.179 41.0384 166.112 41.1364 166.061 41.2022ZM164.02 24.7933C164.02 24.7933 164.025 24.7948 164.036 24.801C164.025 24.7968 164.02 24.7933 164.02 24.7933ZM165.978 41.2948C165.949 41.3218 165.934 41.3284 165.934 41.3249C165.934 41.3214 165.948 41.3078 165.978 41.2948Z" fill="#FDF8F5"/>
</svg>
