<svg width="242" height="64" viewBox="0 0 242 64" fill="none" xmlns="http://www.w3.org/2000/svg">
<rect width="242" height="64" fill="#FDF8F5"/>
<g opacity="0.4">
<path d="M88.548 42.774C87.428 44.174 85.608 45.07 83.704 45.07C80.96 45.07 78.44 42.914 77.656 38.658H84.964C85.188 38.658 85.356 38.546 85.356 38.35V37.874C85.356 37.678 85.188 37.566 84.964 37.566H77.488C77.432 37.034 77.404 36.446 77.404 35.858H85.944C86.196 35.858 86.364 35.746 86.364 35.578V35.046C86.364 34.906 86.196 34.766 85.944 34.766H77.432C77.74 30.538 80.036 28.158 82.472 28.158C86.616 28.158 86.42 31.658 88.324 31.658C89.108 31.658 89.5 31.126 89.5 30.51C89.5 28.942 86.644 26.982 83.06 26.982C79.392 26.982 75.836 29.502 75.08 34.766H72.392C72.168 34.766 72 34.906 72 35.046V35.578C72 35.746 72.168 35.858 72.392 35.858H74.94C74.912 36.222 74.912 36.586 74.912 36.978V37.566H72.392C72.168 37.566 72 37.678 72 37.874V38.35C72 38.546 72.168 38.658 72.392 38.658H74.996C75.612 43.782 79 47.31 83.2 47.31C86.504 47.31 88.828 45.322 89.556 43.362C89.808 42.634 88.968 42.326 88.548 42.774Z" fill="#3D4E50"/>
<path d="M93.9661 47.058H99.6861C100.166 47.058 100.406 46.898 100.406 46.578V46.498C100.406 45.738 98.4461 45.658 98.4461 44.018V22.178C98.4461 20.378 99.4461 20.178 99.4461 19.378C99.4461 18.738 98.8061 18.298 97.7261 18.778L93.3261 20.658C92.8061 20.858 92.5661 21.058 92.5661 21.418V21.538C92.5661 22.778 95.0861 21.338 95.0861 23.738V44.018C95.0861 45.658 93.2461 45.738 93.2461 46.498V46.578C93.2461 46.898 93.4461 47.058 93.9661 47.058Z" fill="#3D4E50"/>
<path d="M115.73 47.458C122.17 47.458 126.89 42.058 126.89 32.898C126.89 24.178 121.97 18.258 115.45 18.258C108.29 18.258 104.05 23.738 104.05 32.698C104.05 41.818 109.05 47.458 115.73 47.458ZM116.25 45.858C111.17 45.858 107.61 39.658 107.61 31.378C107.61 24.138 110.61 19.898 114.81 19.898C119.81 19.898 123.33 26.458 123.33 34.498C123.33 41.658 120.29 45.858 116.25 45.858Z" fill="#3D4E50"/>
<path d="M147.938 44.778L140.378 35.018L145.138 30.618C146.378 29.538 147.938 29.178 147.938 28.418V28.298C147.938 28.018 147.698 27.858 147.378 27.858H142.858C142.498 27.858 142.218 28.018 142.218 28.338V28.458C142.218 29.178 144.138 29.738 143.098 30.658L135.018 37.778V17.698C135.018 17.178 134.538 16.778 133.738 17.138L130.498 18.658C130.138 18.858 129.938 18.978 129.938 19.298V19.378C129.938 19.978 131.498 20.218 131.498 21.778V44.258C131.498 45.658 130.058 45.618 130.058 46.418V46.538C130.058 46.858 130.378 47.058 130.858 47.058H135.738C136.258 47.058 136.578 46.858 136.578 46.538V46.418C136.578 45.618 135.018 45.658 135.018 44.258V39.938L138.058 37.138L144.138 44.778C144.898 45.698 143.418 45.738 143.418 46.498V46.578C143.418 46.858 143.658 47.058 144.018 47.058H149.338C149.698 47.058 149.938 46.898 149.938 46.578V46.498C149.938 45.778 148.658 45.698 147.938 44.778Z" fill="#3D4E50"/>
<path d="M160.717 44.418H162.237C162.517 44.418 162.717 44.218 162.717 43.818V37.378H169.077C169.437 37.378 169.677 37.218 169.677 36.978V35.498C169.677 35.258 169.437 35.058 169.077 35.058L162.677 35.098V28.658C162.677 28.258 162.517 28.058 162.237 28.058H160.717C160.437 28.058 160.277 28.258 160.277 28.658V35.098H153.917C153.557 35.098 153.317 35.258 153.317 35.498L153.277 36.978C153.317 37.178 153.557 37.378 153.917 37.378H160.277V43.818C160.277 44.218 160.437 44.418 160.717 44.418Z" fill="#3D4E50"/>
</g>
</svg>
