<svg width="242" height="64" viewBox="0 0 242 64" fill="none" xmlns="http://www.w3.org/2000/svg">
<rect width="242" height="64" fill="#FDF8F5"/>
<g opacity="0.4">
<path d="M66.548 42.774C65.428 44.174 63.608 45.07 61.704 45.07C58.96 45.07 56.44 42.914 55.656 38.658H62.964C63.188 38.658 63.356 38.546 63.356 38.35V37.874C63.356 37.678 63.188 37.566 62.964 37.566H55.488C55.432 37.034 55.404 36.446 55.404 35.858H63.944C64.196 35.858 64.364 35.746 64.364 35.578V35.046C64.364 34.906 64.196 34.766 63.944 34.766H55.432C55.74 30.538 58.036 28.158 60.472 28.158C64.616 28.158 64.42 31.658 66.324 31.658C67.108 31.658 67.5 31.126 67.5 30.51C67.5 28.942 64.644 26.982 61.06 26.982C57.392 26.982 53.836 29.502 53.08 34.766H50.392C50.168 34.766 50 34.906 50 35.046V35.578C50 35.746 50.168 35.858 50.392 35.858H52.94C52.912 36.222 52.912 36.586 52.912 36.978V37.566H50.392C50.168 37.566 50 37.678 50 37.874V38.35C50 38.546 50.168 38.658 50.392 38.658H52.996C53.612 43.782 57 47.31 61.2 47.31C64.504 47.31 66.828 45.322 67.556 43.362C67.808 42.634 66.968 42.326 66.548 42.774Z" fill="#3D4E50"/>
<path d="M79.8461 30.618L88.4461 20.898C88.9261 20.378 89.0461 20.138 89.0461 19.698V19.338C89.0461 18.898 88.7661 18.658 88.2461 18.658H71.2461C70.7661 18.658 70.4861 18.858 70.4861 19.378V20.938C70.4861 21.498 70.8061 21.738 71.2861 21.738H85.0061L77.5261 30.938C77.0061 31.578 77.3261 32.378 78.2061 32.378H78.6461C82.6061 32.378 85.7661 34.858 85.7661 39.538C85.7661 43.298 83.2061 45.818 79.3261 45.818C73.8461 45.818 74.2861 40.618 71.8461 40.618C70.8061 40.618 70.1661 41.338 70.1661 42.498C70.1661 44.338 72.8061 47.458 79.2061 47.458C85.6461 47.458 89.3261 43.658 89.3261 38.898C89.3261 33.938 85.4061 30.738 79.8461 30.618Z" fill="#3D4E50"/>
<path d="M110.274 44.778L102.714 35.018L107.474 30.618C108.714 29.538 110.274 29.178 110.274 28.418V28.298C110.274 28.018 110.034 27.858 109.714 27.858H105.194C104.834 27.858 104.554 28.018 104.554 28.338V28.458C104.554 29.178 106.474 29.738 105.434 30.658L97.3536 37.778V17.698C97.3536 17.178 96.8736 16.778 96.0736 17.138L92.8336 18.658C92.4736 18.858 92.2736 18.978 92.2736 19.298V19.378C92.2736 19.978 93.8336 20.218 93.8336 21.778V44.258C93.8336 45.658 92.3936 45.618 92.3936 46.418V46.538C92.3936 46.858 92.7136 47.058 93.1936 47.058H98.0736C98.5936 47.058 98.9136 46.858 98.9136 46.538V46.418C98.9136 45.618 97.3536 45.658 97.3536 44.258V39.938L100.394 37.138L106.474 44.778C107.234 45.698 105.754 45.738 105.754 46.498V46.578C105.754 46.858 105.994 47.058 106.354 47.058H111.674C112.034 47.058 112.274 46.898 112.274 46.578V46.498C112.274 45.778 110.994 45.698 110.274 44.778Z" fill="#3D4E50"/>
<path d="M122.933 35.298H135.653C136.013 35.298 136.213 35.058 136.213 34.698V33.858C136.213 33.538 136.013 33.338 135.653 33.338H122.933C122.573 33.338 122.373 33.538 122.373 33.858V34.698C122.373 35.058 122.573 35.298 122.933 35.298Z" fill="#3D4E50"/>
<path d="M159.078 29.378C156.318 29.378 153.798 30.178 151.958 31.498L153.718 21.538H166.998C167.318 21.538 167.518 21.338 167.518 20.978V19.218C167.518 18.858 167.318 18.658 166.998 18.658H152.558C152.198 18.658 151.918 18.818 151.918 19.178L150.158 32.098C150.038 33.178 151.358 33.818 152.198 33.178C154.198 31.858 155.838 31.098 158.118 31.098C162.358 31.098 164.798 34.098 164.798 38.578C164.798 42.898 162.038 45.738 158.238 45.738C152.318 45.738 152.838 40.658 150.598 40.658C149.678 40.658 148.798 41.138 148.798 42.418C148.798 44.458 151.598 47.458 158.198 47.458C164.398 47.458 168.398 43.418 168.398 37.938C168.398 32.858 164.278 29.378 159.078 29.378Z" fill="#3D4E50"/>
<path d="M189.141 44.778L181.581 35.018L186.341 30.618C187.581 29.538 189.141 29.178 189.141 28.418V28.298C189.141 28.018 188.901 27.858 188.581 27.858H184.061C183.701 27.858 183.421 28.018 183.421 28.338V28.458C183.421 29.178 185.341 29.738 184.301 30.658L176.221 37.778V17.698C176.221 17.178 175.741 16.778 174.941 17.138L171.701 18.658C171.341 18.858 171.141 18.978 171.141 19.298V19.378C171.141 19.978 172.701 20.218 172.701 21.778V44.258C172.701 45.658 171.261 45.618 171.261 46.418V46.538C171.261 46.858 171.581 47.058 172.061 47.058H176.941C177.461 47.058 177.781 46.858 177.781 46.538V46.418C177.781 45.618 176.221 45.658 176.221 44.258V39.938L179.261 37.138L185.341 44.778C186.101 45.698 184.621 45.738 184.621 46.498V46.578C184.621 46.858 184.861 47.058 185.221 47.058H190.541C190.901 47.058 191.141 46.898 191.141 46.578V46.498C191.141 45.778 189.861 45.698 189.141 44.778Z" fill="#3D4E50"/>
</g>
</svg>
