<svg width="242" height="64" viewBox="0 0 242 64" fill="none" xmlns="http://www.w3.org/2000/svg">
<rect width="242" height="64" fill="#F79393"/>
<path d="M85.492 41.8396C84.26 42.9596 82.608 43.6316 80.928 43.6316C78.856 43.6316 77.008 42.1756 76.112 39.2356H81.908C82.244 39.2356 82.468 39.0676 82.468 38.8156V38.1716C82.468 37.9196 82.244 37.7516 81.908 37.7516H75.776C75.692 37.2756 75.636 36.7996 75.608 36.2676H82.804C83.14 36.2676 83.392 36.0996 83.392 35.8476V35.1756C83.392 34.9516 83.14 34.7556 82.804 34.7556H75.58C75.664 31.1156 77.288 28.9036 79.304 28.9036C82.776 28.9036 82.216 32.7396 84.988 32.7396C86.164 32.7396 86.78 31.8716 86.78 30.9756C86.78 28.7916 83.728 27.1956 80.116 27.1956C76.112 27.1956 72.528 29.9676 71.66 34.7556H69.56C69.224 34.7556 69 34.9516 69 35.1756V35.8476C69 36.0996 69.224 36.2676 69.56 36.2676H71.464C71.436 36.5476 71.436 36.8556 71.436 37.1636V37.7516H69.56C69.224 37.7516 69 37.9196 69 38.1716V38.8156C69 39.0676 69.224 39.2356 69.56 39.2356H71.604C72.332 43.7436 75.412 47.4396 80.2 47.4396C84.064 47.4396 86.472 44.7236 86.836 42.5396C86.92 41.6996 86.024 41.3636 85.492 41.8396Z" fill="#50959E"/>
<path d="M90.7315 47.1876H99.2115C99.7315 47.1876 100.052 46.9476 100.052 46.5076V46.3876C100.052 45.3876 97.7715 44.8276 97.7715 43.0276V23.3876C97.7715 21.2276 98.6915 21.1076 98.6915 19.9876C98.6915 19.0276 97.6515 18.2676 95.9315 18.9876L90.3315 21.4276C89.6115 21.7476 89.2515 22.0276 89.2515 22.5076V22.7076C89.2515 24.1076 92.0115 23.1476 92.0115 25.6276V43.0276C92.0115 44.8276 89.8515 45.3876 89.8515 46.3876V46.5076C89.8515 46.9476 90.1715 47.1876 90.7315 47.1876Z" fill="#50959E"/>
<path d="M115.093 47.5876C121.853 47.5876 127.373 42.1076 127.373 33.1076C127.373 24.3076 121.973 18.3876 114.973 18.3876C107.333 18.3876 102.653 24.1076 102.653 32.9876C102.653 42.0276 108.133 47.5876 115.093 47.5876ZM116.013 45.2676C111.733 45.2676 108.973 38.2676 108.973 30.7876C108.973 24.2676 111.053 20.8276 114.093 20.8276C118.333 20.8276 121.053 28.5876 121.053 35.8276C121.053 41.9876 118.933 45.2676 116.013 45.2676Z" fill="#50959E"/>
<path d="M150.031 44.1876L143.271 34.7476L146.511 31.7476C147.991 30.4276 149.951 29.7876 149.951 28.7876V28.6276C149.951 28.2276 149.631 27.9876 149.151 27.9876H143.431C142.951 27.9876 142.631 28.2276 142.631 28.6676V28.8276C142.631 29.7876 144.751 30.7876 143.591 31.7876L137.271 37.2676V17.9076C137.271 17.2276 136.631 16.7076 135.671 17.1876L130.351 19.6676C129.831 19.8676 129.551 20.0676 129.551 20.4676V20.6276C129.551 21.4676 131.351 21.8676 131.351 23.6676V43.3476C131.351 45.0276 129.831 45.3476 129.831 46.3476V46.5076C129.831 46.9076 130.151 47.1876 130.711 47.1876H138.071C138.631 47.1876 138.991 46.9076 138.991 46.5076V46.3476C138.991 45.3476 137.271 45.0276 137.271 43.3476V40.3076L139.631 38.1076L143.951 44.1876C144.631 45.1476 143.151 45.3876 143.151 46.3876V46.4676C143.151 46.9076 143.471 47.1876 143.951 47.1876H151.391C151.871 47.1876 152.191 46.9476 152.191 46.5076V46.3876C152.191 45.4276 150.711 45.1076 150.031 44.1876Z" fill="#50959E"/>
<path d="M162.324 44.6676H164.804C165.164 44.6676 165.444 44.3476 165.444 43.7876V37.5876H171.644C172.164 37.5876 172.484 37.3476 172.484 36.9876V34.5076C172.484 34.1876 172.164 33.9076 171.644 33.9076L165.404 33.9476V27.7476C165.404 27.1876 165.164 26.8676 164.804 26.8676H162.324C161.964 26.8676 161.724 27.1876 161.724 27.7476V33.9476H155.524C155.044 33.9476 154.684 34.1876 154.684 34.5476L154.644 36.9876C154.684 37.3076 155.044 37.5876 155.524 37.5876H161.724V43.7876C161.724 44.3476 161.964 44.6676 162.324 44.6676Z" fill="#50959E"/>
<path fill-rule="evenodd" clip-rule="evenodd" d="M81.908 39.2356C82.244 39.2356 82.468 39.0676 82.468 38.8156V38.1716C82.468 37.9196 82.244 37.7516 81.908 37.7516H75.776C75.692 37.2756 75.636 36.7996 75.608 36.2676H82.804C83.14 36.2676 83.392 36.0996 83.392 35.8476V35.1756C83.392 34.9516 83.14 34.7556 82.804 34.7556H75.58C75.5847 34.5536 75.5941 34.3561 75.608 34.1631C75.6508 33.5712 75.7362 33.0219 75.8588 32.5191C75.8796 32.4339 75.9014 32.3501 75.9242 32.2676C76.0824 31.6968 76.2902 31.1907 76.5385 30.7556C77.2187 29.5635 78.2029 28.9036 79.304 28.9036C79.603 28.9036 79.8721 28.932 80.116 28.984C81.2557 29.227 81.8452 29.9842 82.3643 30.7556C82.4153 30.8315 82.4657 30.9075 82.5159 30.9832C82.6117 31.1277 82.7067 31.271 82.804 31.4098C82.8184 31.4303 82.8329 31.4508 82.8474 31.4711C83.3472 32.1707 83.9205 32.7396 84.988 32.7396C85.5344 32.7396 85.9599 32.5522 86.2589 32.2617C86.6034 31.927 86.78 31.4553 86.78 30.9756C86.78 30.217 86.4118 29.5293 85.7797 28.9548C84.5922 27.8754 82.4734 27.1956 80.116 27.1956C79.8431 27.1956 79.5722 27.2084 79.304 27.2339C76.3782 27.5122 73.7709 29.2935 72.4252 32.2676C72.2681 32.6146 72.1283 32.9778 72.0071 33.3568C71.8736 33.7742 71.7628 34.2106 71.6767 34.6655C71.671 34.6954 71.6655 34.7255 71.66 34.7556H69.56C69.224 34.7556 69 34.9516 69 35.1756V35.8476C69 35.913 69.0151 35.9729 69.0434 36.0255C69.124 36.1755 69.3113 36.2676 69.56 36.2676H71.464C71.436 36.5476 71.436 36.8556 71.436 37.1636V37.7516H69.56C69.224 37.7516 69 37.9196 69 38.1716V38.8156C69 39.0676 69.224 39.2356 69.56 39.2356H71.604C71.6864 39.7458 71.7989 40.2456 71.9406 40.7308C72.0424 41.0791 72.1591 41.4199 72.2906 41.7516C73.3909 44.5281 75.5208 46.6699 78.4778 47.2703C79.0241 47.3812 79.5986 47.4396 80.2 47.4396C80.4488 47.4396 80.6915 47.4283 80.928 47.4067C82.7231 47.2424 84.1616 46.4797 85.1749 45.4974C85.9071 44.7876 86.4173 43.9631 86.6796 43.1669C86.6813 43.1618 86.683 43.1567 86.6847 43.1515C86.752 42.9447 86.8026 42.7399 86.836 42.5396C86.92 41.6996 86.024 41.3636 85.492 41.8396C85.3389 41.9787 85.1793 42.111 85.014 42.2359C84.966 42.2722 84.9176 42.3078 84.8686 42.3428C84.2901 42.7567 83.6467 43.0826 82.9687 43.3031C82.3117 43.5168 81.6222 43.6316 80.928 43.6316C80.6818 43.6316 80.4387 43.611 80.2 43.5698C79.9609 43.5286 79.7263 43.4667 79.4973 43.3841C79.3761 43.3404 79.2566 43.2909 79.1388 43.2356C78.4766 42.9247 77.8698 42.4304 77.3508 41.7516C77.0275 41.3287 76.7382 40.8341 76.4908 40.2676C76.3506 39.9467 76.2239 39.6027 76.112 39.2356H81.908ZM86.8005 49.3426C85.0419 50.619 82.7911 51.4396 80.2 51.4396C74.2487 51.4396 70.3197 47.6501 68.5454 43.1293C67.9687 43.0068 67.3444 42.7628 66.754 42.3201C65.6979 41.528 65 40.2608 65 38.8156V38.1716C65 37.7682 65.0544 37.3787 65.1557 37.0096C65.0544 36.6404 65 36.2509 65 35.8476V35.1756C65 32.4384 67.0688 31.1906 68.6788 30.8533C70.7241 26.1073 75.1233 23.1956 80.116 23.1956C81.9629 23.1956 83.8255 23.5121 85.4746 24.1699C85.3202 23.6815 85.2515 23.1862 85.2515 22.7076V22.5076C85.2515 21.0503 85.884 19.841 86.775 18.9995C87.4771 18.3364 88.2783 17.9628 88.7069 17.7723L88.7203 17.7664L94.3603 15.309L94.3869 15.2978C95.9213 14.6555 97.8352 14.3932 99.6376 15.228C101.531 16.1049 102.692 17.9541 102.692 19.9876C102.692 19.9986 102.691 20.0096 102.691 20.0205C102.753 19.9434 102.816 19.8669 102.88 19.7909C105.83 16.2651 110.073 14.3876 114.973 14.3876C119.322 14.3876 123.056 16.0386 125.858 18.7945C126.111 18.1356 126.513 17.5441 127.038 17.0575C127.677 16.4658 128.381 16.1469 128.774 15.9895L133.945 13.5788C135.243 12.9494 137.052 12.6633 138.768 13.613C140.486 14.5641 141.271 16.3119 141.271 17.9076V24.4626C142.05 24.0927 142.826 23.9876 143.431 23.9876H149.151C150.009 23.9876 151.166 24.1982 152.202 25.0123C153.344 25.9097 153.951 27.2479 153.951 28.6276V28.7876C153.951 29.3361 153.86 29.8298 153.717 30.2668C154.352 30.0315 154.98 29.9476 155.524 29.9476H157.724V27.7476C157.724 26.9634 157.883 25.8456 158.612 24.8037C159.441 23.6204 160.796 22.8676 162.324 22.8676H164.804C166.333 22.8676 167.688 23.6204 168.516 24.8037C169.246 25.8456 169.404 26.9634 169.404 27.7476V29.9218L171.632 29.9076H171.644C173.278 29.9076 176.484 31.0229 176.484 34.5076V36.9876C176.484 38.5011 175.747 39.8354 174.605 40.6623C173.58 41.4051 172.464 41.5876 171.644 41.5876H169.444V43.7876C169.444 44.6969 169.219 45.8472 168.434 46.8713C167.593 47.968 166.279 48.6676 164.804 48.6676H162.324C160.796 48.6676 159.441 47.9147 158.612 46.7314C157.883 45.6895 157.724 44.5717 157.724 43.7876V41.5876H155.524C154.56 41.5876 153.25 41.2397 152.229 40.3862L153.121 41.6318C153.163 41.6621 153.195 41.6827 153.24 41.712C153.31 41.7578 153.413 41.8249 153.643 41.9838C153.913 42.1709 154.504 42.5855 155.023 43.2085C155.616 43.9214 156.191 44.9967 156.191 46.3876V46.5076C156.191 47.7835 155.679 49.1435 154.51 50.1035C153.446 50.9771 152.246 51.1876 151.391 51.1876H143.951C143.061 51.1876 141.999 50.9522 141.056 50.2596C140.055 50.9772 138.95 51.1876 138.071 51.1876H130.711C129.806 51.1876 128.615 50.9631 127.562 50.121C126.64 49.3833 126.077 48.3653 125.895 47.2821C123.077 50.0085 119.34 51.5876 115.093 51.5876C110.86 51.5876 106.959 50.0111 104.013 47.1133C103.872 48.2143 103.34 49.331 102.312 50.1466C101.226 51.0082 100.021 51.1876 99.2115 51.1876H90.7315C89.9605 51.1876 88.7522 51.0337 87.6478 50.187C87.3161 49.9328 87.0349 49.6479 86.8005 49.3426ZM127.351 34.0794C127.365 33.7602 127.373 33.4362 127.373 33.1076C127.373 32.7828 127.365 32.4619 127.351 32.1451C127.073 26.076 124.165 21.5029 119.971 19.5006C118.452 18.7756 116.765 18.3876 114.973 18.3876C114.675 18.3876 114.382 18.3963 114.093 18.4135C111.233 18.5842 108.825 19.5926 106.967 21.2913C104.2 23.8211 102.653 27.882 102.653 32.9876C102.653 39.5377 105.53 44.2608 109.762 46.3657C111.371 47.1658 113.176 47.5876 115.093 47.5876C115.402 47.5876 115.709 47.5761 116.013 47.5533C118.922 47.3353 121.555 46.0818 123.552 43.9579C125.737 41.6346 127.16 38.2698 127.351 34.0794ZM131.351 43.3476C131.351 44.0988 131.047 44.5781 130.711 44.9679C130.623 45.0701 130.532 45.1662 130.445 45.2594C130.119 45.6055 129.831 45.9121 129.831 46.3476V46.5076C129.831 46.9076 130.151 47.1876 130.711 47.1876H138.071C138.631 47.1876 138.991 46.9076 138.991 46.5076V46.3476C138.991 45.9121 138.665 45.6055 138.296 45.2594C138.222 45.1897 138.146 45.1184 138.071 45.044C137.662 44.6403 137.271 44.1485 137.271 43.3476V40.3076L139.631 38.1076L143.951 44.1876C144.229 44.5798 144.146 44.8519 143.951 45.1047C143.877 45.2003 143.787 45.2932 143.695 45.3889C143.433 45.659 143.151 45.9508 143.151 46.3876V46.4676C143.151 46.9076 143.471 47.1876 143.951 47.1876H151.391C151.871 47.1876 152.191 46.9476 152.191 46.5076V46.3876C152.191 45.9164 151.834 45.5994 151.391 45.2899C151.302 45.2278 151.209 45.1659 151.115 45.1031C150.724 44.8419 150.31 44.5653 150.031 44.1876L143.271 34.7476L146.511 31.7476C146.721 31.5603 146.94 31.3867 147.163 31.2239C147.414 31.0396 147.669 30.869 147.918 30.7079C148.037 30.6303 148.155 30.5549 148.271 30.4812C148.593 30.2753 148.895 30.0826 149.151 29.8927C149.63 29.5374 149.951 29.1919 149.951 28.7876V28.6276C149.951 28.2276 149.631 27.9876 149.151 27.9876H143.431C142.951 27.9876 142.631 28.2276 142.631 28.6676V28.8276C142.631 29.0762 142.773 29.3274 142.964 29.5807C143.059 29.7077 143.167 29.8351 143.275 29.963C143.327 30.025 143.38 30.0871 143.431 30.1493C143.877 30.691 144.227 31.2393 143.591 31.7876L137.271 37.2676V17.9076C137.271 17.2276 136.631 16.7076 135.671 17.1876L130.351 19.6676C129.831 19.8676 129.551 20.0676 129.551 20.4676V20.6276C129.551 20.9685 129.847 21.2369 130.2 21.5559C130.715 22.0229 131.351 22.5981 131.351 23.6676V43.3476ZM149.197 34.7117L148.577 35.2863L150.949 38.5988C150.82 38.2607 150.726 37.8897 150.675 37.4837L150.64 37.2039L150.685 34.4998C150.688 34.1954 150.72 33.9037 150.778 33.6259C150.557 33.7709 150.369 33.8906 150.205 33.9956C149.769 34.2737 149.497 34.4476 149.197 34.7117ZM154.684 34.5476L154.644 36.9876C154.684 37.3076 155.044 37.5876 155.524 37.5876H161.724V43.7876C161.724 44.3476 161.964 44.6676 162.324 44.6676H164.804C165.164 44.6676 165.444 44.3476 165.444 43.7876V37.5876H171.644C171.652 37.5876 171.66 37.5875 171.668 37.5874C172.174 37.5802 172.484 37.3421 172.484 36.9876V34.5076C172.484 34.1876 172.164 33.9076 171.644 33.9076L165.404 33.9476V27.7476C165.404 27.1876 165.164 26.8676 164.804 26.8676H162.324C161.964 26.8676 161.724 27.1876 161.724 27.7476V33.9476H155.524C155.044 33.9476 154.684 34.1876 154.684 34.5476ZM91.9604 43.4926C91.7912 44.239 91.2317 44.7451 90.7315 45.1858C90.7199 45.196 90.7083 45.2062 90.6968 45.2163C90.2454 45.6137 89.8515 45.9605 89.8515 46.3876V46.5076C89.8515 46.9476 90.1715 47.1876 90.7315 47.1876H99.2115C99.7315 47.1876 100.051 46.9476 100.051 46.5076V46.3876C100.051 45.9762 99.6657 45.6393 99.2115 45.2599C99.1942 45.2455 99.1767 45.2309 99.1592 45.2163C98.6357 44.7797 98.0391 44.282 97.8401 43.5498C97.8089 43.435 97.7875 43.3145 97.7776 43.1876C97.7736 43.1353 97.7715 43.082 97.7715 43.0276V23.3876C97.7715 22.1318 98.0825 21.5656 98.3428 21.0914C98.5303 20.7501 98.6915 20.4564 98.6915 19.9876C98.6915 19.0276 97.6515 18.2676 95.9315 18.9876L90.3315 21.4276C89.6115 21.7476 89.2515 22.0276 89.2515 22.5076V22.7076C89.2515 23.3082 89.7595 23.4744 90.3396 23.6643C90.7842 23.8098 91.2711 23.9692 91.6042 24.3486C91.6231 24.3701 91.6415 24.3923 91.6594 24.4153C91.7923 24.5863 91.8959 24.7985 91.9554 25.0675C91.9564 25.0722 91.9575 25.077 91.9585 25.0819C91.9928 25.2426 92.0115 25.4234 92.0115 25.6276V43.0276C92.0115 43.082 92.0095 43.1353 92.0057 43.1876C91.9979 43.2936 91.9825 43.3951 91.9604 43.4926ZM91.8582 25.1284C91.8407 25.1385 91.8303 25.1433 91.8303 25.1433C91.8303 25.1433 91.8385 25.1382 91.8582 25.1284ZM117.59 22.8539C119.769 25.6338 121.053 30.8534 121.053 35.8276C121.053 38.2109 120.735 40.1632 120.177 41.6611C119.292 44.0347 117.803 45.2676 116.013 45.2676C115.698 45.2676 115.391 45.2296 115.093 45.1564C114.007 44.8894 113.036 44.1535 112.206 43.0742C110.168 40.4259 108.973 35.7107 108.973 30.7876C108.973 27.8211 109.403 25.4922 110.159 23.8348C111.064 21.8494 112.436 20.8276 114.093 20.8276C114.394 20.8276 114.687 20.8667 114.973 20.942C115.945 21.1986 116.823 21.875 117.59 22.8539ZM115.944 41.2022C115.701 41.0506 115.17 40.5821 114.527 39.1723C113.594 37.1283 112.973 34.1029 112.973 30.7876C112.973 27.8643 113.453 26.118 113.916 25.2558C113.988 25.122 114.053 25.0222 114.106 24.9492C114.123 24.9645 114.14 24.9811 114.158 24.9993C114.516 25.3521 115 26.0445 115.482 27.1781C116.443 29.437 117.053 32.6369 117.053 35.8276C117.053 38.5291 116.575 40.1259 116.142 40.8955C116.062 41.0384 115.995 41.1364 115.944 41.2022ZM113.903 24.7933C113.903 24.7933 113.908 24.7948 113.919 24.801C113.908 24.7968 113.903 24.7933 113.903 24.7933ZM115.861 41.2948C115.832 41.3219 115.817 41.3284 115.817 41.3249C115.817 41.3213 115.831 41.3078 115.861 41.2948Z" fill="#FDF8F5"/>
</svg>
