<svg width="242" height="64" viewBox="0 0 242 64" fill="none" xmlns="http://www.w3.org/2000/svg">
<rect width="242" height="64" fill="#FDF8F5"/>
<g opacity="0.4">
<path d="M59.548 42.774C58.428 44.174 56.608 45.07 54.704 45.07C51.96 45.07 49.44 42.914 48.656 38.658H55.964C56.188 38.658 56.356 38.546 56.356 38.35V37.874C56.356 37.678 56.188 37.566 55.964 37.566H48.488C48.432 37.034 48.404 36.446 48.404 35.858H56.944C57.196 35.858 57.364 35.746 57.364 35.578V35.046C57.364 34.906 57.196 34.766 56.944 34.766H48.432C48.74 30.538 51.036 28.158 53.472 28.158C57.616 28.158 57.42 31.658 59.324 31.658C60.108 31.658 60.5 31.126 60.5 30.51C60.5 28.942 57.644 26.982 54.06 26.982C50.392 26.982 46.836 29.502 46.08 34.766H43.392C43.168 34.766 43 34.906 43 35.046V35.578C43 35.746 43.168 35.858 43.392 35.858H45.94C45.912 36.222 45.912 36.586 45.912 36.978V37.566H43.392C43.168 37.566 43 37.678 43 37.874V38.35C43 38.546 43.168 38.658 43.392 38.658H45.996C46.612 43.782 50 47.31 54.2 47.31C57.504 47.31 59.828 45.322 60.556 43.362C60.808 42.634 59.968 42.326 59.548 42.774Z" fill="#3D4E50"/>
<path d="M73.4061 29.378C70.6461 29.378 68.1261 30.178 66.2861 31.498L68.0461 21.538H81.3261C81.6461 21.538 81.8461 21.338 81.8461 20.978V19.218C81.8461 18.858 81.6461 18.658 81.3261 18.658H66.8861C66.5261 18.658 66.2461 18.818 66.2461 19.178L64.4861 32.098C64.3661 33.178 65.6861 33.818 66.5261 33.178C68.5261 31.858 70.1661 31.098 72.4461 31.098C76.6861 31.098 79.1261 34.098 79.1261 38.578C79.1261 42.898 76.3661 45.738 72.5661 45.738C66.6461 45.738 67.1661 40.658 64.9261 40.658C64.0061 40.658 63.1261 41.138 63.1261 42.418C63.1261 44.458 65.9261 47.458 72.5261 47.458C78.7261 47.458 82.7261 43.418 82.7261 37.938C82.7261 32.858 78.6061 29.378 73.4061 29.378Z" fill="#3D4E50"/>
<path d="M103.469 44.778L95.9089 35.018L100.669 30.618C101.909 29.538 103.469 29.178 103.469 28.418V28.298C103.469 28.018 103.229 27.858 102.909 27.858H98.3889C98.0289 27.858 97.7489 28.018 97.7489 28.338V28.458C97.7489 29.178 99.6689 29.738 98.6289 30.658L90.5489 37.778V17.698C90.5489 17.178 90.0689 16.778 89.2689 17.138L86.0289 18.658C85.6689 18.858 85.4689 18.978 85.4689 19.298V19.378C85.4689 19.978 87.0289 20.218 87.0289 21.778V44.258C87.0289 45.658 85.5889 45.618 85.5889 46.418V46.538C85.5889 46.858 85.9089 47.058 86.3889 47.058H91.2689C91.7889 47.058 92.1089 46.858 92.1089 46.538V46.418C92.1089 45.618 90.5489 45.658 90.5489 44.258V39.938L93.5889 37.138L99.6689 44.778C100.429 45.698 98.9489 45.738 98.9489 46.498V46.578C98.9489 46.858 99.1889 47.058 99.5489 47.058H104.869C105.229 47.058 105.469 46.898 105.469 46.578V46.498C105.469 45.778 104.189 45.698 103.469 44.778Z" fill="#3D4E50"/>
<path d="M116.129 35.298H128.849C129.209 35.298 129.409 35.058 129.409 34.698V33.858C129.409 33.538 129.209 33.338 128.849 33.338H116.129C115.769 33.338 115.569 33.538 115.569 33.858V34.698C115.569 35.058 115.769 35.298 116.129 35.298Z" fill="#3D4E50"/>
<path d="M143.833 47.058H149.553C150.033 47.058 150.273 46.898 150.273 46.578V46.498C150.273 45.738 148.313 45.658 148.313 44.018V22.178C148.313 20.378 149.313 20.178 149.313 19.378C149.313 18.738 148.673 18.298 147.593 18.778L143.193 20.658C142.673 20.858 142.433 21.058 142.433 21.418V21.538C142.433 22.778 144.953 21.338 144.953 23.738V44.018C144.953 45.658 143.113 45.738 143.113 46.498V46.578C143.113 46.898 143.313 47.058 143.833 47.058Z" fill="#3D4E50"/>
<path d="M165.597 47.458C172.037 47.458 176.757 42.058 176.757 32.898C176.757 24.178 171.837 18.258 165.317 18.258C158.157 18.258 153.917 23.738 153.917 32.698C153.917 41.818 158.917 47.458 165.597 47.458ZM166.117 45.858C161.037 45.858 157.477 39.658 157.477 31.378C157.477 24.138 160.477 19.898 164.677 19.898C169.677 19.898 173.197 26.458 173.197 34.498C173.197 41.658 170.157 45.858 166.117 45.858Z" fill="#3D4E50"/>
<path d="M197.805 44.778L190.245 35.018L195.005 30.618C196.245 29.538 197.805 29.178 197.805 28.418V28.298C197.805 28.018 197.565 27.858 197.245 27.858H192.725C192.365 27.858 192.085 28.018 192.085 28.338V28.458C192.085 29.178 194.005 29.738 192.965 30.658L184.885 37.778V17.698C184.885 17.178 184.405 16.778 183.605 17.138L180.365 18.658C180.005 18.858 179.805 18.978 179.805 19.298V19.378C179.805 19.978 181.365 20.218 181.365 21.778V44.258C181.365 45.658 179.925 45.618 179.925 46.418V46.538C179.925 46.858 180.245 47.058 180.725 47.058H185.605C186.125 47.058 186.445 46.858 186.445 46.538V46.418C186.445 45.618 184.885 45.658 184.885 44.258V39.938L187.925 37.138L194.005 44.778C194.765 45.698 193.285 45.738 193.285 46.498V46.578C193.285 46.858 193.525 47.058 193.885 47.058H199.205C199.565 47.058 199.805 46.898 199.805 46.578V46.498C199.805 45.778 198.525 45.698 197.805 44.778Z" fill="#3D4E50"/>
</g>
</svg>
