<svg width="74" height="31" viewBox="0 0 74 31" fill="none" xmlns="http://www.w3.org/2000/svg">
<circle cx="37" cy="22" r="8" stroke="#E4D8D1" stroke-width="2"/>
<path d="M16.7312 17.1601C19.0512 17.1601 21.0512 15.9761 21.0512 13.8961C21.0512 9.28809 14.5872 11.4961 14.5872 8.05609C14.5872 7.14409 15.1792 6.40809 16.3952 6.40809C18.7312 6.40809 18.1392 9.25609 19.8672 9.25609C20.5552 9.25609 20.8912 8.87209 20.8912 8.26409C20.9072 6.93609 19.1312 5.49609 16.4432 5.49609C13.8032 5.49609 12.2032 6.90409 12.2032 8.82409C12.2192 13.5601 18.6832 11.2241 18.6832 14.6321C18.6832 15.6081 17.9472 16.2481 16.8272 16.2481C14.1232 16.2481 14.5552 13.3361 12.9552 13.3041C12.2992 13.3041 11.9952 13.7201 11.9952 14.2801C11.9952 15.5601 13.6912 17.1601 16.7312 17.1601Z" fill="#3c3a34
"/>
<path d="M36.9467 5.64009H34.8027C34.5947 5.64009 34.4507 5.73609 34.4507 5.91209V5.96009C34.4507 6.37609 35.2987 6.50409 35.0747 7.17609L32.9147 13.9761L30.8507 7.17609C30.6267 6.39209 31.5227 6.34409 31.5227 5.94409V5.89609C31.5227 5.73609 31.3947 5.64009 31.1867 5.64009H27.8267C27.6187 5.64009 27.4907 5.73609 27.4907 5.89609V5.94409C27.4907 6.34409 28.2427 6.50409 28.4667 7.17609L28.9307 8.58409L27.0907 14.0241L24.5627 7.19209C24.3067 6.48809 25.1387 6.37609 25.1387 5.96009V5.89609C25.1387 5.75209 24.9947 5.64009 24.7707 5.64009H21.3947C21.1867 5.64009 21.0427 5.73609 21.0427 5.89609V5.94409C21.0427 6.37609 21.6827 6.40809 22.0187 7.19209L25.7787 16.3761C25.9707 16.7921 26.1787 17.0001 26.6587 17.0001C27.0267 17.0001 27.3467 16.7921 27.4907 16.3281L29.5227 10.3761L31.5227 16.3761C31.6667 16.7921 31.9707 17.0001 32.4027 17.0001C32.8027 17.0001 33.1707 16.8081 33.3307 16.3281L36.3867 7.17609C36.6587 6.39209 37.2987 6.36009 37.2987 5.96009V5.89609C37.2987 5.75209 37.1707 5.64009 36.9467 5.64009Z" fill="#3c3a34
"/>
<path d="M38.0961 16.7281C38.0961 16.9041 38.2241 17.0001 38.4481 17.0001H41.4401C41.6481 17.0001 41.7921 16.9041 41.7921 16.7281V16.6801C41.7921 16.2961 41.1201 16.1521 41.1201 15.4641V7.17609C41.1201 6.50409 41.7921 6.36009 41.7921 5.96009V5.89609C41.7921 5.73609 41.6481 5.64009 41.4401 5.64009H38.4481C38.2241 5.64009 38.0961 5.73609 38.0961 5.89609V5.96009C38.0961 6.36009 38.7041 6.50409 38.7041 7.17609V15.4641C38.7041 16.1521 38.0961 16.2961 38.0961 16.6801V16.7281Z" fill="#3c3a34
"/>
<path d="M43.6669 17.0001H46.6749C46.8989 17.0001 47.0429 16.8881 47.0429 16.7281V16.6641C47.0429 16.2961 46.3549 16.1361 46.3549 15.4641V13.3041H47.7789C50.6109 13.3041 52.4029 11.8001 52.4029 9.38409C52.4029 6.69609 50.1469 5.64009 47.3149 5.64009H43.6669C43.4429 5.64009 43.2989 5.73609 43.2989 5.89609V5.96009C43.2989 6.36009 43.9229 6.52009 43.9229 7.17609V15.4641C43.9229 16.1361 43.2989 16.2961 43.2989 16.6641V16.7281C43.2989 16.8881 43.4429 17.0001 43.6669 17.0001ZM47.0429 12.3601C46.5469 12.3601 46.3549 12.0881 46.3549 11.6401V7.28809C46.3549 6.84009 46.5469 6.60009 46.8829 6.60009H47.3149C48.5949 6.60009 49.8909 7.78409 49.8909 9.96009C49.8909 11.3041 49.1389 12.3601 47.7789 12.3601H47.0429Z" fill="#3c3a34
"/>
<path d="M53.745 17.0001H61.297C61.617 17.0001 61.745 16.8401 61.809 16.5361L62.161 14.6001C62.193 14.3921 62.097 14.1841 61.873 14.1841H61.745C60.913 14.1841 60.625 16.0401 59.585 16.0401H57.233C56.609 16.0401 56.385 15.5121 56.385 15.0481L56.401 11.7041H58.465C59.249 11.7041 59.313 12.8081 59.729 12.8081H59.857C60.017 12.8081 60.129 12.6641 60.129 12.4721V9.89609C60.129 9.68809 60.017 9.56009 59.857 9.56009H59.729C59.313 9.56009 59.249 10.7281 58.465 10.7281H56.401V7.28809C56.401 6.77609 56.689 6.60009 57.041 6.60009H59.089C60.113 6.60009 60.577 8.37609 61.329 8.37609H61.425C61.649 8.37609 61.793 8.23209 61.745 7.96009L61.361 6.08809C61.313 5.76809 61.185 5.64009 60.865 5.64009H53.729C53.521 5.64009 53.377 5.73609 53.377 5.89609V5.96009C53.377 6.34409 54.001 6.48809 54.001 7.19209V15.4481C54.001 16.1521 53.377 16.2801 53.377 16.6801V16.7281C53.377 16.9041 53.521 17.0001 53.745 17.0001Z" fill="#3c3a34
"/>
<path d="M66 16L72 22L66 28" stroke="#E4D8D1" stroke-width="2"/>
<path d="M71 22L46 22" stroke="#E4D8D1" stroke-width="2"/>
<circle cx="37" cy="22" r="3" fill="#E4D8D1"/>
</svg>
