<svg width="242" height="64" viewBox="0 0 242 64" fill="none" xmlns="http://www.w3.org/2000/svg">
<rect width="242" height="64" fill="#F79393"/>
<path d="M64.492 41.8396C63.26 42.9596 61.608 43.6316 59.928 43.6316C57.856 43.6316 56.008 42.1756 55.112 39.2356H60.908C61.244 39.2356 61.468 39.0676 61.468 38.8156V38.1716C61.468 37.9196 61.244 37.7516 60.908 37.7516H54.776C54.692 37.2756 54.636 36.7996 54.608 36.2676H61.804C62.14 36.2676 62.392 36.0996 62.392 35.8476V35.1756C62.392 34.9516 62.14 34.7556 61.804 34.7556H54.58C54.664 31.1156 56.288 28.9036 58.304 28.9036C61.776 28.9036 61.216 32.7396 63.988 32.7396C65.164 32.7396 65.78 31.8716 65.78 30.9756C65.78 28.7916 62.728 27.1956 59.116 27.1956C55.112 27.1956 51.528 29.9676 50.66 34.7556H48.56C48.224 34.7556 48 34.9516 48 35.1756V35.8476C48 36.0996 48.224 36.2676 48.56 36.2676H50.464C50.436 36.5476 50.436 36.8556 50.436 37.1636V37.7516H48.56C48.224 37.7516 48 37.9196 48 38.1716V38.8156C48 39.0676 48.224 39.2356 48.56 39.2356H50.604C51.332 43.7436 54.412 47.4396 59.2 47.4396C63.064 47.4396 65.472 44.7236 65.836 42.5396C65.92 41.6996 65.024 41.3636 64.492 41.8396Z" fill="#50959E"/>
<path d="M79.8915 30.5076L87.4515 21.8676C88.0915 21.1076 88.3315 20.7476 88.3315 20.1476V19.6276C88.3315 19.1076 87.9715 18.7876 87.3715 18.7876H69.8115C69.0915 18.7876 68.6515 19.1476 68.6515 19.8676V22.7876C68.6515 23.5476 69.1715 23.9476 69.8515 23.9476H81.8515L76.0115 31.4676C75.2915 32.4276 75.8115 33.5476 76.9715 33.5476H77.6115C80.6115 33.5476 82.6515 35.7876 82.6515 39.6276C82.6515 42.8676 80.8515 45.1876 78.1315 45.1876C73.8915 45.1876 74.2915 38.9876 70.7315 38.9876C69.0515 38.9876 68.0515 40.1876 68.0515 41.9876C68.0515 44.5476 71.1315 47.5876 78.1315 47.5876C84.7715 47.5876 88.8915 43.5476 88.8915 38.7076C88.8915 33.9876 85.4115 30.6676 79.8915 30.5076Z" fill="#50959E"/>
<path d="M111.453 44.1876L104.693 34.7476L107.933 31.7476C109.413 30.4276 111.373 29.7876 111.373 28.7876V28.6276C111.373 28.2276 111.053 27.9876 110.573 27.9876H104.853C104.373 27.9876 104.053 28.2276 104.053 28.6676V28.8276C104.053 29.7876 106.173 30.7876 105.013 31.7876L98.6927 37.2676V17.9076C98.6927 17.2276 98.0527 16.7076 97.0928 17.1876L91.7728 19.6676C91.2528 19.8676 90.9728 20.0676 90.9728 20.4676V20.6276C90.9728 21.4676 92.7728 21.8676 92.7728 23.6676V43.3476C92.7728 45.0276 91.2528 45.3476 91.2528 46.3476V46.5076C91.2528 46.9076 91.5728 47.1876 92.1328 47.1876H99.4928C100.053 47.1876 100.413 46.9076 100.413 46.5076V46.3476C100.413 45.3476 98.6927 45.0276 98.6927 43.3476V40.3076L101.053 38.1076L105.373 44.1876C106.053 45.1476 104.573 45.3876 104.573 46.3876V46.4676C104.573 46.9076 104.893 47.1876 105.373 47.1876H112.813C113.293 47.1876 113.613 46.9476 113.613 46.5076V46.3876C113.613 45.4276 112.133 45.1076 111.453 44.1876Z" fill="#50959E"/>
<path d="M123.325 35.5076H136.125C136.645 35.5076 136.925 35.1876 136.925 34.6276V33.3476C136.925 32.8276 136.645 32.5076 136.125 32.5076H123.325C122.805 32.5076 122.525 32.8276 122.525 33.3476V34.6276C122.525 35.1876 122.805 35.5076 123.325 35.5076Z" fill="#50959E"/>
<path d="M159.527 29.2676C156.727 29.2676 154.247 30.1876 152.567 31.5076L153.847 23.5876H167.327C167.887 23.5876 168.167 23.2276 168.167 22.7076V19.6676C168.167 19.0676 167.887 18.7876 167.327 18.7876H152.247C151.727 18.7876 151.367 19.0276 151.287 19.5476L149.767 32.3076C149.567 33.7076 151.647 34.5876 152.887 33.5876C154.487 32.3876 155.847 31.7076 157.687 31.7076C161.087 31.7076 163.047 34.2276 163.047 38.8676C163.047 43.0676 160.927 45.1076 158.247 45.1076C153.847 45.1076 154.447 39.1076 151.167 39.1076C149.767 39.1076 148.287 39.8276 148.287 41.9076C148.287 44.9476 151.687 47.5876 158.207 47.5876C164.807 47.5876 169.127 43.4676 169.127 37.9076C169.127 32.3876 164.447 29.2676 159.527 29.2676Z" fill="#50959E"/>
<path d="M191.57 44.1876L184.81 34.7476L188.05 31.7476C189.53 30.4276 191.49 29.7876 191.49 28.7876V28.6276C191.49 28.2276 191.17 27.9876 190.69 27.9876H184.97C184.49 27.9876 184.17 28.2276 184.17 28.6676V28.8276C184.17 29.7876 186.29 30.7876 185.13 31.7876L178.81 37.2676V17.9076C178.81 17.2276 178.17 16.7076 177.21 17.1876L171.89 19.6676C171.37 19.8676 171.09 20.0676 171.09 20.4676V20.6276C171.09 21.4676 172.89 21.8676 172.89 23.6676V43.3476C172.89 45.0276 171.37 45.3476 171.37 46.3476V46.5076C171.37 46.9076 171.69 47.1876 172.25 47.1876H179.61C180.17 47.1876 180.53 46.9076 180.53 46.5076V46.3476C180.53 45.3476 178.81 45.0276 178.81 43.3476V40.3076L181.17 38.1076L185.49 44.1876C186.17 45.1476 184.69 45.3876 184.69 46.3876V46.4676C184.69 46.9076 185.01 47.1876 185.49 47.1876H192.93C193.41 47.1876 193.73 46.9476 193.73 46.5076V46.3876C193.73 45.4276 192.25 45.1076 191.57 44.1876Z" fill="#50959E"/>
<path fill-rule="evenodd" clip-rule="evenodd" d="M60.908 39.2356C61.244 39.2356 61.468 39.0676 61.468 38.8156V38.1716C61.468 37.9196 61.244 37.7516 60.908 37.7516H54.776C54.692 37.2756 54.636 36.7996 54.608 36.2676H61.804C62.14 36.2676 62.392 36.0996 62.392 35.8476V35.1756C62.392 34.9516 62.14 34.7556 61.804 34.7556H54.58C54.5847 34.5536 54.5941 34.3561 54.608 34.1631C54.6508 33.5712 54.7362 33.0219 54.8588 32.5191C54.8796 32.4339 54.9014 32.3501 54.9242 32.2676C55.0824 31.6968 55.2902 31.1907 55.5385 30.7556C56.2187 29.5635 57.2029 28.9036 58.304 28.9036C58.603 28.9036 58.8721 28.932 59.116 28.984C60.2557 29.227 60.8452 29.9842 61.3643 30.7556C61.4153 30.8315 61.4657 30.9075 61.5159 30.9832C61.6117 31.1277 61.7067 31.271 61.804 31.4098C61.8184 31.4303 61.8329 31.4508 61.8474 31.4711C62.3472 32.1707 62.9205 32.7396 63.988 32.7396C64.5344 32.7396 64.9599 32.5522 65.2589 32.2617C65.6034 31.927 65.78 31.4553 65.78 30.9756C65.78 30.217 65.4118 29.5293 64.7797 28.9548C63.5922 27.8754 61.4734 27.1956 59.116 27.1956C58.8431 27.1956 58.5722 27.2084 58.304 27.2339C55.3782 27.5122 52.7709 29.2935 51.4252 32.2676C51.2681 32.6146 51.1283 32.9778 51.0071 33.3568C50.8736 33.7742 50.7628 34.2106 50.6767 34.6655C50.671 34.6954 50.6655 34.7255 50.66 34.7556H48.56C48.224 34.7556 48 34.9516 48 35.1756V35.8476C48 35.913 48.0151 35.9729 48.0434 36.0255C48.124 36.1755 48.3113 36.2676 48.56 36.2676H50.464C50.436 36.5476 50.436 36.8556 50.436 37.1636V37.7516H48.56C48.224 37.7516 48 37.9196 48 38.1716V38.8156C48 39.0676 48.224 39.2356 48.56 39.2356H50.604C50.6864 39.7458 50.7989 40.2456 50.9406 40.7308C51.0424 41.0791 51.1591 41.4199 51.2906 41.7516C52.3909 44.5281 54.5208 46.6699 57.4778 47.2703C58.0241 47.3812 58.5986 47.4396 59.2 47.4396C59.4488 47.4396 59.6915 47.4283 59.928 47.4067C61.7231 47.2424 63.1616 46.4797 64.1749 45.4974C64.3535 45.3242 64.519 45.1442 64.6709 44.9594C65.1413 44.3869 65.4813 43.7689 65.6796 43.1669C65.6813 43.1618 65.683 43.1567 65.6847 43.1515C65.752 42.9447 65.8026 42.7399 65.836 42.5396C65.8581 42.3189 65.8125 42.1331 65.7237 41.9876C65.4744 41.5791 64.8843 41.4886 64.492 41.8396C64.4367 41.8898 64.3806 41.9392 64.3237 41.9876C64.2359 42.0623 64.1462 42.1347 64.0547 42.205C64.0412 42.2153 64.0276 42.2256 64.014 42.2359C63.966 42.2722 63.9176 42.3078 63.8686 42.3428C63.2901 42.7567 62.6467 43.0826 61.9687 43.3031C61.3117 43.5168 60.6222 43.6316 59.928 43.6316C59.6818 43.6316 59.4387 43.611 59.2 43.5698C58.9609 43.5286 58.7263 43.4667 58.4973 43.3841C58.3761 43.3404 58.2566 43.2909 58.1388 43.2356C57.4766 42.9247 56.8698 42.4304 56.3508 41.7516C56.0275 41.3287 55.7382 40.8341 55.4908 40.2676C55.3506 39.9467 55.2239 39.6027 55.112 39.2356H60.908ZM68.9509 39.6199C68.3705 40.1456 68.0515 40.9709 68.0515 41.9876C68.0515 42.2449 68.0826 42.5071 68.1457 42.7705C68.1586 42.8242 68.1727 42.8779 68.1882 42.9316C68.3743 43.5763 68.7523 44.2242 69.3347 44.8232C70.0766 45.5863 71.1502 46.27 72.5811 46.7666C74.047 47.2753 75.8879 47.5876 78.1315 47.5876C80.7429 47.5876 82.9645 46.9627 84.699 45.9101C86.9398 44.5502 88.3677 42.4764 88.7728 40.1135C88.8514 39.6547 88.8915 39.185 88.8915 38.7076C88.8915 38.2004 88.8513 37.7094 88.7728 37.2367C88.3439 34.6568 86.7712 32.6236 84.3452 31.492C83.6957 31.189 82.985 30.9507 82.2187 30.7838C82.0443 30.7458 81.867 30.7115 81.6869 30.681C81.116 30.5844 80.5168 30.5257 79.8915 30.5076L87.4515 21.8676C87.9047 21.3294 88.1573 20.9918 88.2662 20.6276C88.2819 20.575 88.2946 20.5219 88.3045 20.4676C88.3229 20.3666 88.3315 20.2614 88.3315 20.1476V19.6276C88.3315 19.1076 87.9715 18.7876 87.3715 18.7876H69.8115C69.0915 18.7876 68.6515 19.1476 68.6515 19.8676V22.7876C68.6515 23.5476 69.1715 23.9476 69.8515 23.9476H81.8515L76.0115 31.4676C75.2915 32.4276 75.8115 33.5476 76.9715 33.5476H77.6115C78.0554 33.5476 78.4783 33.5966 78.8766 33.6926C78.9287 33.7052 78.9804 33.7185 79.0317 33.7327C79.1083 33.7539 79.184 33.7768 79.2588 33.8016C79.26 33.802 79.2613 33.8024 79.2625 33.8028C79.4442 33.8631 79.6201 33.934 79.7898 34.015C80.1059 34.166 80.4005 34.3526 80.6712 34.5733C81.913 35.5859 82.6515 37.3171 82.6515 39.6276C82.6515 40.8774 82.3837 41.9903 81.8985 42.8859C81.1259 44.3122 79.8023 45.1876 78.1315 45.1876C76.5626 45.1876 75.629 44.3387 74.895 43.2692C74.5939 42.8303 74.3263 42.3544 74.0623 41.8846C73.2306 40.4051 72.4338 38.9876 70.7315 38.9876C70.0004 38.9876 69.3981 39.2148 68.9509 39.6199ZM71.8345 33.6413L71.293 34.26L72.0421 34.2817C72.0773 34.3703 72.1153 34.4586 72.156 34.5467C72.2681 34.7891 72.3957 35.0171 72.5369 35.2305C71.9859 35.0762 71.3847 34.9876 70.7315 34.9876C69.1349 34.9876 67.5664 35.5052 66.3282 36.5987C66.3478 36.4853 66.3631 36.3697 66.3738 36.2519C67.0876 35.9411 67.735 35.4852 68.2762 34.8936C69.3222 33.7503 69.78 32.3136 69.78 30.9756C69.78 29.7845 69.4677 28.7546 68.9805 27.8792C69.2808 27.9266 69.5736 27.9476 69.8515 27.9476H73.6806L72.8317 29.0407L72.8115 29.0676C71.8813 30.3078 71.4147 31.9821 71.8345 33.6413ZM64.8772 24.3391C63.132 23.5663 61.1148 23.1956 59.116 23.1956C54.1233 23.1956 49.7241 26.1073 47.6788 30.8533C46.0688 31.1906 44 32.4384 44 35.1756V35.8476C44 36.2509 44.0544 36.6404 44.1557 37.0096C44.0544 37.3787 44 37.7682 44 38.1716V38.8156C44 40.2608 44.6979 41.528 45.754 42.3201C46.3444 42.7628 46.9687 43.0068 47.5454 43.1293C49.3197 47.6501 53.2487 51.4396 59.2 51.4396C62.49 51.4396 65.2311 50.1168 67.113 48.2174C67.4767 48.5322 67.8644 48.8242 68.2712 49.0913C70.7441 50.7149 74.0923 51.5876 78.1315 51.5876C81.8555 51.5876 85.2091 50.5168 87.775 48.6531C88.0624 49.2053 88.4668 49.7073 88.984 50.121C90.0366 50.9631 91.2276 51.1876 92.1328 51.1876H99.4928C100.372 51.1876 101.477 50.9772 102.478 50.2596C103.421 50.9522 104.483 51.1876 105.373 51.1876H112.813C113.668 51.1876 114.868 50.9771 115.932 50.1035C117.1 49.1435 117.613 47.7835 117.613 46.5076V46.3876C117.613 44.9967 117.038 43.9214 116.445 43.2085C115.926 42.5855 115.335 42.1709 115.065 41.9838C114.835 41.8249 114.732 41.7578 114.662 41.712C114.617 41.6827 114.585 41.6621 114.542 41.6318L109.998 35.2863L110.619 34.7116C110.919 34.4476 111.191 34.2737 111.627 33.9956C111.845 33.8565 112.103 33.6913 112.427 33.4758C112.796 33.2297 113.42 32.8009 113.965 32.2182C114.53 31.6145 115.373 30.4544 115.373 28.7876V28.6276C115.373 27.2479 114.766 25.9097 113.624 25.0123C112.588 24.1982 111.431 23.9876 110.573 23.9876H104.853C104.248 23.9876 103.472 24.0927 102.693 24.4626V17.9076C102.693 16.3119 101.908 14.5641 100.19 13.613C98.4744 12.6633 96.6646 12.9494 95.367 13.5788L90.5156 15.8403C89.4736 15.0202 88.2908 14.7876 87.3715 14.7876H69.8115C68.8362 14.7876 67.4567 15.0304 66.2856 16.0844C65.0454 17.2006 64.6515 18.6695 64.6515 19.8676V22.7876C64.6515 23.3016 64.7235 23.8271 64.8772 24.3391ZM91.7728 19.6676C91.4138 19.8056 91.1692 19.9437 91.0521 20.1476C90.9996 20.239 90.9728 20.3437 90.9728 20.4676V20.6276C90.9728 20.9685 91.2693 21.2369 91.6216 21.5559C91.7571 21.6786 91.9009 21.8088 92.0393 21.9535C92.4274 22.3594 92.7728 22.8792 92.7728 23.6676V43.3476C92.7728 44.0988 92.4688 44.5781 92.1328 44.9679C92.0446 45.0701 91.9542 45.1662 91.8665 45.2594C91.541 45.6055 91.2528 45.9121 91.2528 46.3476V46.5076C91.2528 46.9076 91.5728 47.1876 92.1328 47.1876H99.4928C100.053 47.1876 100.413 46.9076 100.413 46.5076V46.3476C100.413 45.9121 100.087 45.6055 99.7182 45.2594C99.644 45.1897 99.5681 45.1184 99.4928 45.044C99.0837 44.6403 98.6927 44.1485 98.6927 43.3476V40.3076L101.053 38.1076L105.373 44.1876C105.651 44.5798 105.568 44.8519 105.373 45.1047C105.299 45.2003 105.209 45.2932 105.116 45.3889C104.855 45.659 104.573 45.9508 104.573 46.3876V46.4676C104.573 46.9076 104.893 47.1876 105.373 47.1876H112.813C113.293 47.1876 113.613 46.9476 113.613 46.5076V46.3876C113.613 45.9164 113.256 45.5994 112.813 45.2899C112.724 45.2278 112.631 45.1659 112.537 45.1031C112.146 44.8419 111.732 44.5653 111.453 44.1876L104.693 34.7476L107.933 31.7476C108.143 31.5603 108.362 31.3867 108.585 31.2239C108.836 31.0396 109.091 30.869 109.34 30.7079C109.459 30.6303 109.577 30.5549 109.693 30.4812C110.015 30.2753 110.317 30.0826 110.573 29.8927C111.052 29.5374 111.373 29.1919 111.373 28.7876V28.6276C111.373 28.2276 111.053 27.9876 110.573 27.9876H104.853C104.373 27.9876 104.053 28.2276 104.053 28.6676V28.8276C104.053 29.0762 104.195 29.3274 104.385 29.5807C104.481 29.7077 104.589 29.8351 104.697 29.963C104.749 30.025 104.802 30.0871 104.853 30.1493C105.299 30.691 105.649 31.2393 105.013 31.7876L98.6927 37.2676V17.9076C98.6927 17.2276 98.0527 16.7076 97.0928 17.1876L91.7728 19.6676ZM88.7728 29.604V26.4319L87.0534 28.3969C87.6603 28.7492 88.2353 29.1514 88.7728 29.604ZM75.9125 37.4463C76.6487 38.3063 77.211 39.316 77.5472 39.9199C77.5881 39.9933 77.6257 40.0608 77.6598 40.1212C77.9648 40.6615 78.1541 40.9594 78.2815 41.1316C78.2846 41.1279 78.2878 41.1241 78.2911 41.1199C78.3977 40.987 78.6515 40.5384 78.6515 39.6276C78.6515 38.3856 78.3237 37.8733 78.2102 37.7399C78.1541 37.6739 78.1062 37.6419 78.0525 37.6183C77.9939 37.5925 77.8595 37.5476 77.6115 37.5476H76.9715C76.6166 37.5476 76.2615 37.5137 75.9125 37.4463ZM149.767 32.3076C149.567 33.7076 151.647 34.5876 152.887 33.5876C153.175 33.3714 153.455 33.1722 153.732 32.9907C154.388 32.5608 155.024 32.2308 155.695 32.0132C155.98 31.9211 156.27 31.8491 156.572 31.7982C156.926 31.7383 157.296 31.7076 157.687 31.7076C158.358 31.7076 158.972 31.8056 159.527 31.9987C160.381 32.296 161.093 32.8186 161.648 33.5553C162.559 34.7652 163.047 36.5525 163.047 38.8676C163.047 40.4579 162.743 41.7386 162.22 42.7161C161.361 44.32 159.912 45.1076 158.247 45.1076C158.233 45.1076 158.22 45.1075 158.207 45.1074C156.613 45.0941 155.681 44.2878 154.98 43.2704C154.655 42.799 154.379 42.2824 154.11 41.7783C153.373 40.3957 152.687 39.1076 151.167 39.1076C149.767 39.1076 148.287 39.8276 148.287 41.9076C148.287 43.9231 149.781 45.7629 152.689 46.7739C154.167 47.2878 156.01 47.5876 158.207 47.5876C158.22 47.5876 158.233 47.5876 158.247 47.5875C160.961 47.5807 163.289 46.8758 165.086 45.6601C167.047 44.3337 168.376 42.3991 168.89 40.0997C169.046 39.4005 169.127 38.6675 169.127 37.9076C169.127 37.175 169.044 36.4848 168.89 35.8385C168.251 33.1651 166.38 31.2437 164.01 30.1932C162.635 29.5839 161.093 29.2676 159.527 29.2676C158.895 29.2676 158.28 29.3144 157.687 29.402C157.433 29.4395 157.183 29.4844 156.937 29.5364C155.861 29.7642 154.87 30.1266 154 30.5843C153.758 30.7118 153.525 30.8468 153.302 30.9883C153.043 31.153 152.797 31.3265 152.567 31.5076L153.847 23.5876H167.327C167.61 23.5876 167.822 23.4952 167.962 23.3365C168.099 23.1818 168.167 22.9642 168.167 22.7076V19.6676C168.167 19.0939 167.911 18.8127 167.399 18.7892C167.375 18.7881 167.351 18.7876 167.327 18.7876H152.247C151.727 18.7876 151.367 19.0276 151.287 19.5476L149.767 32.3076ZM170.494 15.9049C169.398 14.9745 168.138 14.7876 167.327 14.7876H152.247C151.405 14.7876 150.247 14.9807 149.186 15.7842C148.059 16.6386 147.504 17.8319 147.333 18.9393L147.323 19.0067L145.799 31.8C145.546 33.7027 146.281 35.1783 147.276 36.1934C147.077 36.3201 146.881 36.4603 146.689 36.6153C145.087 37.909 144.287 39.8173 144.287 41.9076C144.287 45.1039 146.124 47.6817 148.683 49.2801C151.178 50.8385 154.465 51.5876 158.207 51.5876C161.875 51.5876 165.23 50.5642 167.862 48.593C168.151 49.1689 168.565 49.6923 169.101 50.1211C170.154 50.9631 171.345 51.1876 172.25 51.1876H179.61C180.489 51.1876 181.594 50.9772 182.595 50.2596C183.538 50.9522 184.6 51.1876 185.49 51.1876H192.93C193.785 51.1876 194.985 50.9771 196.049 50.1035C197.218 49.1435 197.73 47.7835 197.73 46.5076V46.3876C197.73 44.9967 197.155 43.9214 196.562 43.2085C196.043 42.5855 195.452 42.1709 195.182 41.9838C194.952 41.8249 194.849 41.7578 194.779 41.712C194.734 41.6827 194.702 41.6621 194.66 41.6318L190.116 35.2863L190.736 34.7115C191.036 34.4476 191.309 34.2737 191.744 33.9956C191.962 33.8565 192.22 33.6913 192.544 33.4758C192.913 33.2297 193.538 32.8009 194.082 32.2182C194.647 31.6145 195.49 30.4544 195.49 28.7876V28.6276C195.49 27.2479 194.883 25.9097 193.741 25.0123C192.705 24.1982 191.548 23.9876 190.69 23.9876H184.97C184.365 23.9876 183.589 24.0927 182.81 24.4626V17.9076C182.81 16.3119 182.025 14.564 180.307 13.613C178.592 12.6633 176.782 12.9494 175.484 13.5788L170.494 15.9049ZM171.89 19.6676C171.37 19.8676 171.09 20.0676 171.09 20.4676V20.6276C171.09 20.9685 171.386 21.2369 171.739 21.5559C171.878 21.6817 172.025 21.8153 172.167 21.9643C172.551 22.3686 172.89 22.8862 172.89 23.6676V43.3476C172.89 44.0988 172.586 44.5781 172.25 44.9679C172.162 45.0701 172.071 45.1662 171.984 45.2594C171.658 45.6055 171.37 45.9121 171.37 46.3476V46.5076C171.37 46.9076 171.69 47.1876 172.25 47.1876H179.61C180.17 47.1876 180.53 46.9076 180.53 46.5076V46.3476C180.53 45.9121 180.204 45.6055 179.835 45.2594C179.761 45.1897 179.685 45.1184 179.61 45.044C179.201 44.6403 178.81 44.1485 178.81 43.3476V40.3076L181.17 38.1076L185.49 44.1876C185.768 44.5798 185.685 44.8519 185.49 45.1047C185.416 45.2003 185.326 45.2932 185.234 45.3889C184.972 45.659 184.69 45.9508 184.69 46.3876V46.4676C184.69 46.9076 185.01 47.1876 185.49 47.1876H192.93C193.41 47.1876 193.73 46.9476 193.73 46.5076V46.3876C193.73 45.9164 193.373 45.5994 192.93 45.2899C192.841 45.2278 192.748 45.1659 192.654 45.1031C192.263 44.8419 191.849 44.5653 191.57 44.1876L184.81 34.7476L188.05 31.7476C188.26 31.5603 188.48 31.3867 188.702 31.2239C188.953 31.0396 189.208 30.869 189.457 30.7079C189.576 30.6303 189.694 30.5549 189.81 30.4812C190.132 30.2753 190.434 30.0826 190.69 29.8928C191.17 29.5374 191.49 29.1919 191.49 28.7876V28.6276C191.49 28.2276 191.17 27.9876 190.69 27.9876H184.97C184.49 27.9876 184.17 28.2276 184.17 28.6676V28.8276C184.17 29.0762 184.312 29.3274 184.503 29.5807C184.598 29.7077 184.706 29.8351 184.814 29.963C184.866 30.025 184.919 30.0871 184.97 30.1493C185.416 30.691 185.766 31.2393 185.13 31.7876L178.81 37.2676V17.9076C178.81 17.2276 178.17 16.7076 177.21 17.1876L171.89 19.6676ZM168.89 28.5743V27.3417C168.435 27.4897 167.976 27.5648 167.54 27.5831C168.01 27.8842 168.461 28.2146 168.89 28.5743ZM155.374 36.7225C155.643 36.9625 155.884 37.2148 156.098 37.4683C156.807 38.3102 157.369 39.3788 157.683 39.9748C157.73 40.0634 157.771 40.1416 157.806 40.207C158.08 40.7144 158.247 40.9715 158.347 41.1039C158.506 41.0907 158.544 41.0448 158.576 41.0056C158.578 41.0028 158.58 41.0001 158.583 40.9975C158.678 40.8828 159.047 40.3299 159.047 38.8676C159.047 37.0293 158.647 36.2187 158.451 35.9602C158.372 35.8552 158.316 35.8212 158.268 35.7988C158.209 35.7713 158.039 35.7076 157.687 35.7076C157.088 35.7076 156.578 35.8315 155.374 36.7225ZM136.125 39.5076H123.325C122.221 39.5076 120.825 39.1401 119.757 37.9534C118.749 36.8333 118.525 35.5247 118.525 34.6276V33.3476C118.525 32.4008 118.785 31.0998 119.803 30.0069C120.861 28.8705 122.225 28.5076 123.325 28.5076H136.125C137.226 28.5076 138.59 28.8705 139.648 30.0069C140.665 31.0998 140.925 32.4008 140.925 33.3476V34.6276C140.925 35.5247 140.702 36.8333 139.693 37.9534C138.625 39.1401 137.229 39.5076 136.125 39.5076ZM123.325 32.5076C122.805 32.5076 122.525 32.8276 122.525 33.3476V34.6276C122.525 35.1876 122.805 35.5076 123.325 35.5076H136.125C136.645 35.5076 136.925 35.1876 136.925 34.6276V33.3476C136.925 32.8276 136.645 32.5076 136.125 32.5076H123.325Z" fill="#FDF8F5"/>
</svg>
