<svg width="326" height="5" viewBox="0 0 326 5" fill="none" xmlns="http://www.w3.org/2000/svg">
<path d="M1 2.5C5.05 0.5 10.45 0.5 14.5 2.5C18.55 4.5 23.95 4.5 28 2.5C32.05 0.5 37.45 0.5 41.5 2.5C45.55 4.5 50.95 4.5 55 2.5C59.05 0.5 64.45 0.5 68.5 2.5C72.55 4.5 77.95 4.5 82 2.5C86.05 0.5 91.45 0.5 95.5 2.5C99.55 4.5 104.95 4.5 109 2.5C113.05 0.5 118.45 0.5 122.5 2.5C126.55 4.5 131.95 4.5 136 2.5C140.05 0.5 145.45 0.5 149.5 2.5C153.55 4.5 158.95 4.5 163 2.5" stroke="#ECE3DE" stroke-width="2"/>
<path d="M163 2.5C167.05 0.5 172.45 0.5 176.5 2.5C180.55 4.5 185.95 4.5 190 2.5C194.05 0.5 199.45 0.5 203.5 2.5C207.55 4.5 212.95 4.5 217 2.5C221.05 0.5 226.45 0.5 230.5 2.5C234.55 4.5 239.95 4.5 244 2.5C248.05 0.5 253.45 0.5 257.5 2.5C261.55 4.5 266.95 4.5 271 2.5C275.05 0.5 280.45 0.5 284.5 2.5C288.55 4.5 293.95 4.5 298 2.5C302.05 0.5 307.45 0.5 311.5 2.5C315.55 4.5 320.95 4.5 325 2.5" stroke="#ECE3DE" stroke-width="2"/>
</svg>
